**ABCDEFGHIJKLMNOPQRSTUVWXYZabcdefghijklmnopqrstuvwxyz**************************
**PARASOLID !"#$%&'()*+,-./:;<=>?@[\]^_`{|}~0123456789**************************
**PART1;
MC=AMD64;
MC_MODEL=Intel64 Family 6 Model 158 Stepping 10, GenuineIntel;
MC_ID=unknown;
OS=Windows_NT;
OS_RELEASE=unknown;
FRU=Parasolid Version 31.1, build 290,  3- 9-2020;
APPL=SOLIDWORKS 2020-2020196;
SITE=;
USER=unknown;
FORMAT=text;
GUISE=transmit;
KEY=CAP 0805;
FILE=CAP 0805.x_t;
DATE=Sun May  2 00:47:57 2021;
**PART2;
SCH=SCH_3101290_31100;
USFLD_SIZE=0;
**PART3;
**END_OF_HEADER*****************************************************************
T51 : TRANSMIT FILE created by modeller version 310129017 SCH_2800000_280020 12
 1 3301 2 3 0 4 0 0 1e3 1e-8 0 5 0 1 0 1 1 6 7 8 9 10 11 12 0 0 0 0 0 0 0 81 2 2
 3247 13 1 14 0 0 0 0 15 70 3 0 4 T1 0 0 9 20 1 16 16 133 4 2910 0 1 17 0 0 +18
 -988e-6 12e-6 -637e-6 -612e-6 12e-6 -637e-6 -388e-6 -12e-6 13 6 1110 0 1 0 19 0
 0 20 0 68 7 1102 0 19 21 0 0 +8 -988e-6 12e-6 -625e-6 1 0 0 -976e-6 12e-6 -625e
-6 -.001 12e-6 -625e-6 0 3.141592653589795 0 0 -1 ?31 8 1106 0 1 22 0 23 +-988e-
6 12e-6 -625e-6 0 1 0 1 0 0 12e-6 29 9 1014 0 24 25 0 -.001 12e-6 -625e-6 19 10
 5 0 1 20 0 26 V0 16 11 21 0 ?27 0 28 29 0 0 1 18 12 17 0 30 0 31 32 ?1 17 30 0
 33 34 35 12 36 37 0 38 -18 31 13 0 39 12 40 41 ?1 29 32 34 0 12 0 41 .001 .0012
62 625e-6 29 41 37 0 31 32 42 .001 .001262 -625e-6 29 42 40 0 43 41 44 .001 12e-
6 625e-6 18 43 7 0 45 40 46 42 ?1 29 44 41 0 40 42 47 .001 12e-6 -625e-6 18 40 9
 0 48 31 43 44 ?1 29 47 65 0 46 44 49 988e-6 .001262 637e-6 18 46 53 0 50 43 51
 47 ?1 29 49 63 0 51 47 52 988e-6 12e-6 637e-6 18 51 56 0 53 46 54 49 ?1 29 52 8
6 0 54 49 55 988e-6 .001274 -625e-6 18 54 74 0 56 51 57 52 ?1 29 55 84 0 57 52 5
8 988e-6 .001274 625e-6 18 57 77 0 59 54 60 55 ?1 29 58 106 0 60 55 61 988e-6 .0
01262 -637e-6 18 60 96 0 62 57 63 58 ?1 29 61 104 0 63 58 64 988e-6 12e-6 -637e-
6 18 63 97 0 65 60 66 61 ?1 29 64 128 0 66 61 67 988e-6 586570315973603e-34 625e
-6 18 66 116 0 68 63 69 64 ?1 29 67 126 0 69 64 70 988e-6 213875819181711e-34 -6
25e-6 18 69 119 0 71 66 72 67 ?1 29 70 147 0 73 67 74 612e-6 .001262 637e-6 18 7
3 140 0 75 72 76 70 ?1 29 74 146 0 72 70 77 612e-6 12e-6 637e-6 18 72 139 0 78 6
9 73 74 ?1 29 77 205 0 76 74 79 612e-6 .001274 625e-6 18 76 195 0 80 73 81 77 ?1
 29 79 203 0 81 77 82 612e-6 .001274 -625e-6 18 81 196 0 83 76 84 79 ?1 29 82 24
3 0 85 79 86 612e-6 12e-6 -637e-6 18 85 236 0 87 84 88 82 ?1 29 86 242 0 84 82 8
9 612e-6 .001262 -637e-6 18 84 235 0 90 81 85 86 ?1 29 89 283 0 88 86 91 612e-6
 135525271560688e-34 -625e-6 18 88 273 0 92 85 93 89 ?1 29 91 281 0 93 89 94 612
e-6 59292306307801e-33 .000625000000000064 18 93 274 0 95 88 96 91 ?1 29 94 367
 0 96 91 97 6e-4 .001262 625e-6 18 96 357 0 98 93 99 94 ?1 29 97 430 0 99 94 100
 6e-4 .001262 -625e-6 18 99 420 0 101 96 102 97 ?1 29 100 452 0 102 97 103 6e-4
 12e-6 625e-6 18 102 440 0 104 99 105 100 ?1 29 103 450 0 105 100 106 6e-4 12e-6
 -625e-6 18 105 443 0 107 102 108 103 ?1 29 106 509 0 108 103 109 -6e-4 12e-6 62
5e-6 18 108 497 0 110 105 111 106 ?1 29 109 507 0 111 106 112 -6e-4 .001262 625e
-6 18 111 500 0 113 108 114 109 ?1 29 112 528 0 114 109 115 -6e-4 .001262 -625e-
6 18 114 521 0 116 111 117 112 ?1 29 115 585 0 117 112 118 -6e-4 12e-6 -625e-6 1
8 117 578 0 119 114 120 115 ?1 29 118 629 0 120 115 121 -612e-6 .001262 637e-6 1
8 120 617 0 122 117 123 118 ?1 29 121 627 0 123 118 124 -612e-6 12e-6 637e-6 18
 123 620 0 125 120 126 121 ?1 29 124 649 0 126 121 127 -612e-6 .001274 625e-6 18
 126 639 0 128 123 129 124 ?1 29 127 647 0 129 124 130 -612e-6 .001274 -625e-6 1
8 129 640 0 131 126 132 127 ?1 29 130 670 0 132 127 133 -612e-6 .001262 -637e-6
 18 132 660 0 134 129 135 130 ?1 29 133 668 0 135 130 136 -612e-6 12e-6 -637e-6
 18 135 661 0 137 132 138 133 ?1 29 136 691 0 138 133 139 -612e-6 30704944337968
4e-34 -625e-6 18 138 681 0 140 135 141 136 ?1 29 139 689 0 141 136 142 -612e-6 3
091670257478195e-35 625e-6 18 141 682 0 143 138 144 139 ?1 29 142 712 0 144 139
 145 -988e-6 .001262 637e-6 18 144 702 0 146 141 147 142 ?1 29 145 710 0 147 142
 148 -988e-6 12e-6 637e-6 18 147 703 0 149 144 150 145 ?1 29 148 769 0 150 145 1
51 -988e-6 .001274 -625e-6 18 150 759 0 152 147 153 148 ?1 29 151 767 0 153 148
 154 -988e-6 .001274 625e-6 18 153 760 0 155 150 156 151 ?1 29 154 808 0 156 151
 157 -988e-6 12e-6 -637e-6 18 156 798 0 158 153 159 154 ?1 29 157 806 0 159 154
 160 -988e-6 .001262 -637e-6 18 159 799 0 161 156 162 157 ?1 29 160 848 0 162 15
7 163 -988e-6 0 -625e-6 18 162 836 0 164 159 165 160 ?1 29 163 846 0 165 160 166
 -988e-6 271050543121376e-34 .000625000000000064 18 165 839 0 167 162 168 163 ?1
 29 166 952 0 168 163 169 -.001 .001262 625e-6 18 168 942 0 170 165 171 166 ?1 2
9 169 994 0 171 166 25 -.001 .001262 -625e-6 18 171 984 0 172 168 173 169 ?1 29
 25 1016 0 173 169 9 -.001 12e-6 625e-6 18 173 1004 0 174 171 24 25 ?1 17 174 0
 175 176 177 173 178 179 0 180 -18 24 1007 0 181 173 0 9 ?1 17 181 0 182 158 164
 24 183 184 0 185 -15 182 1095 0 181 19 0 17 158 0 182 164 181 156 185 186 0 187
 -17 164 0 182 181 158 162 188 189 0 190 -17 183 0 191 192 178 162 181 184 0 193
 +16 184 1003 0 ?183 194 0 195 0 0 1 17 185 0 196 197 187 24 158 186 0 177 +15 1
96 978 0 198 199 0 17 197 0 196 198 185 171 177 200 0 0 +17 187 0 196 185 198 15
6 201 202 0 188 +16 186 982 0 ?185 200 179 203 0 0 1 17 177 0 175 174 204 24 197
 200 0 178 -15 175 1038 0 177 205 0 17 204 0 175 177 176 171 206 207 0 197 -16 2
00 981 0 ?197 208 186 209 0 0 1 17 178 0 191 183 210 24 174 179 0 0 +15 191 999
 0 210 211 0 17 210 0 191 178 192 173 167 194 0 0 +16 179 1000 0 ?178 186 194 21
2 0 0 1 16 194 1001 0 ?210 179 184 213 0 0 1 30 212 1012 0 179 203 213 214 +-.00
1 12e-6 637e-6 0 0 -1 31 203 988 0 186 209 212 215 +-988e-6 12e-6 -625e-6 0 1 -8
51022113410914e-31 0 851022113410914e-31 1 12e-6 31 213 1011 0 194 212 195 216 +
-988e-6 12e-6 625e-6 0 0 -1 -1 0 0 12e-6 141 214 217 214 214 212 133 217 2895 0
 1 218 219 0 +212 -.001 12e-6 625e-6 -.001 12e-6 -625e-6 12e-6 .001262 133 218 2
894 0 1 220 217 0 +209 -.001 12e-6 -625e-6 -.001 .001262 -625e-6 12e-6 .001262 1
33 219 2896 0 1 217 221 0 +222 -.001 .001262 -625e-6 -.001 .001262 625e-6 12e-6
 .001262 133 221 2899 0 1 219 17 0 +223 -988e-6 .001262 -637e-6 -988e-6 12e-6 -6
37e-6 -.001262 -12e-6 30 222 947 0 207 224 225 226 +-.001 .001262 -637e-6 0 0 1
 16 207 939 0 ?206 227 228 222 0 0 1 31 224 948 0 227 229 222 0 --988e-6 .001262
 625e-6 0 0 1 1 0 0 12e-6 31 225 946 0 228 222 230 231 +-988e-6 .001262 -625e-6
 0 0 1 1 0 0 12e-6 141 226 219 226 226 222 16 228 940 0 ?232 207 189 225 0 0 1 3
1 230 967 0 189 225 233 0 --988e-6 12e-6 -625e-6 -1 0 0 0 0 1 12e-6 141 231 234
 231 231 225 133 234 2872 0 1 235 236 0 +225 -988e-6 .001274 -625e-6 -.001 .0012
62 -625e-6 1.570796326794895 3.141592653589795 133 235 2867 0 1 237 234 0 +203 -
988e-6 12e-6 -637e-6 -.001 12e-6 -625e-6 3.141592653589795 4.71238898038469 133
 236 2880 0 1 234 238 0 +239 -612e-6 .001262 -637e-6 -612e-6 .001274 -625e-6 0 1
.570796326794895 133 238 2884 0 1 236 240 0 +241 -988e-6 .001274 -625e-6 -612e-6
 .001274 -625e-6 -388e-6 -12e-6 31 239 783 0 242 243 18 244 +-612e-6 .001262 -62
5e-6 1 0 0 0 0 -1 12e-6 16 242 776 0 ?245 246 247 239 0 0 1 31 243 785 0 1 248 2
39 249 +-612e-6 .001262 -625e-6 0 1 0 1 0 0 12e-6 30 18 804 0 247 239 223 250 +-
6e-4 12e-6 -637e-6 1 0 0 141 244 236 244 244 239 16 247 794 0 ?137 242 202 18 0
 0 1 30 223 803 0 202 18 251 252 +-988e-6 0 -637e-6 0 -1 851022113410914e-31 141
 250 4 250 250 18 16 202 795 0 ?187 247 253 223 0 0 1 30 251 802 0 253 223 254 0
 --6e-4 .001262 -637e-6 1 0 0 141 252 221 252 252 223 16 253 796 0 ?255 202 256
 251 0 0 1 31 254 824 0 1 251 257 258 +-612e-6 12e-6 -625e-6 0 1 0 1 0 0 12e-6 3
1 257 822 0 256 254 259 260 +-612e-6 12e-6 -625e-6 1 0 0 0 0 -1 12e-6 141 258 26
1 258 258 254 68 261 820 0 262 263 264 0 +254 -612e-6 12e-6 -625e-6 1 0 0 -6e-4
 12e-6 -625e-6 -624e-6 12e-6 -625e-6 0 3.141592653589795 0 0 -1 ?14 262 811 265
 1e-8 266 267 268 6 261 +0 0 267 266 26 50 263 801 0 266 269 261 0 +-6e-4 0 -637
e-6 0 851022113410914e-31 1 0 -1 851022113410914e-31 50 264 840 0 267 261 270 0
 +-6e-4 0 637e-6 0 1 0 0 0 1 14 267 829 271 1e-8 262 272 273 6 264 -0 0 272 262
 26 51 270 861 0 272 264 274 0 +-6e-4 .001262 625e-6 -1 0 0 12e-6 0 0 1 14 272 8
50 275 1e-8 267 276 277 6 270 +0 0 276 267 26 51 274 882 0 276 270 278 0 +-988e-
6 .001274 625e-6 0 -1 -851022113410914e-31 12e-6 0 851022113410914e-31 -1 14 276
 871 279 1e-8 272 280 281 6 274 +0 0 280 272 26 51 278 903 0 280 274 282 0 +-6e-
4 12e-6 625e-6 -1 0 0 12e-6 0 0 1 14 280 892 283 1e-8 276 284 285 6 278 +0 0 284
 276 26 51 282 924 0 284 278 286 0 +-6e-4 .001262 -625e-6 -1 0 0 12e-6 0 0 1 14
 284 913 287 1e-8 280 288 289 6 282 +0 0 288 280 26 51 286 945 0 288 282 290 0 +
-988e-6 .001262 -637e-6 0 0 1 12e-6 1 0 0 14 288 934 291 1e-8 284 292 293 6 286
 +0 0 292 284 26 51 290 966 0 292 286 294 0 +-6e-4 12e-6 -625e-6 -1 0 0 12e-6 0
 0 1 14 292 955 295 1e-8 288 199 296 6 290 +0 0 199 288 26 51 294 987 0 199 290
 297 0 +-988e-6 1021226536093096e-36 -625e-6 0 1 -851022113410914e-31 12e-6 0 85
1022113410914e-31 1 14 199 976 298 1e-8 292 211 196 6 294 +0 0 211 292 26 51 297
 1008 0 211 294 299 0 +-988e-6 12e-6 637e-6 0 0 -1 12e-6 -1 0 0 14 211 997 300 1
e-8 199 301 191 6 297 +0 0 301 199 26 68 299 1027 0 301 297 302 0 +303 -988e-6 .
001262 625e-6 1 0 0 -976e-6 .001262 625e-6 -.001 .001262 625e-6 0 3.141592653589
795 0 0 -1 ?14 301 1018 304 1e-8 211 205 305 6 299 +0 0 205 211 26 50 302 1047 0
 205 299 306 0 +-.001 12e-6 625e-6 1 0 0 0 0 -1 31 303 1031 0 1 195 307 308 +-98
8e-6 .001262 625e-6 0 1 0 1 0 0 12e-6 31 195 1009 0 184 213 303 0 --988e-6 12e-6
 -625e-6 0 0 -1 -1 0 0 12e-6 31 307 1070 0 1 303 22 309 +-988e-6 12e-6 625e-6 0
 1 0 1 0 0 12e-6 141 308 299 308 308 303 31 22 1088 0 1 307 8 310 +-988e-6 .0012
62 -625e-6 0 1 0 1 0 0 12e-6 141 309 306 309 309 307 68 306 1066 0 311 302 21 0
 +307 -988e-6 12e-6 625e-6 1 0 0 -976e-6 12e-6 625e-6 -.001 12e-6 625e-6 0 3.141
592653589795 0 0 -1 ?14 311 1057 312 1e-8 205 313 314 6 306 +0 0 313 205 26 68 2
1 1084 0 313 306 7 0 +22 -988e-6 .001262 -625e-6 1 0 0 -976e-6 .001262 -625e-6 -
.001 .001262 -625e-6 0 3.141592653589795 0 0 -1 ?14 313 1075 315 1e-8 311 19 316
 6 21 +0 0 19 311 26 81 1 315 3260 317 313 318 0 312 319 320 14 19 1093 319 1e-8
 313 0 182 6 7 +0 0 0 313 26 15 316 1077 0 152 313 0 13 26 3 0 0 0 0 0 0 10 321
 14 321 2 322 1e-8 0 323 324 6 325 +0 0 323 0 26 81 1 322 3262 317 321 326 0 319
 327 328 14 323 46 327 1e-8 321 329 330 6 331 +0 0 329 321 26 15 324 8 0 332 321
 0 50 325 6 0 321 0 331 0 +.001 12e-6 625e-6 1 0 0 0 0 -1 51 331 57 0 323 325 33
3 0 +988e-6 12e-6 625e-6 0 -1 -851022113410914e-31 12e-6 0 851022113410914e-31 -
1 51 333 78 0 329 331 334 0 +988e-6 .001262 625e-6 0 0 1 12e-6 1 0 0 14 329 67 3
35 1e-8 323 336 337 6 333 +0 0 336 323 26 51 334 99 0 336 333 338 0 +988e-6 12e-
6 -625e-6 0 1 -851022113410914e-31 12e-6 0 851022113410914e-31 1 14 336 88 339 1
e-8 329 340 341 6 334 +0 0 340 329 26 51 338 120 0 340 334 342 0 +988e-6 12e-6 6
25e-6 0 0 -1 12e-6 -1 0 0 14 340 109 343 1e-8 336 344 345 6 338 +0 0 344 336 26
 50 342 141 0 344 338 346 0 +6e-4 .001274 637e-6 0 -851022113410914e-31 1 0 -1 -
851022113410914e-31 14 344 130 347 1e-8 340 348 349 6 342 +0 0 348 340 26 68 346
 160 0 348 342 350 0 +351 988e-6 .001262 625e-6 1 0 0 .001 .001262 625e-6 976e-6
 .001262 625e-6 0 3.141592653589795 0 0 -1 0 14 348 151 352 1e-8 344 353 33 6 34
6 +0 0 353 344 26 68 350 178 0 353 346 354 0 +355 988e-6 12e-6 625e-6 1 0 0 .001
 12e-6 625e-6 976e-6 12e-6 625e-6 0 3.141592653589795 0 0 -1 ?31 351 164 0 1 356
 357 358 +988e-6 .001262 625e-6 0 1 0 1 0 0 12e-6 30 356 142 0 359 360 351 361 +
612e-6 .001274 637e-6 0 -1 -851022113410914e-31 31 357 163 0 362 351 355 363 +98
8e-6 .001262 625e-6 1 0 0 0 0 -1 12e-6 141 358 346 358 358 351 16 362 154 0 ?35
 359 364 357 0 0 1 31 355 182 0 1 357 365 366 +988e-6 12e-6 625e-6 0 1 0 1 0 0 1
2e-6 141 363 367 363 363 357 133 367 2794 0 1 368 369 0 +357 988e-6 .001274 625e
-6 988e-6 .001262 637e-6 1.570796326794905 3.141592653589795 133 368 2789 0 1 37
0 367 0 +371 -612e-6 12e-6 637e-6 -612e-6 355753837846806e-34 625e-6 3.141592653
58979 4.71238898038469 133 369 2795 0 1 367 372 0 +373 .001 .001262 625e-6 988e-
6 .001262 637e-6 1.570796326794895 3.141592653589795 133 372 2798 0 1 369 374 0
 +375 612e-6 12e-6 -637e-6 612e-6 .001262 -637e-6 12e-6 .001262 31 373 60 0 37 3
76 377 378 +988e-6 .001262 625e-6 0 -1 -851022113410914e-31 0 851022113410914e-3
1 -1 12e-6 16 37 50 0 ?36 379 380 373 0 0 1 30 376 61 0 379 381 373 382 +988e-6
 12e-6 637e-6 0 -1 -851022113410914e-31 31 377 58 0 380 373 383 0 -988e-6 12e-6
 625e-6 0 -1 -851022113410914e-31 0 851022113410914e-31 -1 12e-6 141 378 369 378
 378 373 16 380 52 0 ?384 37 385 377 0 0 1 30 383 82 0 385 377 386 387 +988e-6 .
001274 625e-6 0 0 1 16 385 70 0 ?388 380 389 383 0 0 1 31 386 81 0 389 383 390 3
91 +988e-6 .001262 -625e-6 0 0 1 1 0 0 12e-6 141 387 392 387 387 383 133 392 280
9 0 1 374 393 0 +383 988e-6 .001274 -625e-6 988e-6 .001274 625e-6 -.00125 216840
434497101e-33 133 374 2808 0 1 372 392 0 +394 612e-6 .001274 625e-6 988e-6 .0012
74 625e-6 12e-6 388e-6 133 393 2813 0 1 392 395 0 +365 988e-6 12e-6 637e-6 988e-
6 355753837846806e-34 625e-6 3.14159265358979 4.71238898038469 133 395 2818 0 1
 393 396 0 +397 -6e-4 .001262 -625e-6 -612e-6 .001274 -625e-6 0 1.57079632679489
5 31 365 179 0 364 355 394 398 +988e-6 12e-6 625e-6 1 0 0 0 0 -1 12e-6 16 364 17
4 0 ?399 362 400 365 0 0 1 30 394 201 0 400 365 401 402 +6e-4 .001274 625e-6 1 0
 0 141 398 393 398 398 365 16 400 191 0 ?403 364 404 394 0 0 1 30 401 200 0 404
 394 405 406 +612e-6 .001274 -637e-6 0 0 1 141 402 374 402 402 394 16 404 192 0
 ?407 400 408 401 0 0 1 30 405 199 0 408 401 409 0 -6e-4 .001274 -625e-6 1 0 0 1
41 406 410 406 406 401 133 410 2672 0 1 411 412 0 +401 612e-6 .001274 -625e-6 61
2e-6 .001274 625e-6 12e-6 .001262 133 411 2669 0 1 413 410 0 +414 6e-4 .001262 6
25e-6 612e-6 .001274 625e-6 0 1.570796326794895 133 412 2679 0 1 410 415 0 +416
 .001 12e-6 625e-6 988e-6 33881317890172e-33 625e-6 3.14159265358979 4.712388980
38469 133 415 2682 0 1 412 417 0 +418 988e-6 33881317890172e-33 625e-6 988e-6 33
881317890172e-33 -625e-6 0 .00125 31 416 123 0 419 418 420 421 +988e-6 12e-6 625
e-6 0 0 -1 -1 0 0 12e-6 16 419 113 0 ?422 423 424 416 0 0 1 30 418 124 0 423 425
 416 426 +988e-6 33881317890172e-33 625e-6 0 0 -1 31 420 121 0 424 416 427 0 -98
8e-6 12e-6 -625e-6 0 0 -1 -1 0 0 12e-6 141 421 412 421 421 416 16 424 115 0 ?428
 419 429 420 0 0 1 30 427 145 0 429 420 360 0 -6e-4 .001262 637e-6 1 0 0 16 429
 133 0 ?430 424 431 427 0 0 1 30 360 143 0 431 427 356 432 +6e-4 12e-6 637e-6 1
 0 0 16 431 135 0 ?433 429 359 360 0 0 1 141 432 434 432 432 360 133 434 2754 0
 1 435 436 0 +360 612e-6 12e-6 637e-6 988e-6 12e-6 637e-6 12e-6 388e-6 133 435 2
753 0 1 437 434 0 +356 612e-6 .001262 637e-6 612e-6 12e-6 637e-6 12e-6 .001262 1
33 436 2759 0 1 434 438 0 +439 -6e-4 12e-6 -625e-6 -6e-4 12e-6 625e-6 -.00125 0
 133 438 2760 0 1 436 440 0 +441 -6e-4 12e-6 625e-6 -612e-6 1084202172485504e-34
 625e-6 3.1415926535898 4.71238898038469 30 439 604 0 442 443 444 445 +-6e-4 12e
-6 625e-6 0 0 1 16 442 592 0 ?446 447 448 439 0 0 1 30 443 580 0 447 449 439 450
 +.001 12e-6 -625e-6 1 0 0 30 444 625 0 448 439 451 452 +-612e-6 .001274 637e-6
 0 -1 -851022113410914e-31 141 445 436 445 445 439 16 448 613 0 ?453 442 454 444
 0 0 1 31 451 624 0 454 444 455 456 +-612e-6 .001262 625e-6 0 -1 -85102211341091
4e-31 0 851022113410914e-31 -1 12e-6 141 452 457 452 452 444 133 457 2705 0 1 45
8 459 0 +444 -612e-6 .001262 637e-6 -612e-6 12e-6 637e-6 12e-6 .001262 133 458 2
701 0 1 460 457 0 +461 -988e-6 12e-6 637e-6 -988e-6 .001262 637e-6 -.001262 -12e
-6 133 459 2710 0 1 457 462 0 +463 -6e-4 12e-6 -625e-6 -612e-6 12e-6 -637e-6 1.5
7079632679489 3.141592653589795 133 462 2712 0 1 459 464 0 +465 -612e-6 12e-6 -6
37e-6 -612e-6 .001262 -637e-6 -.001262 -12e-6 31 463 664 0 466 465 467 468 +-612
e-6 12e-6 -625e-6 0 1 -851022113410914e-31 0 851022113410914e-31 1 12e-6 16 466
 658 0 ?469 470 471 463 0 0 1 30 465 665 0 470 472 463 473 +-612e-6 .001274 -637
e-6 0 1 -851022113410914e-31 31 467 687 0 471 463 474 0 --612e-6 12e-6 -625e-6 0
 0 -1 -1 0 0 12e-6 141 468 459 468 468 463 16 471 677 0 ?475 466 476 467 0 0 1 3
0 474 686 0 476 467 441 477 +-612e-6 1084202172485504e-34 637e-6 0 0 -1 16 476 6
78 0 ?478 471 479 474 0 0 1 31 441 685 0 479 474 480 481 +-612e-6 12e-6 625e-6 0
 0 -1 -1 0 0 12e-6 141 477 440 477 477 474 133 440 2762 0 1 438 482 0 +474 -612e
-6 1084202172485504e-34 625e-6 -612e-6 1084202172485504e-34 -625e-6 12e-6 .00126
2 133 482 2765 0 1 440 483 0 +484 612e-6 33881317890172e-33 -625e-6 612e-6 12e-6
 -637e-6 4.71238898038469 6.28318530717959 133 483 2769 0 1 482 485 0 +486 988e-
6 355753837846806e-34 -625e-6 988e-6 12e-6 -637e-6 4.71238898038469 6.2831853071
7959 31 484 405 0 487 488 489 490 +612e-6 12e-6 -625e-6 1 0 0 0 0 -1 12e-6 16 48
7 395 0 ?491 492 493 484 0 0 1 31 488 384 0 492 494 484 495 +612e-6 .001262 -625
e-6 1 0 0 0 0 -1 12e-6 31 489 426 0 493 484 496 497 +612e-6 .001262 -625e-6 0 -1
 851022113410914e-31 0 -851022113410914e-31 -1 12e-6 141 490 482 490 490 484 16
 493 416 0 ?498 487 499 489 0 0 1 30 496 425 0 499 489 500 0 -6e-4 1021226536093
096e-36 -625e-6 0 -1 851022113410914e-31 141 497 464 497 497 489 133 464 2715 0
 1 462 501 0 +489 6e-4 .001262 -625e-6 612e-6 .001262 -637e-6 4.71238898038468 6
.28318530717959 133 501 2717 0 1 464 502 0 +488 612e-6 .001262 -637e-6 612e-6 .0
01274 -625e-6 0 1.570796326794905 133 502 2724 0 1 501 503 0 +504 -6e-4 .001262
 625e-6 6e-4 .001262 625e-6 -.0016 -4e-4 133 503 2726 0 1 502 505 0 +506 -6e-4 1
2e-6 625e-6 -6e-4 .001262 625e-6 -.00125 -94039548065783e-49 30 504 502 0 507 50
8 509 510 +.001 .001262 625e-6 1 0 0 16 507 496 0 ?98 511 512 504 0 0 1 30 508 5
04 0 511 506 504 0 -.001 12e-6 625e-6 1 0 0 30 509 526 0 512 504 513 514 +-6e-4
 .001262 -625e-6 0 0 -1 141 510 502 510 510 504 16 512 514 0 ?515 507 516 509 0
 0 1 30 513 523 0 516 509 517 518 +.001 .001262 -625e-6 1 0 0 141 514 519 514 51
4 509 133 519 2773 0 1 485 520 0 +509 -6e-4 .001262 625e-6 -6e-4 .001262 -625e-6
 -.00125 0 133 485 2770 0 1 483 519 0 +521 612e-6 0 -625e-6 988e-6 0 -625e-6 12e
-6 388e-6 133 520 2776 0 1 519 522 0 +425 .001 12e-6 -625e-6 988e-6 12e-6 -637e-
6 1.570796326794895 3.141592653589795 133 522 2779 0 1 520 370 0 +523 988e-6 12e
-6 -637e-6 988e-6 .001262 -637e-6 1067261513540418e-34 .00125 31 425 100 0 524 5
23 418 525 +988e-6 12e-6 -625e-6 0 1 -851022113410914e-31 0 851022113410914e-31
 1 12e-6 16 524 94 0 ?526 527 423 425 0 0 1 30 523 101 0 527 528 425 529 +988e-6
 12e-6 -637e-6 0 1 -851022113410914e-31 141 525 520 525 525 425 16 527 93 0 ?530
 531 524 523 0 0 1 31 528 102 0 531 390 523 0 -988e-6 .001262 -625e-6 0 1 -85102
2113410914e-31 0 851022113410914e-31 1 12e-6 141 529 522 529 529 523 16 531 92 0
 ?532 533 527 528 0 0 1 31 390 79 0 533 386 528 0 -988e-6 .001262 625e-6 0 0 1 1
 0 0 12e-6 16 533 73 0 ?38 389 531 390 0 0 1 17 38 0 337 534 388 12 34 533 0 535
 +16 389 71 0 ?536 385 533 386 0 0 1 17 536 0 337 388 534 54 39 389 0 0 +15 337
 69 0 536 329 0 17 388 0 337 38 536 57 537 385 0 0 +17 534 0 337 536 38 31 332 2
8 0 538 -17 39 0 539 540 541 31 536 389 0 532 -15 539 210 0 540 542 0 17 540 0 5
39 541 39 60 532 531 0 530 -17 541 0 539 39 540 54 62 543 0 537 +17 532 0 341 54
4 530 31 540 531 0 534 +15 341 90 0 532 336 0 17 544 0 341 526 532 40 538 545 0
 546 -17 530 0 341 532 526 60 547 527 0 0 +17 526 0 341 530 544 63 48 524 0 0 +1
7 547 0 548 549 550 63 530 527 0 526 -15 548 228 0 547 551 0 17 549 0 548 552 54
7 85 65 553 0 0 +17 550 0 548 547 552 60 554 555 0 540 +17 552 0 548 550 549 84
 556 557 0 0 +17 554 0 558 559 62 84 550 555 0 552 -16 555 231 0 ?550 553 557 56
0 0 0 1 16 553 229 0 ?549 543 555 561 0 0 1 16 557 232 0 ?552 555 562 375 0 0 1
 30 560 239 0 555 561 375 563 +6e-4 .001262 -637e-6 1 0 0 30 561 241 0 553 564 5
60 0 -6e-4 12e-6 -637e-6 1 0 0 30 375 238 0 557 560 565 566 +612e-6 0 -637e-6 0
 1 -851022113410914e-31 141 563 567 563 563 560 133 567 2827 0 1 396 568 0 +560
 612e-6 .001262 -637e-6 988e-6 .001262 -637e-6 12e-6 388e-6 133 396 2820 0 1 395
 567 0 +569 -612e-6 .001274 -625e-6 -612e-6 .001274 625e-6 -.001262 -12e-6 133 5
68 2836 0 1 567 570 0 +451 -6e-4 .001262 625e-6 -612e-6 .001262 637e-6 1.5707963
2679489 3.141592653589795 133 570 2837 0 1 568 571 0 +572 -612e-6 .001274 625e-6
 -612e-6 .001262 637e-6 1.570796326794895 3.141592653589795 133 571 2846 0 1 570
 573 0 +574 -988e-6 0 625e-6 -612e-6 0 625e-6 -388e-6 -12e-6 31 572 725 0 575 57
6 577 578 +-612e-6 .001262 625e-6 1 0 0 0 0 -1 12e-6 16 575 720 0 ?579 580 581 5
72 0 0 1 31 576 728 0 1 582 572 583 +-612e-6 .001262 625e-6 0 1 0 1 0 0 12e-6 31
 577 746 0 1 572 371 584 +-612e-6 12e-6 625e-6 0 1 0 1 0 0 12e-6 141 578 570 578
 578 572 31 371 743 0 581 577 241 585 +-612e-6 12e-6 625e-6 1 0 0 0 0 -1 12e-6 1
41 584 586 584 584 577 68 586 742 0 587 588 589 0 +577 -612e-6 12e-6 625e-6 1 0
 0 -6e-4 12e-6 625e-6 -624e-6 12e-6 625e-6 0 3.141592653589795 0 0 -1 ?14 587 73
3 590 1e-8 591 592 593 6 586 +0 0 592 591 26 68 588 724 0 591 594 586 0 +576 -61
2e-6 .001262 625e-6 1 0 0 -6e-4 .001262 625e-6 -624e-6 .001262 625e-6 0 3.141592
653589795 0 0 -1 ?50 589 762 0 592 586 269 0 +-6e-4 .001274 -637e-6 0 -1 0 0 0 -
1 14 592 751 595 1e-8 587 596 597 6 589 -0 0 596 587 26 68 269 781 0 596 589 263
 0 +243 -612e-6 .001262 -625e-6 1 0 0 -6e-4 .001262 -625e-6 -624e-6 .001262 -625
e-6 0 3.141592653589795 0 0 -1 ?14 596 772 598 1e-8 592 266 599 6 269 +0 0 266 5
92 26 81 1 598 3271 317 596 600 0 595 601 602 14 266 790 601 1e-8 596 262 603 6
 263 -0 0 262 596 26 15 599 774 0 245 596 0 17 245 0 599 116 604 129 134 242 0 6
05 +17 116 0 599 604 245 114 606 607 0 608 -17 604 0 599 245 116 132 608 609 0 6
10 -17 134 0 289 255 131 132 245 242 0 611 -17 605 0 597 612 613 129 614 615 0 6
06 -15 597 753 0 612 592 0 17 612 0 597 616 605 150 131 617 0 0 -17 613 0 597 60
5 616 126 618 246 0 619 -17 614 0 620 621 606 126 605 615 0 0 +16 615 636 0 ?614
 622 607 569 0 0 1 17 606 0 620 614 515 129 116 607 0 0 +15 620 633 0 621 623 0
 17 515 0 620 606 621 114 624 512 0 625 +16 607 637 0 ?606 615 609 397 0 0 1 16
 609 656 0 ?608 607 470 472 0 0 1 31 397 643 0 607 569 472 626 +-612e-6 .001262
 -625e-6 0 0 1 1 0 0 12e-6 30 569 644 0 615 627 397 628 +-612e-6 .001274 637e-6
 0 0 1 31 472 666 0 609 397 465 0 --612e-6 .001262 -625e-6 0 1 -851022113410914e
-31 0 851022113410914e-31 1 12e-6 141 626 395 626 626 397 31 627 645 0 622 455 5
69 0 --612e-6 .001262 625e-6 0 0 1 1 0 0 12e-6 141 628 396 628 628 569 16 622 63
5 0 ?621 629 615 627 0 0 1 31 455 622 0 629 451 627 0 --612e-6 12e-6 625e-6 0 -1
 -851022113410914e-31 0 851022113410914e-31 -1 12e-6 16 629 616 0 ?630 454 622 4
55 0 0 1 17 630 0 631 632 453 108 633 629 0 634 +16 454 614 0 ?635 448 629 451 0
 0 1 17 635 0 631 453 632 120 113 454 0 0 +15 631 612 0 635 636 0 17 453 0 631 6
30 635 123 637 448 0 0 +17 632 0 631 635 630 111 634 638 0 639 +17 113 0 640 619
 579 111 635 454 0 621 -15 640 717 0 113 591 0 17 619 0 640 579 113 126 621 622
 0 614 -17 579 0 640 113 619 120 128 575 0 637 +17 621 0 620 515 614 111 619 622
 0 624 +17 624 0 641 98 625 111 515 512 0 632 -15 641 513 0 98 642 0 17 98 0 641
 643 624 96 639 507 0 644 +17 625 0 641 624 643 114 101 516 0 0 -17 643 0 641 62
5 98 99 645 646 0 647 -17 101 0 648 649 650 99 625 516 0 651 +16 516 517 0 ?101
 512 652 513 0 0 1 16 652 571 0 ?653 516 447 449 0 0 1 17 653 0 654 469 608 117
 650 652 0 655 +16 447 574 0 ?107 652 442 443 0 0 1 30 449 583 0 652 656 443 657
 +-6e-4 12e-6 -625e-6 0 -1 867361737988404e-31 31 656 563 0 1 517 449 658 +612e-
6 12e-6 -625e-6 0 1 0 1 0 0 12e-6 141 657 659 657 657 449 133 659 2695 0 1 660 4
60 0 +449 -6e-4 .001262 -625e-6 -6e-4 12e-6 -625e-6 -.00125 -50821976835258e-34
 133 660 2693 0 1 661 659 0 +443 -6e-4 12e-6 -625e-6 6e-4 12e-6 -625e-6 -.0016 -
4e-4 133 460 2698 0 1 659 458 0 +480 -988e-6 .001262 637e-6 -612e-6 .001262 637e
-6 -388e-6 -12e-6 30 480 708 0 662 441 461 663 +-6e-4 .001262 637e-6 1 0 0 16 66
2 698 0 ?122 479 664 480 0 0 1 30 461 707 0 664 480 582 665 +-988e-6 .001274 637
e-6 0 1 851022113410914e-31 141 663 460 663 663 480 16 664 699 0 ?666 662 580 46
1 0 0 1 30 582 706 0 580 461 576 0 --6e-4 12e-6 637e-6 1 0 0 141 665 458 665 665
 461 16 580 700 0 ?667 664 575 582 0 0 1 17 667 0 285 668 125 147 669 580 0 670
 +15 285 894 0 125 280 0 17 668 0 285 143 667 165 149 671 0 192 +17 125 0 285 66
7 143 123 672 581 0 633 -17 669 0 673 637 674 123 667 580 0 453 -17 670 0 281 66
6 180 147 675 676 0 674 +15 281 873 0 677 276 0 17 666 0 281 677 670 144 674 664
 0 678 +17 180 0 281 670 677 173 176 679 0 675 +17 675 0 314 167 149 173 670 676
 0 210 -16 676 877 0 ?670 680 671 681 0 0 1 17 674 0 673 669 682 147 666 664 0 0
 -15 673 696 0 682 683 0 17 682 0 673 674 637 144 122 662 0 0 -17 637 0 673 682
 669 120 453 448 0 635 -17 122 0 277 128 678 120 682 662 0 579 +15 277 852 0 128
 272 0 17 128 0 277 618 122 126 579 575 0 613 -17 678 0 277 122 618 144 155 684
 0 682 +17 618 0 277 678 128 153 613 246 0 685 +17 155 0 305 170 146 153 678 684
 0 618 -16 684 856 0 ?678 686 679 687 0 0 1 16 686 835 0 ?143 688 684 574 0 0 1
 16 679 874 0 ?180 684 680 689 0 0 1 31 687 862 0 684 574 689 0 --988e-6 .001262
 625e-6 -1 0 0 0 0 1 12e-6 30 574 841 0 686 690 687 691 +-6e-4 0 625e-6 1 0 0 30
 689 886 0 679 687 692 693 +-.001 .001274 625e-6 0 -1 -851022113410914e-31 31 69
2 885 0 680 689 681 694 +-988e-6 .001262 625e-6 0 -1 -851022113410914e-31 0 8510
22113410914e-31 -1 12e-6 141 693 220 693 693 689 133 220 2891 0 1 240 218 0 +689
 -.001 .001262 625e-6 -.001 12e-6 625e-6 12e-6 .001262 133 240 2889 0 1 238 220
 0 +692 -988e-6 .001262 637e-6 -.001 .001262 625e-6 3.141592653589795 4.71238898
038469 16 680 875 0 ?677 679 676 692 0 0 1 31 681 883 0 676 692 695 0 --988e-6 1
2e-6 625e-6 0 -1 -851022113410914e-31 0 851022113410914e-31 -1 12e-6 141 694 240
 694 694 692 31 695 904 0 671 681 229 0 --988e-6 12e-6 625e-6 -1 0 0 0 0 1 12e-6
 16 671 898 0 ?668 676 696 695 0 0 1 31 229 925 0 696 695 224 0 --988e-6 .001262
 -625e-6 -1 0 0 0 0 1 12e-6 16 696 919 0 ?697 671 227 229 0 0 1 17 697 0 289 131
 255 150 161 696 0 612 +16 227 938 0 ?685 696 207 224 0 0 1 17 685 0 293 698 206
 153 170 227 0 616 +15 293 936 0 685 288 0 17 698 0 293 232 685 150 616 699 0 69
7 +17 206 0 293 685 232 168 204 207 0 0 +17 170 0 305 146 155 168 685 227 0 677
 -17 616 0 597 613 612 153 698 699 0 0 -16 699 756 0 ?698 617 246 700 0 0 1 16 6
17 755 0 ?131 581 699 241 0 0 1 16 246 757 0 ?618 699 242 248 0 0 1 30 700 764 0
 699 241 248 701 +-988e-6 .001274 -637e-6 0 0 -1 30 241 765 0 617 371 700 702 +-
6e-4 .001274 -625e-6 1 0 0 30 248 763 0 246 700 243 0 --6e-4 .001274 625e-6 1 0
 0 141 701 17 701 701 700 133 17 2907 0 1 221 4 0 +700 -988e-6 .001274 625e-6 -9
88e-6 .001274 -625e-6 -.001262 -12e-6 141 702 238 702 702 241 17 131 0 289 134 6
97 129 612 617 0 245 +16 581 738 0 ?672 575 617 371 0 0 1 17 672 0 593 110 633 1
41 125 581 0 703 +15 593 735 0 110 587 0 17 110 0 593 633 672 108 704 479 0 446
 -17 633 0 593 672 110 123 630 629 0 669 -17 703 0 273 705 706 141 478 476 0 704
 -15 273 831 0 706 267 0 17 705 0 273 193 703 165 143 686 0 0 -17 706 0 273 703
 193 138 190 688 0 707 -17 478 0 708 475 704 138 703 476 0 0 +17 704 0 708 478 4
46 141 110 479 0 0 +15 708 675 0 475 709 0 17 446 0 708 704 475 108 710 442 0 71
1 +16 479 679 0 ?704 476 662 441 0 0 1 17 475 0 708 446 478 117 707 471 0 710 +1
7 710 0 712 107 711 117 446 442 0 653 -17 711 0 712 710 713 108 714 511 0 630 +1
5 712 591 0 107 715 0 17 713 0 712 711 107 102 716 717 0 718 -17 714 0 719 720 6
34 102 711 511 0 721 -16 511 494 0 ?711 638 507 508 0 0 1 16 638 493 0 ?632 722
 511 506 0 0 1 16 722 439 0 ?723 724 638 725 0 0 1 30 506 505 0 638 726 508 727
 +-6e-4 .001262 625e-6 0 1 867361737988404e-31 31 726 485 0 1 728 506 729 +612e-
6 12e-6 625e-6 0 1 0 1 0 0 12e-6 141 727 503 727 727 506 31 728 467 0 1 725 726
 730 +612e-6 .001262 625e-6 0 1 0 1 0 0 12e-6 141 729 731 729 729 726 68 731 481
 0 732 733 734 0 +726 612e-6 12e-6 625e-6 1 0 0 624e-6 12e-6 625e-6 6e-4 12e-6 6
25e-6 0 3.141592653589795 0 0 -1 ?14 732 472 735 1e-8 736 737 738 6 731 +0 0 737
 736 26 68 733 463 0 736 739 731 0 +728 612e-6 .001262 625e-6 1 0 0 624e-6 .0012
62 625e-6 6e-4 .001262 625e-6 0 3.141592653589795 0 0 -1 ?50 734 501 0 737 731 7
40 0 +.001 .001262 625e-6 0 867361737988404e-31 -1 0 1 867361737988404e-31 14 73
7 490 741 1e-8 732 642 719 6 734 -0 0 642 732 26 50 740 522 0 642 734 742 0 +.00
1 .001262 -625e-6 0 -1 0 0 0 -1 14 642 511 743 1e-8 737 744 641 6 740 -0 0 744 7
37 26 68 742 541 0 744 740 745 0 +517 612e-6 .001262 -625e-6 1 0 0 624e-6 .00126
2 -625e-6 6e-4 .001262 -625e-6 0 3.141592653589795 0 0 -1 ?14 744 532 746 1e-8 6
42 747 748 6 742 +0 0 747 642 26 68 745 559 0 747 742 749 0 +656 612e-6 12e-6 -6
25e-6 1 0 0 624e-6 12e-6 -625e-6 6e-4 12e-6 -625e-6 0 3.141592653589795 0 0 -1 ?
31 517 545 0 1 513 656 750 +612e-6 .001262 -625e-6 0 1 0 1 0 0 12e-6 141 750 742
 750 750 517 14 747 550 751 1e-8 744 752 753 6 745 +0 0 752 744 26 50 749 579 0
 752 745 754 0 +.001 12e-6 -625e-6 0 867361737988404e-31 1 0 -1 867361737988404e
-31 14 752 568 755 1e-8 747 715 648 6 749 -0 0 715 747 26 50 754 600 0 715 749 7
56 0 +.001 12e-6 625e-6 0 1 0 0 0 1 14 715 589 757 1e-8 752 636 712 6 754 -0 0 6
36 752 26 51 756 621 0 636 754 758 0 +-612e-6 .001274 625e-6 0 -1 -8510221134109
14e-31 12e-6 0 851022113410914e-31 -1 14 636 610 759 1e-8 715 623 631 6 756 +0 0
 623 715 26 51 758 642 0 623 756 760 0 +-612e-6 .001262 637e-6 0 0 1 12e-6 1 0 0
 14 623 631 761 1e-8 636 762 620 6 758 +0 0 762 636 26 51 760 663 0 762 758 763
 0 +-612e-6 .001274 -625e-6 0 1 -851022113410914e-31 12e-6 0 851022113410914e-31
 1 14 762 652 764 1e-8 623 709 654 6 760 +0 0 709 623 26 51 763 684 0 709 760 59
4 0 +-612e-6 12e-6 637e-6 0 0 -1 12e-6 -1 0 0 14 709 673 765 1e-8 762 683 708 6
 763 +0 0 683 762 26 50 594 705 0 683 763 588 0 +-6e-4 .001274 637e-6 0 85102211
3410914e-31 -1 0 1 851022113410914e-31 14 683 694 766 1e-8 709 591 673 6 594 -0
 0 591 709 26 81 1 766 3284 317 683 767 0 765 768 769 14 591 715 768 1e-8 683 58
7 640 6 588 +0 0 587 683 26 81 1 768 3285 317 591 770 0 766 771 772 80 1 317 773
 774 9000 1 1 1 1 1 1 1 1 0 FFFFTFTFFFFFFF1 81 1 770 3075 775 591 0 768 776 767
 777 81 1 771 3286 317 205 778 0 768 779 780 82 1 772 1661337743 14 205 1036 771
 1e-8 301 311 175 6 302 -0 0 311 301 26 81 1 778 3059 775 205 0 771 781 782 783
 81 1 779 3287 317 736 784 0 771 785 786 82 1 780 1651638415 14 736 454 779 1e-8
 787 732 788 6 733 +0 0 732 787 26 81 1 784 3088 775 736 0 779 789 790 791 81 1
 785 3288 317 787 790 0 779 792 793 82 1 786 1657864335 14 787 433 785 1e-8 794
 736 795 6 739 +0 0 736 794 26 81 1 790 3089 775 787 0 785 784 796 797 81 1 792
 3289 317 794 796 0 785 798 799 82 1 793 1683554447 14 794 412 792 1e-8 800 787
 801 6 802 +0 0 787 800 26 81 1 796 3090 775 794 0 792 790 803 804 81 1 798 3290
 317 800 803 0 792 805 806 82 1 799 1683423375 14 800 391 798 1e-8 807 794 808 6
 809 +0 0 794 807 26 81 1 803 3091 775 800 0 798 796 810 811 81 1 805 3291 317 8
07 810 0 798 812 813 82 1 806 1683292303 14 807 370 805 1e-8 814 800 558 6 815 +
0 0 800 814 26 81 1 810 3092 775 807 0 805 803 816 817 81 1 812 3292 317 814 816
 0 805 818 819 82 1 813 1683161231 14 814 349 812 1e-8 820 807 821 6 822 +0 0 80
7 820 26 81 1 816 3093 775 814 0 812 810 823 824 81 1 818 3293 317 820 823 0 812
 825 826 82 1 819 1683030159 14 820 328 818 1e-8 827 814 828 6 829 +0 0 814 827
 26 81 1 823 3094 775 820 0 818 816 830 831 81 1 825 3294 317 827 830 0 818 832
 833 82 1 826 1682899087 14 827 307 825 1e-8 834 820 835 6 836 +0 0 820 834 26 8
1 1 830 3095 775 827 0 825 823 837 838 81 1 832 3295 317 834 837 0 825 839 840 8
2 1 833 1682636943 14 834 286 832 1e-8 841 827 842 6 843 +0 0 827 841 26 81 1 83
7 3096 775 834 0 832 830 844 845 81 1 839 3296 317 841 844 0 832 846 847 82 1 84
0 1682505871 14 841 265 839 1e-8 848 834 849 6 850 +0 0 834 848 26 81 1 844 3097
 775 841 0 839 837 851 852 81 1 846 3297 317 848 851 0 839 853 854 82 1 847 1682
374799 14 848 247 846 1e-8 551 841 855 6 856 +0 0 841 551 26 81 1 851 3098 775 8
48 0 846 844 857 858 81 1 853 3298 317 551 857 0 846 859 860 82 1 854 1654784143
 14 551 226 853 1e-8 542 848 548 6 861 +0 0 848 542 26 81 1 857 3099 775 551 0 8
53 851 862 863 81 1 859 3299 317 542 862 0 853 864 865 82 1 860 1654653071 14 54
2 208 859 1e-8 866 551 539 6 867 +0 0 551 866 26 81 1 862 3100 775 542 0 859 857
 868 869 81 1 864 3300 317 866 868 0 859 870 871 82 1 865 1654456463 14 866 187
 864 1e-8 353 542 872 6 354 +0 0 542 353 26 81 1 868 3101 775 866 0 864 862 873
 874 81 1 870 3301 317 353 873 0 864 0 875 82 1 871 1686569103 14 353 169 870 1e
-8 348 866 876 6 350 +0 0 866 348 26 81 1 873 3102 775 353 0 870 868 877 878 82
 1 875 1686700175 80 1 775 0 879 8001 0 0 0 0 3 5 0 0 0 FFFFTFTFFFFFFF2 81 1 877
 3103 775 348 0 352 873 880 881 83 3 878 .752941176470588 .752941176470588 .7529
41176470588 81 1 352 3268 317 348 877 0 347 590 882 81 1 880 3104 775 344 0 347
 877 883 884 83 3 881 .752941176470588 .752941176470588 .752941176470588 81 1 34
7 3267 317 344 880 0 343 352 885 81 1 883 3105 775 340 0 343 880 886 887 83 3 88
4 .752941176470588 .752941176470588 .752941176470588 81 1 343 3266 317 340 883 0
 339 347 888 81 1 886 3106 775 336 0 339 883 889 890 83 3 887 .752941176470588 .
752941176470588 .752941176470588 81 1 339 3265 317 336 886 0 335 343 891 81 1 88
9 3107 775 329 0 335 886 892 893 83 3 890 .752941176470588 .752941176470588 .752
941176470588 81 1 335 3264 317 329 889 0 327 339 894 81 1 892 3108 775 323 0 327
 889 326 895 83 3 893 .752941176470588 .752941176470588 .752941176470588 81 1 32
7 3263 317 323 892 0 322 335 896 81 1 326 3109 775 321 0 322 892 0 897 83 3 895
 .752941176470588 .752941176470588 .752941176470588 83 3 897 .752941176470588 .7
52941176470588 .752941176470588 82 1 896 1652424847 82 1 894 1652752527 82 1 891
 1652883599 82 1 888 1653014671 82 1 885 1653145743 81 1 590 3269 317 587 776 0
 352 595 898 82 1 882 1653276815 81 1 776 3074 775 587 0 590 899 770 900 81 1 59
5 3270 317 592 899 0 590 598 901 82 1 898 1661534351 81 1 899 3073 775 592 0 595
 600 776 902 82 1 901 1685258383 81 1 600 3072 775 596 0 598 903 899 904 83 3 90
2 .752941176470588 .752941176470588 .752941176470588 81 1 903 3071 775 266 0 601
 905 600 906 83 3 904 .752941176470588 .752941176470588 .752941176470588 81 1 60
1 3272 317 266 903 0 598 735 907 81 1 905 3070 775 262 0 265 908 903 909 83 3 90
6 .752941176470588 .752941176470588 .752941176470588 81 1 265 3248 317 262 905 0
 0 271 910 81 1 908 3069 775 267 0 271 911 905 912 83 3 909 .752941176470588 .75
2941176470588 .752941176470588 81 1 271 3249 317 267 908 0 265 275 913 81 1 911
 3068 775 272 0 275 914 908 915 83 3 912 .752941176470588 .752941176470588 .7529
41176470588 81 1 275 3250 317 272 911 0 271 279 916 81 1 914 3067 775 276 0 279
 917 911 918 83 3 915 .752941176470588 .752941176470588 .752941176470588 81 1 27
9 3251 317 276 914 0 275 283 919 81 1 917 3066 775 280 0 283 920 914 921 83 3 91
8 .752941176470588 .752941176470588 .752941176470588 81 1 283 3252 317 280 917 0
 279 287 922 81 1 920 3065 775 284 0 287 923 917 924 83 3 921 .752941176470588 .
752941176470588 .752941176470588 81 1 287 3253 317 284 920 0 283 291 925 81 1 92
3 3064 775 288 0 291 926 920 927 83 3 924 .752941176470588 .752941176470588 .752
941176470588 81 1 291 3254 317 288 923 0 287 295 928 81 1 926 3063 775 292 0 295
 929 923 930 83 3 927 .752941176470588 .752941176470588 .752941176470588 81 1 29
5 3255 317 292 926 0 291 298 931 81 1 929 3062 775 199 0 298 932 926 933 83 3 93
0 .752941176470588 .752941176470588 .752941176470588 81 1 298 3256 317 199 929 0
 295 300 934 81 1 932 3061 775 211 0 300 782 929 935 83 3 933 .752941176470588 .
752941176470588 .752941176470588 81 1 300 3257 317 211 932 0 298 304 936 81 1 78
2 3060 775 301 0 304 778 932 937 83 3 935 .752941176470588 .752941176470588 .752
941176470588 81 1 304 3258 317 301 782 0 300 312 938 83 3 937 .752941176470588 .
752941176470588 .752941176470588 81 1 312 3259 317 311 781 0 304 315 939 82 1 93
8 1651441807 81 1 781 3058 775 311 0 312 318 778 940 82 1 939 1651769487 81 1 31
8 3057 775 313 0 315 941 781 942 83 3 940 .752941176470588 .752941176470588 .752
941176470588 81 1 941 3056 775 19 943 319 0 318 944 83 3 942 .752941176470588 .7
52941176470588 .752941176470588 81 1 943 2180 945 19 0 941 0 946 947 81 1 319 32
61 317 19 941 0 315 322 948 83 3 944 .752941176470588 .752941176470588 .75294117
6470588 82 1 948 1652097167 80 1 945 949 950 8017 0 0 0 0 0 0 0 0 0 TTTTTTTTTTTT
TF3 81 1 946 3055 945 1 951 14 943 0 952 84 4 947 NONE81 2 951 2181 953 1 954 94
6 0 0 0 955 81 2 14 3136 956 1 946 2 0 0 0 0 84 7 952 Mirror180 2 956 957 958 90
00 0 0 0 0 3 5 0 0 0 FFTFFFFFFFFFFF9 1 79 16 958 BODY_RECIPE_200180 2 953 959 96
0 9000 0 0 0 0 3 5 0 0 0 FFTFFFFFFFFFFF9 1 81 2 954 1285 961 1 962 951 0 0 963 0
 82 1 955 1 80 2 961 964 965 8004 0 0 0 0 3 5 0 0 0 FFTFFFFFFFFFFF2 3 81 2 962 1
115 966 1 967 954 0 0 0 968 83 1 963 78e2 80 2 966 969 970 9000 0 0 0 0 3 5 0 0
 0 FFTFFFFFFFFFFT9 1 81 2 967 1114 971 1 0 962 0 0 0 972 82 1 968 111 80 2 971 9
73 974 9000 0 0 0 0 3 5 0 0 0 FFTFFFFFFFFFFF9 1 82 1 972 40 79 30 974 LAST_BODY_
MODIFYING_FEATURE_ID79 19 970 ENT_TIME_STAMP_200179 16 965 SDL/TYSA_DENSITY79 24
 960 BODY_IN_LIGHTWEIGHT_PERM79 13 950 SDL/TYSA_NAME82 1 936 1690304655 82 1 934
 1673003151 82 1 931 1672806543 82 1 928 1672937615 82 1 925 1673330831 82 1 922
 1673461903 82 1 919 1673592975 82 1 916 1673724047 82 1 913 1673855119 82 1 910
 1662713999 81 1 735 3273 317 732 789 0 601 741 975 82 1 907 1662582927 81 1 789
 3087 775 732 0 735 976 784 977 81 1 741 3274 317 737 976 0 735 743 978 82 1 975
 1658060943 81 1 976 3086 775 737 0 741 979 789 980 81 1 743 3275 317 642 979 0
 741 746 981 82 1 978 1658192015 81 1 979 3085 775 642 0 743 982 976 983 81 1 74
6 3276 317 744 982 0 743 751 984 82 1 981 1658323087 81 1 982 3084 775 744 0 746
 985 979 986 81 1 751 3277 317 747 985 0 746 755 987 82 1 984 1658454159 81 1 98
5 3083 775 747 0 751 988 982 989 81 1 755 3278 317 752 988 0 751 757 990 82 1 98
7 1684078735 81 1 988 3082 775 752 0 755 991 985 992 81 1 757 3279 317 715 991 0
 755 759 993 82 1 990 1684209807 81 1 991 3081 775 715 0 757 994 988 995 81 1 75
9 3280 317 636 994 0 757 761 996 82 1 993 1684340879 81 1 994 3080 775 636 0 759
 997 991 998 81 1 761 3281 317 623 997 0 759 764 999 82 1 996 1684471951 81 1 99
7 3079 775 623 0 761 1000 994 1001 81 1 764 3282 317 762 1000 0 761 765 1002 82
 1 999 1684603023 81 1 1000 3078 775 762 0 764 1003 997 1004 81 1 765 3283 317 7
09 1003 0 764 766 1005 82 1 1002 1684734095 81 1 1003 3077 775 709 0 765 767 100
0 1006 82 1 1005 1684865167 81 1 767 3076 775 683 0 766 770 1003 1007 83 3 1006
 .752941176470588 .752941176470588 .752941176470588 83 3 1007 .752941176470588 .
752941176470588 .752941176470588 83 3 1004 .752941176470588 .752941176470588 .75
2941176470588 83 3 1001 .752941176470588 .752941176470588 .752941176470588 83 3
 998 .752941176470588 .752941176470588 .752941176470588 83 3 995 .55686274509803
9 .494117647058824 .2862745098039215 83 3 992 .556862745098039 .494117647058824
 .2862745098039215 83 3 989 .752941176470588 .752941176470588 .752941176470588 8
3 3 986 .752941176470588 .752941176470588 .752941176470588 83 3 983 .55686274509
8039 .494117647058824 .2862745098039215 83 3 980 .556862745098039 .4941176470588
24 .2862745098039215 83 3 977 .752941176470588 .752941176470588 .752941176470588
 83 3 900 .752941176470588 .752941176470588 .752941176470588 79 15 879 SDL/TYSA_
COLOUR15 876 171 0 45 353 0 17 45 0 876 1008 399 43 422 419 0 1009 -17 1008 0 87
6 399 45 51 384 380 0 433 -17 399 0 876 45 1008 66 53 364 0 1010 +17 422 0 345 1
011 1009 66 45 419 0 0 +17 1009 0 345 422 428 43 546 1012 0 384 -15 345 111 0 42
2 340 0 17 428 0 345 1009 1011 40 1013 424 0 544 +17 546 0 324 538 27 40 1009 10
12 0 0 +16 1012 10 0 ?546 545 379 381 0 0 1 17 384 0 330 535 1014 43 1008 380 0
 27 +15 330 48 0 36 323 0 17 535 0 330 36 384 12 27 11 0 332 -17 1014 0 330 384
 36 51 1015 379 0 0 +17 27 0 324 546 332 43 535 11 0 0 +17 332 0 324 27 538 12 5
34 28 0 0 +17 538 0 324 332 546 31 544 545 0 0 +16 28 18 0 ?332 11 545 1016 0 0
 1 16 545 14 0 ?538 28 1012 1017 0 0 1 30 1016 33 0 28 29 1017 0 -.001 .001262 6
25e-6 0 0 -1 30 29 31 0 11 0 1016 0 -.001 12e-6 625e-6 0 1 0 30 1017 36 0 545 10
16 381 1018 +.001 12e-6 -625e-6 0 1 0 30 381 39 0 1012 1017 376 1019 +.001 12e-6
 625e-6 0 0 -1 141 1018 1020 1018 1018 1017 133 1020 2740 0 1 1021 1022 0 +1017
 .001 12e-6 -625e-6 .001 .001262 -625e-6 0 .00125 133 1021 2734 0 1 505 1020 0 +
1023 612e-6 0 .000625000000000064 612e-6 0 -625e-6 119999999999361e-19 .001262 1
33 1022 2743 0 1 1020 1024 0 +1025 612e-6 12e-6 637e-6 612e-6 1084202172485504e-
34 .000625000000000064 3.141592653589795 4.71238898037937 133 1024 2745 0 1 1022
 437 0 +1026 6e-4 12e-6 625e-6 612e-6 12e-6 637e-6 4.71238898038469 6.2831853071
7959 31 1025 321 0 1027 1028 1029 1030 +612e-6 12e-6 625e-6 1 0 0 0 0 -1 12e-6 1
6 1027 311 0 ?1031 1032 1033 1025 0 0 1 31 1028 300 0 1032 1034 1025 1035 +612e-
6 .001262 625e-6 1 0 0 0 0 -1 12e-6 30 1029 343 0 1033 1025 1036 0 -6e-4 .001274
 625e-6 0 1 851022113410914e-31 141 1030 1022 1030 1030 1025 16 1033 331 0 ?104
 1027 1037 1029 0 0 1 31 1036 342 0 1037 1029 1026 0 -612e-6 .001262 625e-6 0 1
 851022113410914e-31 0 -851022113410914e-31 1 12e-6 16 1037 332 0 ?1038 1033 103
9 1036 0 0 1 31 1026 340 0 1039 1036 414 1040 +612e-6 12e-6 625e-6 0 1 851022113
410914e-31 0 -851022113410914e-31 1 12e-6 16 1039 334 0 ?1041 1037 1042 1026 0 0
 1 31 414 363 0 1042 1026 1043 1044 +612e-6 .001262 625e-6 0 0 -1 -1 0 0 12e-6 1
41 1040 1024 1040 1040 1026 16 1042 353 0 ?1045 1039 646 414 0 0 1 30 1043 362 0
 646 414 494 0 -6e-4 .001262 -637e-6 0 0 -1 141 1044 411 1044 1044 414 16 646 35
4 0 ?645 1042 1046 1043 0 0 1 31 494 361 0 1046 1043 488 0 -612e-6 .001262 -625e
-6 0 0 -1 -1 0 0 12e-6 16 1046 355 0 ?1047 646 492 494 0 0 1 17 1047 0 821 645 1
048 99 83 1046 0 643 +16 492 374 0 ?559 1046 487 488 0 0 1 17 559 0 558 56 554 8
1 90 492 0 1048 +15 558 372 0 559 807 0 17 56 0 558 62 559 54 1049 408 0 541 -17
 90 0 748 651 83 84 559 492 0 498 -17 1048 0 821 1047 1045 81 407 404 0 1049 -15
 821 351 0 1045 814 0 17 1045 0 821 1048 645 76 644 1042 0 1050 +17 407 0 872 40
3 1049 76 1048 404 0 0 +17 1049 0 872 407 537 81 56 408 0 0 +15 872 189 0 403 86
6 0 17 537 0 872 1049 403 54 388 385 0 536 -16 408 193 0 ?1049 404 543 405 0 0 1
 16 543 211 0 ?541 408 553 564 0 0 1 31 564 220 0 543 409 561 1051 +988e-6 .0012
62 -625e-6 1 0 0 0 0 -1 12e-6 31 409 221 0 1 405 564 1052 +988e-6 .001262 -625e-
6 0 1 0 1 0 0 12e-6 141 1051 1053 1051 1051 564 133 1053 2664 0 1 0 413 0 +564 9
88e-6 .001262 -637e-6 988e-6 .001274 -625e-6 0 1.570796326794905 133 413 2666 0
 1 1053 411 0 +386 .001 .001262 -625e-6 988e-6 .001274 -625e-6 0 1.5707963267948
95 141 1052 867 1052 1052 409 68 867 217 0 542 354 861 0 +409 988e-6 .001262 -62
5e-6 1 0 0 .001 .001262 -625e-6 976e-6 .001262 -625e-6 0 3.141592653589795 0 0 -
1 0 50 354 198 0 866 350 867 0 +6e-4 .001274 -637e-6 0 1 0 0 0 1 50 861 237 0 55
1 867 856 0 +6e-4 0 -637e-6 0 -851022113410914e-31 -1 0 1 -851022113410914e-31 6
8 856 256 0 848 861 850 0 +565 988e-6 12e-6 -625e-6 1 0 0 .001 12e-6 -625e-6 976
e-6 12e-6 -625e-6 0 3.141592653589795 0 0 -1 ?50 850 276 0 841 856 843 0 +6e-4 0
 637e-6 0 -1 0 0 0 -1 31 565 260 0 1 375 486 1054 +988e-6 12e-6 -625e-6 0 1 0 1
 0 0 12e-6 31 486 259 0 562 565 521 1055 +988e-6 12e-6 -625e-6 1 0 0 0 0 -1 12e-
6 141 1054 856 1054 1054 565 16 562 250 0 ?1056 557 1057 486 0 0 1 30 521 279 0
 1057 486 1023 1058 +6e-4 0 -625e-6 1 0 0 141 1055 483 1055 1055 486 16 1057 269
 0 ?1059 562 1060 521 0 0 1 30 1023 278 0 1060 521 1034 1061 +612e-6 0 637e-6 0
 0 -1 141 1058 485 1058 1058 521 16 1060 270 0 ?1062 1057 1063 1023 0 0 1 30 103
4 277 0 1063 1023 1028 0 -6e-4 0 625e-6 1 0 0 141 1061 1021 1061 1061 1023 16 10
63 271 0 ?1064 1060 1032 1034 0 0 1 17 1064 0 849 1062 1010 93 68 1063 0 0 +16 1
032 290 0 ?1065 1063 1027 1028 0 0 1 17 1065 0 842 50 1050 73 80 1032 0 430 +15
 842 288 0 1065 834 0 17 50 0 842 59 1065 46 430 429 0 35 -17 1050 0 842 1065 59
 76 403 400 0 407 -17 80 0 788 644 75 76 1065 1032 0 1045 -17 430 0 349 1066 101
5 73 50 429 0 0 +15 349 132 0 1015 344 0 17 1066 0 349 433 430 72 1067 359 0 0 +
17 1015 0 349 430 433 46 1014 379 0 36 -17 433 0 349 1015 1066 51 1068 431 0 101
4 +16 379 49 0 ?1014 1012 37 376 0 0 1 17 36 0 330 1014 535 46 30 37 0 0 +17 106
8 0 835 1031 53 72 433 431 0 1066 -15 835 309 0 1031 827 0 17 1031 0 835 68 1068
 93 78 1027 0 1069 +17 53 0 835 1068 68 51 399 364 0 1008 -17 68 0 835 53 1031 6
6 1064 1063 0 399 -17 78 0 738 721 95 72 1031 1027 0 1041 -17 1069 0 795 718 723
 93 1062 1060 0 1064 -15 795 435 0 718 787 0 17 718 0 795 716 1069 102 95 724 0
 0 +17 723 0 795 1069 716 88 1070 722 0 1071 +17 1062 0 849 1059 1064 88 1069 10
60 0 0 +15 849 267 0 1059 841 0 17 1059 0 849 1010 1062 69 1071 1057 0 1011 +17
 1010 0 849 1064 1059 66 1011 423 0 422 -17 1071 0 808 491 71 88 1059 1057 0 106
2 -17 1011 0 345 428 422 69 1010 423 0 0 +16 423 112 0 ?1011 524 419 418 0 0 1 1
5 808 393 0 491 800 0 17 491 0 808 65 1071 85 92 487 0 549 +17 71 0 808 1071 65
 69 1056 562 0 1013 -17 65 0 808 71 491 63 549 553 0 1056 -17 1056 0 855 48 1013
 63 71 562 0 547 +17 1013 0 855 1056 48 69 428 424 0 1059 -15 855 249 0 1013 848
 0 17 48 0 855 1013 1056 40 526 524 0 428 -17 92 0 753 1070 87 88 491 487 0 723
 -15 753 552 0 1070 747 0 17 1070 0 753 87 92 105 723 722 0 1072 -17 87 0 753 92
 1070 85 1072 1073 0 556 -17 1072 0 801 647 556 105 87 1073 0 649 +16 1073 418 0
 ?1072 499 717 500 0 0 1 17 556 0 801 1072 498 85 552 557 0 491 -15 801 414 0 49
8 794 0 17 498 0 801 556 647 84 651 493 0 554 +17 647 0 801 498 1072 99 649 499
 0 0 +17 651 0 748 83 90 99 498 493 0 1047 -15 748 534 0 651 744 0 17 83 0 748 9
0 651 81 1047 1046 0 559 -17 649 0 648 655 101 105 647 499 0 716 -16 499 417 0 ?
647 493 1073 496 0 0 1 15 648 570 0 101 752 0 17 655 0 648 650 649 117 107 447 0
 0 -17 716 0 795 723 718 105 713 717 0 0 +16 717 436 0 ?716 1073 724 1074 0 0 1
 16 724 437 0 ?718 717 722 1075 0 0 1 30 1074 448 0 717 500 1075 0 -6e-4 12e-6 6
37e-6 0 0 1 31 500 424 0 1073 496 1074 0 -612e-6 12e-6 -625e-6 0 -1 851022113410
914e-31 0 -851022113410914e-31 -1 12e-6 31 1075 447 0 724 1074 725 0 -612e-6 12e
-6 625e-6 0 0 1 1 0 0 12e-6 31 725 445 0 722 1075 728 1076 +612e-6 12e-6 -625e-6
 0 0 1 1 0 0 12e-6 141 1076 505 1076 1076 725 133 505 2732 0 1 503 1021 0 +725 6
e-4 12e-6 -625e-6 612e-6 33881317890172e-33 -625e-6 3.141592653589795 4.71238898
038469 17 650 0 648 101 655 114 653 652 0 515 -17 107 0 712 713 710 105 655 447
 0 1070 +17 95 0 738 78 721 93 718 724 0 1031 -15 738 474 0 78 732 0 17 721 0 73
8 95 78 102 1041 1039 0 713 -17 1041 0 828 1067 104 72 721 1039 0 1068 +15 828 3
30 0 1038 820 0 17 1067 0 828 1038 1041 73 1066 359 0 1065 -17 104 0 828 1041 10
38 102 720 1033 0 714 +17 1038 0 828 104 1067 96 75 1037 0 720 +17 720 0 719 639
 714 96 104 1033 0 645 -15 719 492 0 714 737 0 17 639 0 719 634 720 111 98 507 0
 0 -17 645 0 821 1045 1047 96 643 646 0 0 +17 634 0 719 714 639 108 632 638 0 0
 -17 75 0 788 80 644 73 1038 1037 0 1067 -15 788 456 0 80 736 0 17 644 0 788 75
 80 96 1045 1042 0 1038 -16 359 136 0 ?1066 431 362 356 0 0 1 17 59 0 842 1050 5
0 57 35 362 0 34 -17 403 0 872 537 407 57 1050 400 0 388 +17 35 0 33 30 34 46 59
 362 0 1015 +17 34 0 33 35 30 57 38 533 0 403 -15 33 153 0 34 348 0 51 843 297 0
 834 850 836 0 +6e-4 .001262 625e-6 1 0 0 12e-6 0 0 -1 51 836 318 0 827 843 829
 0 +6e-4 12e-6 625e-6 1 0 0 12e-6 0 0 -1 51 829 339 0 820 836 822 0 +612e-6 .001
274 625e-6 0 1 851022113410914e-31 12e-6 0 -851022113410914e-31 1 51 822 360 0 8
14 829 815 0 +612e-6 .001262 -637e-6 0 0 -1 12e-6 -1 0 0 51 815 381 0 807 822 80
9 0 +6e-4 .001262 -625e-6 1 0 0 12e-6 0 0 -1 51 809 402 0 800 815 802 0 +6e-4 12
e-6 -625e-6 1 0 0 12e-6 0 0 -1 51 802 423 0 794 809 739 0 +612e-6 10212265360930
96e-36 -625e-6 0 -1 851022113410914e-31 12e-6 0 -851022113410914e-31 -1 51 739 4
44 0 787 802 733 0 +612e-6 12e-6 637e-6 0 0 1 12e-6 1 0 0 17 62 0 558 554 56 60
 541 543 0 550 -141 1035 370 1035 1035 1028 133 370 2784 0 1 522 368 0 +1028 612
e-6 .001274 625e-6 612e-6 .001262 637e-6 1.570796326794895 3.141592653589795 133
 437 2748 0 1 1024 435 0 +376 988e-6 .001262 637e-6 988e-6 12e-6 637e-6 -.00125
 -59292306307801e-33 141 1019 417 1019 1019 381 133 417 2686 0 1 415 661 0 +381
 .001 12e-6 625e-6 .001 12e-6 -625e-6 0 .00125 133 661 2689 0 1 417 660 0 +513 -
6e-4 .001262 -625e-6 6e-4 .001262 -625e-6 -.0016 -4e-4 83 3 874 .752941176470588
 .752941176470588 .752941176470588 83 3 869 .752941176470588 .752941176470588 .7
52941176470588 83 3 863 .752941176470588 .752941176470588 .752941176470588 83 3
 858 .752941176470588 .752941176470588 .752941176470588 83 3 852 .75294117647058
8 .752941176470588 .752941176470588 83 3 845 .752941176470588 .752941176470588 .
752941176470588 83 3 838 .752941176470588 .752941176470588 .752941176470588 83 3
 831 .752941176470588 .752941176470588 .752941176470588 83 3 824 .75294117647058
8 .752941176470588 .752941176470588 83 3 817 .752941176470588 .752941176470588 .
752941176470588 83 3 811 .752941176470588 .752941176470588 .752941176470588 83 3
 804 .752941176470588 .752941176470588 .752941176470588 83 3 797 .75294117647058
8 .752941176470588 .752941176470588 83 3 791 .752941176470588 .752941176470588 .
752941176470588 83 3 783 .752941176470588 .752941176470588 .752941176470588 83 3
 777 .752941176470588 .752941176470588 .752941176470588 79 14 774 SWEntUnchanged
82 1 769 1684996239 15 654 654 0 608 762 0 17 608 0 654 653 610 114 604 609 0 65
0 +17 610 0 654 608 469 132 1077 470 0 0 +17 469 0 654 610 653 135 119 466 0 0 +
17 1077 0 603 1078 611 135 610 470 0 469 -16 470 657 0 ?610 609 466 465 0 0 1 15
 603 792 0 1078 266 0 17 1078 0 603 201 1077 156 137 247 0 0 -17 611 0 603 1077
 201 132 255 253 0 604 -17 201 0 603 611 1078 159 187 202 0 0 -17 255 0 289 697
 134 159 611 253 0 198 +15 289 915 0 134 284 0 17 198 0 196 187 197 159 172 208
 0 201 +17 172 0 316 152 161 171 198 208 0 232 -16 208 980 0 ?198 189 200 233 0
 0 1 16 189 961 0 ?188 228 208 230 0 0 1 31 233 990 0 208 230 209 0 --988e-6 .00
1262 -625e-6 0 1 -851022113410914e-31 0 851022113410914e-31 1 12e-6 30 209 989 0
 200 233 203 1079 +-.001 1021226536093096e-36 -625e-6 0 1 -851022113410914e-31 1
41 1079 218 1079 1079 209 17 188 0 296 137 190 156 164 189 0 1078 +15 296 957 0
 140 292 0 17 137 0 296 140 188 135 1078 247 0 1080 +17 190 0 296 188 140 162 70
6 688 0 183 +17 140 0 296 190 137 138 1080 256 0 706 -16 688 833 0 ?190 1081 686
 690 0 0 1 16 1081 832 0 ?192 256 688 259 0 0 1 30 690 843 0 688 259 574 0 --6e-
4 0 -625e-6 1 0 0 30 259 844 0 1081 257 690 1082 +-988e-6 0 637e-6 0 0 1 141 108
2 573 1082 1082 259 133 573 2848 0 1 571 1083 0 +259 -988e-6 0 -625e-6 -988e-6 0
 .000625000000000064 -.001262 -119999999999361e-19 133 1083 2851 0 1 573 237 0 +
257 -612e-6 355753837846806e-34 -625e-6 -612e-6 12e-6 -637e-6 4.71238898038469 6
.28318530717959 133 237 2859 0 1 1083 235 0 +213 -988e-6 -745388993583784e-34 62
5e-6 -.001 12e-6 625e-6 4.71238898038469 6.28318530717959 17 192 0 191 210 183 1
65 193 1081 0 705 +16 256 815 0 ?1080 253 1081 257 0 0 1 17 1080 0 268 119 707 1
35 140 256 0 1077 +15 268 813 0 1080 262 0 17 119 0 268 707 1080 117 469 466 0 4
75 -17 707 0 268 1080 119 138 475 471 0 478 -17 193 0 273 706 705 162 192 1081 0
 0 -17 152 0 316 161 172 150 232 228 0 698 -17 161 0 316 172 152 159 697 696 0 2
55 -17 232 0 293 206 698 171 152 228 0 204 +141 730 733 730 730 728 17 143 0 285
 125 668 141 705 686 0 672 +15 305 1020 0 146 301 0 17 146 0 305 155 170 144 677
 680 0 666 -17 677 0 281 180 666 168 146 680 0 176 +17 176 0 175 204 174 168 180
 679 0 206 -141 691 571 691 691 574 15 314 1059 0 167 311 0 17 167 0 314 149 675
 165 210 194 0 668 -17 149 0 314 675 167 147 668 671 0 667 -141 658 745 658 658
 656 82 1 602 1662451855 141 585 368 585 585 371 141 583 588 583 583 576 141 566
 372 566 566 375 141 518 661 518 518 513 141 495 501 495 495 488 141 481 438 481
 481 441 141 473 462 473 473 465 141 456 568 456 456 451 141 450 660 450 450 443
 141 426 415 426 426 418 141 391 413 391 391 386 141 382 437 382 382 376 141 366
 350 366 366 355 141 361 435 361 361 356 82 1 328 1652293775 82 1 320 1651900559
 141 310 21 310 310 22 141 260 1083 260 260 257 141 249 269 249 249 243 141 216
 237 216 216 213 141 215 235 215 215 203 19 20 1111 0 1 0 10 6 S0 141 23 7 23 23
 8 74 20 16 9 0 0 967 962 870 954 946 951 326 14 2 0 0 0 0 0 0 0 0 0 0 0 80 2 13
 1084 1085 9000 0 0 0 0 3 5 0 0 0 FFTFFFFFFFFFFF9 1 82 1 15 103 79 12 1085 ATOM_
ID_20011 0 
