G04*
G04 #@! TF.GenerationSoftware,Altium Limited,Altium Designer,19.1.7 (138)*
G04*
G04 Layer_Physical_Order=2*
G04 Layer_Color=16711680*
%FSLAX44Y44*%
%MOMM*%
G71*
G01*
G75*
%ADD10R,1.2000X2.0000*%
%ADD11R,1.1500X0.6000*%
%ADD12R,1.3000X1.5000*%
%ADD13C,1.0000*%
%ADD14C,0.2000*%
%ADD15C,2.2000*%
%ADD16R,1.2000X1.2000*%
%ADD17C,1.2000*%
G36*
X1269465Y1002590D02*
X1566876D01*
Y1297410D01*
X1269466D01*
X1269465Y1002590D01*
D02*
G37*
G36*
X1039466D02*
X1237466D01*
Y1164620D01*
X1235466Y1165413D01*
X1233966Y1164792D01*
Y1173000D01*
Y1181208D01*
X1235466Y1180587D01*
X1237466Y1181380D01*
Y1187151D01*
X1237005Y1188960D01*
X1235465Y1188960D01*
X1230465D01*
Y1199000D01*
Y1209040D01*
X1235465D01*
X1237005Y1209040D01*
X1237466Y1210849D01*
Y1297410D01*
X1039466D01*
X1039466Y1002590D01*
D02*
G37*
%LPC*%
G36*
X1474466Y1198114D02*
X1476695Y1197820D01*
X1478421Y1197105D01*
X1485966D01*
X1487934Y1196846D01*
X1489008Y1196401D01*
X1489768Y1196086D01*
X1491343Y1194878D01*
X1513681Y1172540D01*
X1524005D01*
Y1147460D01*
X1506926D01*
Y1150045D01*
X1505752Y1150531D01*
X1492893Y1137672D01*
X1493486Y1136469D01*
X1494568Y1136611D01*
X1496797Y1136318D01*
X1498524Y1135603D01*
X1506926D01*
Y1144540D01*
X1512966D01*
Y1132000D01*
X1515466D01*
Y1129500D01*
X1524005D01*
Y1119460D01*
X1523071D01*
Y1116956D01*
X1523674Y1115500D01*
X1515466D01*
Y1113000D01*
X1512966D01*
Y1104792D01*
X1511510Y1105395D01*
X1465221D01*
X1463252Y1105654D01*
X1461418Y1106414D01*
X1459843Y1107622D01*
X1451088Y1116378D01*
X1449879Y1117953D01*
X1449120Y1119787D01*
X1448860Y1121755D01*
Y1165000D01*
X1449120Y1166968D01*
X1449565Y1168043D01*
X1449879Y1168802D01*
X1451088Y1170378D01*
X1452537Y1171826D01*
X1452257Y1172500D01*
X1468674D01*
X1468071Y1171044D01*
Y1169000D01*
X1467811Y1167032D01*
X1467052Y1165197D01*
X1465843Y1163622D01*
X1464071Y1161850D01*
Y1131953D01*
X1465341Y1131701D01*
X1466006Y1133307D01*
X1467375Y1135091D01*
X1469159Y1136460D01*
X1470885Y1137175D01*
X1499088Y1165378D01*
X1499103Y1165607D01*
X1482815Y1181895D01*
X1478421D01*
X1476695Y1181180D01*
X1474466Y1180886D01*
X1472236Y1181180D01*
X1470159Y1182040D01*
X1468375Y1183409D01*
X1467006Y1185193D01*
X1466145Y1187271D01*
X1465852Y1189500D01*
X1466145Y1191729D01*
X1467006Y1193807D01*
X1468375Y1195591D01*
X1470159Y1196960D01*
X1472236Y1197820D01*
X1474466Y1198114D01*
D02*
G37*
G36*
X1457966Y1183208D02*
Y1177500D01*
X1452257D01*
X1453006Y1179307D01*
X1454375Y1181091D01*
X1456159Y1182460D01*
X1457966Y1183208D01*
D02*
G37*
G36*
X1462966D02*
X1464772Y1182460D01*
X1466556Y1181091D01*
X1467925Y1179307D01*
X1468674Y1177500D01*
X1462966D01*
Y1183208D01*
D02*
G37*
G36*
X1517966Y1144540D02*
X1524005D01*
Y1134500D01*
X1517966D01*
Y1144540D01*
D02*
G37*
G36*
X1387715Y1138958D02*
Y1133250D01*
X1382007D01*
X1382756Y1135057D01*
X1384125Y1136841D01*
X1385909Y1138210D01*
X1387715Y1138958D01*
D02*
G37*
G36*
X1392715D02*
X1394522Y1138210D01*
X1396306Y1136841D01*
X1397675Y1135057D01*
X1398424Y1133250D01*
X1392715D01*
Y1138958D01*
D02*
G37*
G36*
X1382007Y1128250D02*
X1387715D01*
Y1122542D01*
X1385909Y1123290D01*
X1384125Y1124659D01*
X1382756Y1126443D01*
X1382007Y1128250D01*
D02*
G37*
G36*
X1392715D02*
X1398424D01*
X1397675Y1126443D01*
X1396306Y1124659D01*
X1394522Y1123290D01*
X1392715Y1122542D01*
Y1128250D01*
D02*
G37*
G36*
X1314966Y1111208D02*
Y1105500D01*
X1309258D01*
X1310006Y1107307D01*
X1311375Y1109091D01*
X1313159Y1110460D01*
X1314966Y1111208D01*
D02*
G37*
G36*
X1319966D02*
X1321772Y1110460D01*
X1323556Y1109091D01*
X1324925Y1107307D01*
X1325674Y1105500D01*
X1319966D01*
Y1111208D01*
D02*
G37*
G36*
X1517966Y1110500D02*
X1523674D01*
X1522925Y1108693D01*
X1521556Y1106909D01*
X1519772Y1105540D01*
X1517966Y1104792D01*
Y1110500D01*
D02*
G37*
G36*
X1309258Y1100500D02*
X1314966D01*
Y1094792D01*
X1313159Y1095540D01*
X1311375Y1096909D01*
X1310006Y1098693D01*
X1309258Y1100500D01*
D02*
G37*
G36*
X1319966D02*
X1325674D01*
X1324925Y1098693D01*
X1323556Y1096909D01*
X1321772Y1095540D01*
X1319966Y1094792D01*
Y1100500D01*
D02*
G37*
G36*
X1394368Y1097106D02*
Y1091398D01*
X1388660D01*
X1389408Y1093205D01*
X1390777Y1094989D01*
X1392561Y1096357D01*
X1394368Y1097106D01*
D02*
G37*
G36*
X1399368D02*
X1401175Y1096357D01*
X1402959Y1094989D01*
X1404328Y1093205D01*
X1405076Y1091398D01*
X1399368D01*
Y1097106D01*
D02*
G37*
G36*
X1388660Y1086398D02*
X1394368D01*
Y1080690D01*
X1392561Y1081438D01*
X1390777Y1082807D01*
X1389408Y1084591D01*
X1388660Y1086398D01*
D02*
G37*
G36*
X1399368D02*
X1405076D01*
X1404328Y1084591D01*
X1402959Y1082807D01*
X1401175Y1081438D01*
X1399368Y1080690D01*
Y1086398D01*
D02*
G37*
G36*
X1315616Y1081558D02*
Y1075850D01*
X1309907D01*
X1310656Y1077657D01*
X1312025Y1079441D01*
X1313809Y1080810D01*
X1315616Y1081558D01*
D02*
G37*
G36*
X1320616D02*
X1322422Y1080810D01*
X1324206Y1079441D01*
X1325575Y1077657D01*
X1326324Y1075850D01*
X1320616D01*
Y1081558D01*
D02*
G37*
G36*
X1309907Y1070850D02*
X1315616D01*
Y1065142D01*
X1313809Y1065890D01*
X1312025Y1067259D01*
X1310656Y1069043D01*
X1309907Y1070850D01*
D02*
G37*
G36*
X1320616D02*
X1326324D01*
X1325575Y1069043D01*
X1324206Y1067259D01*
X1322422Y1065890D01*
X1320616Y1065142D01*
Y1070850D01*
D02*
G37*
G36*
X1316516Y1030758D02*
Y1025050D01*
X1310807D01*
X1311556Y1026857D01*
X1312925Y1028641D01*
X1314709Y1030010D01*
X1316516Y1030758D01*
D02*
G37*
G36*
X1321516D02*
X1323322Y1030010D01*
X1325106Y1028641D01*
X1326475Y1026857D01*
X1327224Y1025050D01*
X1321516D01*
Y1030758D01*
D02*
G37*
G36*
X1310807Y1020050D02*
X1316516D01*
Y1014342D01*
X1314709Y1015090D01*
X1312925Y1016459D01*
X1311556Y1018243D01*
X1310807Y1020050D01*
D02*
G37*
G36*
X1321516D02*
X1327224D01*
X1326475Y1018243D01*
X1325106Y1016459D01*
X1323322Y1015090D01*
X1321516Y1014342D01*
Y1020050D01*
D02*
G37*
G36*
X1218006Y1209040D02*
X1220005Y1209040D01*
X1225465D01*
Y1199000D01*
Y1188960D01*
X1220005D01*
X1218925Y1188960D01*
X1216926Y1188960D01*
X1213071D01*
Y1176956D01*
X1213786Y1175229D01*
X1214079Y1173000D01*
X1213786Y1170771D01*
X1212925Y1168693D01*
X1211556Y1166909D01*
X1209772Y1165540D01*
X1207695Y1164680D01*
X1205465Y1164386D01*
X1203236Y1164680D01*
X1201159Y1165540D01*
X1199375Y1166909D01*
X1198006Y1168693D01*
X1197145Y1170771D01*
X1196852Y1173000D01*
X1197145Y1175229D01*
X1197860Y1176956D01*
Y1195500D01*
X1198120Y1197468D01*
X1198879Y1199303D01*
X1199926Y1200666D01*
Y1209040D01*
X1216926D01*
X1218006Y1209040D01*
D02*
G37*
G36*
X1073465Y1214657D02*
X1077000Y1214192D01*
X1080294Y1212827D01*
X1083122Y1210657D01*
X1085293Y1207828D01*
X1086657Y1204535D01*
X1087122Y1201000D01*
X1086657Y1197465D01*
X1085293Y1194172D01*
X1083122Y1191343D01*
X1080294Y1189173D01*
X1077000Y1187809D01*
X1073465Y1187343D01*
X1069931Y1187809D01*
X1066637Y1189173D01*
X1063809Y1191343D01*
X1061638Y1194172D01*
X1060274Y1197465D01*
X1059809Y1201000D01*
X1060274Y1204535D01*
X1061638Y1207828D01*
X1063809Y1210657D01*
X1066637Y1212827D01*
X1069931Y1214192D01*
X1073465Y1214657D01*
D02*
G37*
G36*
X1228966Y1181208D02*
Y1175500D01*
X1223257D01*
X1224006Y1177307D01*
X1225375Y1179091D01*
X1227159Y1180460D01*
X1228966Y1181208D01*
D02*
G37*
G36*
X1095966Y1171208D02*
Y1165500D01*
X1090257D01*
X1091006Y1167307D01*
X1092375Y1169091D01*
X1094159Y1170460D01*
X1095966Y1171208D01*
D02*
G37*
G36*
X1100966Y1171208D02*
X1102772Y1170460D01*
X1104556Y1169091D01*
X1105925Y1167307D01*
X1106674Y1165500D01*
X1100966D01*
Y1171208D01*
D02*
G37*
G36*
X1223257Y1170500D02*
X1228966D01*
Y1164792D01*
X1227159Y1165540D01*
X1225375Y1166909D01*
X1224006Y1168693D01*
X1223257Y1170500D01*
D02*
G37*
G36*
X1195425Y1131540D02*
X1201216D01*
Y1128500D01*
X1195425D01*
Y1131540D01*
D02*
G37*
G36*
X1206216D02*
X1212006D01*
Y1128500D01*
X1206216D01*
Y1131540D01*
D02*
G37*
G36*
X1195425Y1123500D02*
X1201216D01*
Y1120460D01*
X1195425D01*
Y1123500D01*
D02*
G37*
G36*
X1206216D02*
X1212006D01*
Y1120460D01*
X1206216D01*
Y1123500D01*
D02*
G37*
G36*
X1123465Y1163614D02*
X1125695Y1163320D01*
X1127772Y1162460D01*
X1129556Y1161091D01*
X1130925Y1159307D01*
X1131786Y1157229D01*
X1132079Y1155000D01*
X1131786Y1152771D01*
X1130925Y1150693D01*
X1130040Y1149540D01*
X1130866Y1147574D01*
X1130899Y1147540D01*
X1132005D01*
Y1146605D01*
X1148465D01*
X1150434Y1146346D01*
X1151508Y1145901D01*
X1152268Y1145586D01*
X1153843Y1144378D01*
X1155116Y1143105D01*
X1181216D01*
X1183184Y1142846D01*
X1185018Y1142086D01*
X1186382Y1141040D01*
X1189505D01*
Y1129960D01*
X1186382D01*
X1185018Y1128914D01*
X1183184Y1128154D01*
X1181216Y1127895D01*
X1151965D01*
X1149997Y1128154D01*
X1148163Y1128914D01*
X1146588Y1130122D01*
X1145315Y1131395D01*
X1132005D01*
Y1130460D01*
X1117774D01*
X1117009Y1128612D01*
X1121516Y1124105D01*
X1181216D01*
X1183184Y1123846D01*
X1185018Y1123086D01*
X1186382Y1122040D01*
X1189505D01*
Y1110960D01*
X1186382D01*
X1185018Y1109914D01*
X1183184Y1109154D01*
X1181216Y1108895D01*
X1118365D01*
X1116397Y1109154D01*
X1114563Y1109914D01*
X1112988Y1111122D01*
X1093088Y1131022D01*
X1091879Y1132598D01*
X1091120Y1134432D01*
X1090861Y1136400D01*
Y1143044D01*
X1090145Y1144771D01*
X1089852Y1147000D01*
X1090145Y1149229D01*
X1091006Y1151307D01*
X1092375Y1153091D01*
X1093292Y1153794D01*
X1093355Y1153922D01*
X1093355Y1156078D01*
X1093292Y1156206D01*
X1092375Y1156909D01*
X1091006Y1158693D01*
X1090257Y1160500D01*
X1098466D01*
X1106674D01*
X1105925Y1158693D01*
X1104556Y1156909D01*
X1103640Y1156206D01*
X1103576Y1156078D01*
X1103576Y1153922D01*
X1103640Y1153794D01*
X1104556Y1153091D01*
X1105925Y1151307D01*
X1106786Y1149229D01*
X1107079Y1147000D01*
X1106786Y1144771D01*
X1106071Y1143044D01*
Y1139550D01*
X1113078Y1132543D01*
X1114926Y1133308D01*
Y1147540D01*
X1116032D01*
X1116065Y1147574D01*
X1116891Y1149540D01*
X1116006Y1150693D01*
X1115145Y1152771D01*
X1114852Y1155000D01*
X1115145Y1157229D01*
X1116006Y1159307D01*
X1117375Y1161091D01*
X1119159Y1162460D01*
X1121236Y1163320D01*
X1123465Y1163614D01*
D02*
G37*
G36*
X1073465Y1114657D02*
X1077000Y1114192D01*
X1080294Y1112827D01*
X1083122Y1110657D01*
X1085293Y1107828D01*
X1086657Y1104535D01*
X1087122Y1101000D01*
X1086657Y1097465D01*
X1085293Y1094172D01*
X1083122Y1091343D01*
X1080294Y1089173D01*
X1077000Y1087809D01*
X1073465Y1087343D01*
X1069931Y1087809D01*
X1066637Y1089173D01*
X1063809Y1091343D01*
X1061638Y1094172D01*
X1060274Y1097465D01*
X1059809Y1101000D01*
X1060274Y1104535D01*
X1061638Y1107828D01*
X1063809Y1110657D01*
X1066637Y1112827D01*
X1069931Y1114192D01*
X1073465Y1114657D01*
D02*
G37*
%LPD*%
D10*
X1515466Y1132000D02*
D03*
Y1160000D02*
D03*
D11*
X1181216Y1135500D02*
D03*
Y1116500D02*
D03*
X1203716Y1126000D02*
D03*
D12*
X1208966Y1199000D02*
D03*
X1227965D02*
D03*
D13*
X1514466Y1127998D02*
X1494568D01*
X1515466Y1160000D02*
X1485966Y1189500D01*
X1474466D01*
X1151965Y1135500D02*
X1148465Y1139000D01*
X1123465D01*
X1118365Y1116500D02*
X1098465Y1136400D01*
Y1147000D01*
X1181216Y1116500D02*
X1118365D01*
X1181216Y1135500D02*
X1151965D01*
X1515466Y1128998D02*
Y1132000D01*
Y1113000D02*
Y1128998D01*
X1514466Y1127998D01*
X1504465Y1160000D02*
X1473466Y1129000D01*
X1456465Y1121755D02*
Y1165000D01*
X1515466Y1113000D02*
X1465221D01*
X1460466Y1169000D02*
X1456465Y1165000D01*
X1465221Y1113000D02*
X1456465Y1121755D01*
X1515466Y1160000D02*
X1504465D01*
X1460466Y1169000D02*
Y1175000D01*
X1208966Y1199000D02*
X1205465Y1195500D01*
Y1173000D02*
Y1195500D01*
X1227965Y1199000D02*
Y1200000D01*
D14*
X1039465Y1000000D02*
Y1300000D01*
X1569465Y1000000D02*
X1039465D01*
X1569465D02*
Y1300000D01*
X1039465D01*
D15*
X1073465Y1201000D02*
D03*
Y1101000D02*
D03*
D16*
X1123465Y1139000D02*
D03*
D17*
X1098465Y1147000D02*
D03*
X1123465Y1155000D02*
D03*
X1098465Y1163000D02*
D03*
X1494568Y1127998D02*
D03*
X1474466Y1189500D02*
D03*
X1515466Y1113000D02*
D03*
X1396868Y1088898D02*
D03*
X1473466Y1129000D02*
D03*
X1390215Y1130750D02*
D03*
X1460466Y1175000D02*
D03*
X1318116Y1073350D02*
D03*
X1317466Y1103000D02*
D03*
X1319016Y1022550D02*
D03*
X1205465Y1173000D02*
D03*
X1231466D02*
D03*
M02*
