G04*
G04 #@! TF.GenerationSoftware,Altium Limited,Altium Designer,19.1.7 (138)*
G04*
G04 Layer_Color=8388736*
%FSLAX44Y44*%
%MOMM*%
G71*
G01*
G75*
%ADD10R,1.1000X2.1000*%
%ADD11C,0.3540*%
%ADD12R,1.4000X1.6000*%
%ADD13R,1.8000X1.2000*%
%ADD14R,1.2000X1.8000*%
%ADD15O,2.1000X0.7000*%
%ADD16R,0.9000X1.6000*%
%ADD17R,2.1000X1.3000*%
%ADD18O,1.9000X0.4500*%
%ADD19R,0.7500X1.0000*%
%ADD20C,2.3000*%
%ADD21R,1.3000X1.3000*%
%ADD22C,1.3000*%
G36*
X1397750Y1049500D02*
X1384250D01*
X1389750Y1055000D01*
X1389750D01*
X1384250Y1060500D01*
X1397750D01*
Y1049500D01*
D02*
G37*
G36*
X1385750Y1055000D02*
X1380250Y1049500D01*
X1373250D01*
Y1060500D01*
X1380250D01*
X1385750Y1055000D01*
D02*
G37*
G36*
X1318000Y1002590D02*
X1292000D01*
X1292000Y1297410D01*
X1318000D01*
X1318000Y1002590D01*
D02*
G37*
D10*
X1064100Y1238600D02*
D03*
X1084100D02*
D03*
X1024100D02*
D03*
X1104100D02*
D03*
X1044100D02*
D03*
D11*
X1394000Y1055000D02*
D03*
X1379000D02*
D03*
D12*
X1376500Y1074000D02*
D03*
X1395500D02*
D03*
D13*
X1094000Y1115500D02*
D03*
Y1088500D02*
D03*
X1212000Y1204500D02*
D03*
Y1177500D02*
D03*
X1115000Y1115500D02*
D03*
Y1088500D02*
D03*
X1234000Y1204500D02*
D03*
Y1177500D02*
D03*
D14*
X1333500Y1131000D02*
D03*
X1360500D02*
D03*
X1336500Y1152000D02*
D03*
X1363500D02*
D03*
D15*
X1350000Y1022550D02*
D03*
Y1035250D02*
D03*
Y1047950D02*
D03*
Y1060650D02*
D03*
Y1073350D02*
D03*
Y1086050D02*
D03*
Y1098750D02*
D03*
Y1111450D02*
D03*
X1260000Y1022550D02*
D03*
Y1035250D02*
D03*
Y1047950D02*
D03*
Y1060650D02*
D03*
Y1073350D02*
D03*
Y1086050D02*
D03*
Y1098750D02*
D03*
Y1111450D02*
D03*
D16*
X1267000Y1173000D02*
D03*
X1292400D02*
D03*
X1317800D02*
D03*
X1343200D02*
D03*
D17*
X1091000Y1069000D02*
D03*
X1119000D02*
D03*
D18*
X1213000Y1065750D02*
D03*
Y1072250D02*
D03*
Y1078750D02*
D03*
Y1085250D02*
D03*
Y1091750D02*
D03*
Y1098250D02*
D03*
Y1104750D02*
D03*
Y1111250D02*
D03*
Y1117750D02*
D03*
Y1124250D02*
D03*
Y1130750D02*
D03*
Y1137250D02*
D03*
Y1143750D02*
D03*
Y1150250D02*
D03*
X1145000Y1065750D02*
D03*
Y1072250D02*
D03*
Y1078750D02*
D03*
Y1085250D02*
D03*
Y1091750D02*
D03*
Y1098250D02*
D03*
Y1104750D02*
D03*
Y1111250D02*
D03*
Y1117750D02*
D03*
Y1124250D02*
D03*
Y1130750D02*
D03*
Y1137250D02*
D03*
Y1143750D02*
D03*
Y1150250D02*
D03*
D19*
X1065000Y1165000D02*
D03*
X1055500Y1141000D02*
D03*
X1065000D02*
D03*
X1074500D02*
D03*
Y1165000D02*
D03*
X1055500D02*
D03*
D20*
X1486000Y1201000D02*
D03*
Y1101000D02*
D03*
D21*
X1436000Y1139000D02*
D03*
D22*
X1461000Y1147000D02*
D03*
X1436000Y1155000D02*
D03*
X1461000Y1163000D02*
D03*
M02*
