G04*
G04 #@! TF.GenerationSoftware,Altium Limited,Altium Designer,19.1.7 (138)*
G04*
G04 Layer_Color=65535*
%FSLAX44Y44*%
%MOMM*%
G71*
G01*
G75*
%ADD10C,0.6000*%
%ADD11C,0.2500*%
%ADD12C,0.1200*%
%ADD13C,0.2540*%
%ADD14C,0.2000*%
D10*
X1287000Y1109500D02*
G03*
X1287000Y1109500I-3000J0D01*
G01*
X1193000Y1065500D02*
G03*
X1193000Y1065500I-3000J0D01*
G01*
D11*
X1261250Y1119950D02*
G03*
X1261250Y1119950I-1250J0D01*
G01*
X1253640Y1181500D02*
G03*
X1253640Y1181500I-1250J0D01*
G01*
X1113350Y1225100D02*
G03*
X1113350Y1225100I-1250J0D01*
G01*
X1214250Y1058500D02*
G03*
X1214250Y1058500I-1250J0D01*
G01*
X1048000Y1141000D02*
G03*
X1048000Y1141000I-1250J0D01*
G01*
X1428750Y1124390D02*
G03*
X1428750Y1124390I-1250J0D01*
G01*
D12*
X1371250Y1060750D02*
X1373750D01*
X1371250Y1056750D02*
Y1060750D01*
Y1049250D02*
Y1056750D01*
Y1049250D02*
X1373750D01*
X1397250D02*
X1399750D01*
Y1060750D01*
X1397250D02*
X1399750D01*
D13*
X1367250Y1084000D02*
X1383000D01*
X1367250Y1064000D02*
Y1084000D01*
Y1064000D02*
X1382500D01*
X1389500Y1084000D02*
X1404750D01*
Y1064000D02*
Y1084000D01*
X1389000Y1064000D02*
X1404750D01*
X1236643Y1231864D02*
X1234103Y1234403D01*
X1229025D01*
X1226486Y1231864D01*
Y1221707D01*
X1229025Y1219168D01*
X1234103D01*
X1236643Y1221707D01*
X1241721Y1231864D02*
X1244260Y1234403D01*
X1249339D01*
X1251878Y1231864D01*
Y1229325D01*
X1249339Y1226786D01*
X1251878Y1224246D01*
Y1221707D01*
X1249339Y1219168D01*
X1244260D01*
X1241721Y1221707D01*
Y1224246D01*
X1244260Y1226786D01*
X1241721Y1229325D01*
Y1231864D01*
X1244260Y1226786D02*
X1249339D01*
X1089779Y1094881D02*
X1088112Y1096547D01*
X1084780D01*
X1083114Y1094881D01*
Y1088216D01*
X1084780Y1086550D01*
X1088112D01*
X1089779Y1088216D01*
X1093111Y1094881D02*
X1094777Y1096547D01*
X1098109D01*
X1099775Y1094881D01*
Y1093214D01*
X1098109Y1091548D01*
X1096443D01*
X1098109D01*
X1099775Y1089882D01*
Y1088216D01*
X1098109Y1086550D01*
X1094777D01*
X1093111Y1088216D01*
X1419664Y1058331D02*
X1417998Y1059997D01*
X1414666D01*
X1413000Y1058331D01*
Y1056665D01*
X1414666Y1054998D01*
X1417998D01*
X1419664Y1053332D01*
Y1051666D01*
X1417998Y1050000D01*
X1414666D01*
X1413000Y1051666D01*
X1422997Y1059997D02*
Y1050000D01*
X1427995D01*
X1429661Y1051666D01*
Y1053332D01*
X1427995Y1054998D01*
X1422997D01*
X1427995D01*
X1429661Y1056665D01*
Y1058331D01*
X1427995Y1059997D01*
X1422997D01*
X1432994Y1050000D02*
X1436326D01*
X1434660D01*
Y1059997D01*
X1432994Y1058331D01*
X1211225Y1227501D02*
X1209558Y1229167D01*
X1206226D01*
X1204560Y1227501D01*
Y1220836D01*
X1206226Y1219170D01*
X1209558D01*
X1211225Y1220836D01*
X1214557Y1229167D02*
X1221221D01*
Y1227501D01*
X1214557Y1220836D01*
Y1219170D01*
X1313665Y1155331D02*
X1311998Y1156997D01*
X1308666D01*
X1307000Y1155331D01*
Y1148666D01*
X1308666Y1147000D01*
X1311998D01*
X1313665Y1148666D01*
X1323661Y1156997D02*
X1320329Y1155331D01*
X1316997Y1151998D01*
Y1148666D01*
X1318663Y1147000D01*
X1321995D01*
X1323661Y1148666D01*
Y1150332D01*
X1321995Y1151998D01*
X1316997D01*
X1046702Y1188509D02*
Y1180178D01*
X1048368Y1178512D01*
X1051700D01*
X1053366Y1180178D01*
Y1188509D01*
X1061697Y1178512D02*
Y1188509D01*
X1056699Y1183510D01*
X1063363D01*
X1338707Y1177969D02*
X1337040Y1179635D01*
X1333708D01*
X1332042Y1177969D01*
Y1171304D01*
X1333708Y1169638D01*
X1337040D01*
X1338707Y1171304D01*
X1348703Y1179635D02*
X1342039D01*
Y1174636D01*
X1345371Y1176302D01*
X1347037D01*
X1348703Y1174636D01*
Y1171304D01*
X1347037Y1169638D01*
X1343705D01*
X1342039Y1171304D01*
X1018196Y1259688D02*
Y1269685D01*
X1023194D01*
X1024861Y1268019D01*
Y1264686D01*
X1023194Y1263020D01*
X1018196D01*
X1034857Y1259688D02*
X1028193D01*
X1034857Y1266352D01*
Y1268019D01*
X1033191Y1269685D01*
X1029859D01*
X1028193Y1268019D01*
X1093275Y1138405D02*
X1091608Y1140071D01*
X1088276D01*
X1086610Y1138405D01*
Y1131740D01*
X1088276Y1130074D01*
X1091608D01*
X1093275Y1131740D01*
X1101605Y1130074D02*
Y1140071D01*
X1096607Y1135072D01*
X1103271D01*
X1416812Y1232499D02*
X1423477Y1222502D01*
Y1232499D02*
X1416812Y1222502D01*
X1426809D02*
X1430141D01*
X1428475D01*
Y1232499D01*
X1426809Y1230833D01*
X1249404Y1305825D02*
Y1297494D01*
X1251070Y1295828D01*
X1254402D01*
X1256068Y1297494D01*
Y1305825D01*
X1266065Y1295828D02*
X1259401D01*
X1266065Y1302493D01*
Y1304159D01*
X1264399Y1305825D01*
X1261067D01*
X1259401Y1304159D01*
X1272940Y1140107D02*
Y1131776D01*
X1274606Y1130110D01*
X1277938D01*
X1279604Y1131776D01*
Y1140107D01*
X1282937Y1138441D02*
X1284603Y1140107D01*
X1287935D01*
X1289601Y1138441D01*
Y1136775D01*
X1287935Y1135108D01*
X1286269D01*
X1287935D01*
X1289601Y1133442D01*
Y1131776D01*
X1287935Y1130110D01*
X1284603D01*
X1282937Y1131776D01*
X1114295Y1138427D02*
X1112628Y1140093D01*
X1109296D01*
X1107630Y1138427D01*
Y1131762D01*
X1109296Y1130096D01*
X1112628D01*
X1114295Y1131762D01*
X1117627Y1130096D02*
X1120959D01*
X1119293D01*
Y1140093D01*
X1117627Y1138427D01*
X1138012Y1179061D02*
Y1170730D01*
X1139678Y1169064D01*
X1143010D01*
X1144677Y1170730D01*
Y1179061D01*
X1148009Y1169064D02*
X1151341D01*
X1149675D01*
Y1179061D01*
X1148009Y1177395D01*
X1411000Y1069000D02*
Y1078997D01*
X1415998D01*
X1417664Y1077331D01*
Y1073998D01*
X1415998Y1072332D01*
X1411000D01*
X1414332D02*
X1417664Y1069000D01*
X1420997D02*
X1424329D01*
X1422663D01*
Y1078997D01*
X1420997Y1077331D01*
D14*
X1101500Y1098000D02*
Y1106000D01*
X1086500Y1098000D02*
Y1106000D01*
X1219500Y1187000D02*
Y1195000D01*
X1204500Y1187000D02*
Y1195000D01*
X1343000Y1138500D02*
X1351000D01*
X1343000Y1123500D02*
X1351000D01*
X1122500Y1098000D02*
Y1106000D01*
X1107500Y1098000D02*
Y1106000D01*
X1274000Y1014500D02*
X1336000D01*
X1274000Y1119500D02*
X1336000D01*
Y1014500D02*
Y1119500D01*
X1274000Y1014500D02*
Y1119500D01*
X1247950Y1162840D02*
Y1287300D01*
X1362250D01*
X1247950Y1162840D02*
X1362250D01*
Y1287300D01*
X1111600Y1226100D02*
Y1251100D01*
X1016600Y1226100D02*
X1111600D01*
X1016600Y1251100D02*
X1111600D01*
X1016600Y1226100D02*
Y1251100D01*
X1088000Y1078000D02*
X1122000D01*
X1088000Y1060000D02*
X1122000D01*
Y1077500D02*
Y1078000D01*
X1088000Y1077500D02*
X1101000D01*
X1122000Y1060000D02*
Y1060500D01*
X1088000D02*
X1101000D01*
X1200000Y1055500D02*
Y1160500D01*
X1158000Y1055500D02*
Y1160500D01*
Y1055500D02*
X1200000D01*
X1158000Y1160500D02*
X1200000D01*
X1049500Y1149500D02*
Y1156500D01*
X1080500Y1149500D02*
Y1156500D01*
X1049500Y1149500D02*
X1080500D01*
X1049500Y1156500D02*
X1080500D01*
X1346000Y1159500D02*
X1354000D01*
X1346000Y1144500D02*
X1354000D01*
X1241500Y1187000D02*
Y1195000D01*
X1226500Y1187000D02*
Y1195000D01*
X1537500Y1181000D02*
X1546500D01*
X1537500Y1119500D02*
Y1181000D01*
Y1119500D02*
X1546500D01*
X1415680Y1213930D02*
X1546490D01*
Y1088200D02*
Y1213930D01*
X1415680Y1088200D02*
Y1213930D01*
Y1088200D02*
X1546490D01*
M02*
