G04*
G04 #@! TF.GenerationSoftware,Altium Limited,Altium Designer,19.1.7 (138)*
G04*
G04 Layer_Color=32896*
%FSLAX25Y25*%
%MOIN*%
G70*
G01*
G75*
%ADD10C,0.00984*%
%ADD11C,0.00787*%
%ADD12C,0.01000*%
G36*
X539799Y500790D02*
Y500739D01*
X539445D01*
Y500689D01*
X539294D01*
Y500638D01*
X539142D01*
Y500588D01*
X539041D01*
Y500537D01*
X538940D01*
Y500487D01*
X538889D01*
Y500436D01*
X538788D01*
Y500385D01*
X538687D01*
Y500335D01*
X538636D01*
Y500284D01*
X538586D01*
Y500234D01*
X538484D01*
Y500183D01*
X538434D01*
Y500133D01*
X538383D01*
Y500082D01*
X538333D01*
Y500031D01*
X538282D01*
Y499981D01*
X538232D01*
Y499930D01*
X538181D01*
Y499880D01*
X538130D01*
Y499829D01*
X538080D01*
Y499778D01*
Y499728D01*
X538029D01*
Y499677D01*
X537979D01*
Y499627D01*
Y499576D01*
X537928D01*
Y499525D01*
X537878D01*
Y499475D01*
Y499424D01*
X537827D01*
Y499374D01*
Y499323D01*
X537776D01*
Y499273D01*
Y499222D01*
X537726D01*
Y499171D01*
X537675D01*
Y499121D01*
Y499070D01*
Y499020D01*
X537625D01*
Y498969D01*
Y498919D01*
Y498868D01*
X537574D01*
Y498817D01*
Y498767D01*
Y498716D01*
Y498666D01*
Y498615D01*
X537524D01*
Y498564D01*
X537473D01*
Y498514D01*
Y498463D01*
Y498413D01*
Y498362D01*
Y498312D01*
Y498261D01*
Y498210D01*
Y498160D01*
Y498109D01*
Y498059D01*
Y498008D01*
Y497958D01*
Y497907D01*
Y497856D01*
Y497806D01*
Y497755D01*
Y497705D01*
Y497654D01*
Y497604D01*
Y497553D01*
Y497502D01*
Y497452D01*
Y497401D01*
Y497351D01*
Y497300D01*
Y497250D01*
Y497199D01*
Y497148D01*
Y497098D01*
Y497047D01*
Y496997D01*
Y496946D01*
Y496895D01*
Y496845D01*
Y496794D01*
Y496744D01*
Y496693D01*
Y496642D01*
Y496592D01*
Y496541D01*
Y496491D01*
Y496440D01*
Y496390D01*
Y496339D01*
Y496288D01*
Y496238D01*
Y496187D01*
Y496137D01*
Y496086D01*
Y496036D01*
Y495985D01*
Y495934D01*
Y495884D01*
Y495833D01*
Y495783D01*
Y495732D01*
Y495681D01*
Y495631D01*
Y495580D01*
Y495530D01*
Y495479D01*
Y495429D01*
Y495378D01*
Y495328D01*
Y495277D01*
Y495226D01*
Y495176D01*
Y495125D01*
Y495075D01*
Y495024D01*
Y494973D01*
Y494923D01*
Y494872D01*
Y494822D01*
Y494771D01*
Y494721D01*
Y494670D01*
Y494619D01*
Y494569D01*
Y494518D01*
Y494468D01*
Y494417D01*
Y494366D01*
Y494316D01*
Y494265D01*
Y494215D01*
Y494164D01*
Y494114D01*
Y494063D01*
Y494012D01*
Y493962D01*
Y493911D01*
Y493861D01*
Y493810D01*
Y493759D01*
Y493709D01*
Y493658D01*
Y493608D01*
Y493557D01*
Y493507D01*
Y493456D01*
Y493405D01*
Y493355D01*
Y493304D01*
Y493254D01*
Y493203D01*
Y493153D01*
Y493102D01*
Y493051D01*
Y493001D01*
Y492950D01*
Y492900D01*
Y492849D01*
Y492799D01*
Y492748D01*
Y492697D01*
Y492647D01*
Y492596D01*
Y492546D01*
Y492495D01*
Y492444D01*
Y492394D01*
Y492343D01*
Y492293D01*
Y492242D01*
Y492192D01*
Y492141D01*
Y492090D01*
Y492040D01*
Y491989D01*
Y491939D01*
Y491888D01*
Y491838D01*
Y491787D01*
Y491736D01*
Y491686D01*
Y491635D01*
Y491585D01*
Y491534D01*
Y491483D01*
Y491433D01*
Y491382D01*
Y491332D01*
Y491281D01*
Y491230D01*
Y491180D01*
Y491129D01*
Y491079D01*
Y491028D01*
Y490978D01*
Y490927D01*
Y490876D01*
Y490826D01*
Y490775D01*
Y490725D01*
Y490674D01*
Y490624D01*
Y490573D01*
Y490522D01*
Y490472D01*
Y490421D01*
Y490371D01*
Y490320D01*
Y490270D01*
Y490219D01*
Y490168D01*
Y490118D01*
Y490067D01*
Y490017D01*
Y489966D01*
Y489916D01*
Y489865D01*
Y489814D01*
Y489764D01*
Y489713D01*
Y489663D01*
Y489612D01*
Y489561D01*
Y489511D01*
Y489460D01*
Y489410D01*
Y489359D01*
Y489309D01*
Y489258D01*
Y489207D01*
Y489157D01*
Y489106D01*
Y489056D01*
Y489005D01*
Y488954D01*
Y488904D01*
Y488853D01*
Y488803D01*
Y488752D01*
Y488702D01*
Y488651D01*
Y488600D01*
Y488550D01*
Y488499D01*
Y488449D01*
Y488398D01*
Y488347D01*
Y488297D01*
Y488246D01*
Y488196D01*
Y488145D01*
Y488095D01*
Y488044D01*
Y487993D01*
Y487943D01*
Y487892D01*
Y487842D01*
Y487791D01*
Y487741D01*
Y487690D01*
Y487639D01*
Y487589D01*
Y487538D01*
Y487488D01*
Y487437D01*
Y487387D01*
Y487336D01*
Y487285D01*
Y487235D01*
Y487184D01*
Y487134D01*
Y487083D01*
Y487033D01*
Y486982D01*
Y486931D01*
Y486881D01*
Y486830D01*
Y486780D01*
Y486729D01*
Y486678D01*
Y486628D01*
Y486577D01*
Y486527D01*
Y486476D01*
Y486425D01*
Y486375D01*
Y486324D01*
Y486274D01*
Y486223D01*
Y486173D01*
Y486122D01*
Y486071D01*
Y486021D01*
Y485970D01*
Y485920D01*
Y485869D01*
Y485819D01*
Y485768D01*
Y485717D01*
Y485667D01*
Y485616D01*
Y485566D01*
Y485515D01*
Y485464D01*
Y485414D01*
Y485363D01*
Y485313D01*
Y485262D01*
Y485212D01*
Y485161D01*
Y485111D01*
Y485060D01*
Y485009D01*
Y484959D01*
Y484908D01*
Y484858D01*
Y484807D01*
Y484756D01*
Y484706D01*
Y484655D01*
Y484605D01*
Y484554D01*
Y484504D01*
Y484453D01*
Y484402D01*
Y484352D01*
Y484301D01*
Y484251D01*
Y484200D01*
Y484149D01*
Y484099D01*
Y484048D01*
Y483998D01*
Y483947D01*
Y483896D01*
Y483846D01*
Y483795D01*
Y483745D01*
Y483694D01*
Y483644D01*
Y483593D01*
Y483542D01*
Y483492D01*
Y483441D01*
Y483391D01*
Y483340D01*
Y483290D01*
Y483239D01*
Y483188D01*
Y483138D01*
Y483087D01*
Y483037D01*
Y482986D01*
Y482935D01*
Y482885D01*
Y482834D01*
Y482784D01*
Y482733D01*
Y482683D01*
Y482632D01*
Y482582D01*
Y482531D01*
Y482480D01*
Y482430D01*
Y482379D01*
Y482329D01*
Y482278D01*
Y482227D01*
Y482177D01*
Y482126D01*
Y482076D01*
Y482025D01*
Y481975D01*
Y481924D01*
Y481873D01*
Y481823D01*
Y481772D01*
Y481722D01*
Y481671D01*
Y481621D01*
Y481570D01*
Y481519D01*
Y481469D01*
Y481418D01*
Y481368D01*
Y481317D01*
Y481266D01*
Y481216D01*
Y481165D01*
Y481115D01*
Y481064D01*
Y481013D01*
Y480963D01*
Y480912D01*
Y480862D01*
Y480811D01*
Y480761D01*
Y480710D01*
Y480659D01*
Y480609D01*
Y480558D01*
Y480508D01*
Y480457D01*
Y480407D01*
Y480356D01*
Y480305D01*
Y480255D01*
Y480204D01*
Y480154D01*
Y480103D01*
Y480053D01*
Y480002D01*
Y479951D01*
Y479901D01*
Y479850D01*
Y479800D01*
Y479749D01*
Y479699D01*
Y479648D01*
Y479597D01*
Y479547D01*
Y479496D01*
X537524D01*
Y479446D01*
X537574D01*
Y479395D01*
Y479344D01*
X537524D01*
Y479294D01*
X537574D01*
Y479243D01*
Y479193D01*
Y479142D01*
Y479092D01*
X537625D01*
Y479041D01*
Y478990D01*
Y478940D01*
X537675D01*
Y478889D01*
Y478839D01*
Y478788D01*
X537726D01*
Y478737D01*
X537776D01*
Y478687D01*
Y478636D01*
X537827D01*
Y478586D01*
Y478535D01*
X537878D01*
Y478485D01*
X537928D01*
Y478434D01*
Y478383D01*
X537979D01*
Y478333D01*
Y478282D01*
X538029D01*
Y478232D01*
X538080D01*
Y478181D01*
X538130D01*
Y478130D01*
X538181D01*
Y478080D01*
Y478029D01*
X538232D01*
Y477979D01*
X538282D01*
Y477928D01*
X538333D01*
Y477878D01*
X538383D01*
Y477827D01*
X538484D01*
Y477776D01*
X538535D01*
Y477726D01*
X538586D01*
Y477675D01*
X538687D01*
Y477625D01*
X538737D01*
Y477574D01*
X538838D01*
Y477524D01*
X538889D01*
Y477473D01*
X538990D01*
Y477422D01*
X539091D01*
Y477372D01*
X539193D01*
Y477321D01*
X539344D01*
Y477271D01*
X539698D01*
Y477220D01*
Y477170D01*
X566859D01*
Y477220D01*
Y477271D01*
X567213D01*
Y477321D01*
X567315D01*
Y477372D01*
X567466D01*
Y477422D01*
X567567D01*
Y477473D01*
X567618D01*
Y477524D01*
X567719D01*
Y477574D01*
X567770D01*
Y477625D01*
X567871D01*
Y477675D01*
X567922D01*
Y477726D01*
X568023D01*
Y477776D01*
X568073D01*
Y477827D01*
X568124D01*
Y477878D01*
X568175D01*
Y477928D01*
X568225D01*
Y477979D01*
X568276D01*
Y478029D01*
X568326D01*
Y478080D01*
X568377D01*
Y478130D01*
X568427D01*
Y478181D01*
X568478D01*
Y478232D01*
Y478282D01*
X568529D01*
Y478333D01*
X568579D01*
Y478383D01*
Y478434D01*
X568630D01*
Y478485D01*
X568680D01*
Y478535D01*
Y478586D01*
X568731D01*
Y478636D01*
Y478687D01*
X568781D01*
Y478737D01*
Y478788D01*
X568832D01*
Y478839D01*
Y478889D01*
X568883D01*
Y478940D01*
Y478990D01*
Y479041D01*
X568933D01*
Y479092D01*
Y479142D01*
Y479193D01*
X568984D01*
Y479243D01*
X568933D01*
Y479294D01*
Y479344D01*
Y479395D01*
X569034D01*
Y479446D01*
Y479496D01*
Y479547D01*
Y479597D01*
Y479648D01*
Y479699D01*
Y479749D01*
Y479800D01*
Y479850D01*
Y479901D01*
Y479951D01*
Y480002D01*
Y480053D01*
Y480103D01*
Y480154D01*
Y480204D01*
Y480255D01*
Y480305D01*
Y480356D01*
Y480407D01*
Y480457D01*
Y480508D01*
Y480558D01*
Y480609D01*
Y480659D01*
Y480710D01*
Y480761D01*
Y480811D01*
Y480862D01*
Y480912D01*
Y480963D01*
Y481013D01*
Y481064D01*
Y481115D01*
Y481165D01*
Y481216D01*
Y481266D01*
Y481317D01*
Y481368D01*
Y481418D01*
Y481469D01*
Y481519D01*
Y481570D01*
Y481621D01*
Y481671D01*
Y481722D01*
Y481772D01*
Y481823D01*
Y481873D01*
Y481924D01*
Y481975D01*
Y482025D01*
Y482076D01*
Y482126D01*
Y482177D01*
Y482227D01*
Y482278D01*
Y482329D01*
Y482379D01*
Y482430D01*
Y482480D01*
Y482531D01*
Y482582D01*
Y482632D01*
Y482683D01*
Y482733D01*
Y482784D01*
Y482834D01*
Y482885D01*
Y482935D01*
Y482986D01*
Y483037D01*
Y483087D01*
Y483138D01*
Y483188D01*
Y483239D01*
Y483290D01*
Y483340D01*
Y483391D01*
Y483441D01*
Y483492D01*
Y483542D01*
Y483593D01*
Y483644D01*
Y483694D01*
Y483745D01*
Y483795D01*
Y483846D01*
Y483896D01*
Y483947D01*
Y483998D01*
Y484048D01*
Y484099D01*
Y484149D01*
Y484200D01*
Y484251D01*
Y484301D01*
Y484352D01*
Y484402D01*
Y484453D01*
Y484504D01*
Y484554D01*
Y484605D01*
Y484655D01*
Y484706D01*
Y484756D01*
Y484807D01*
Y484858D01*
Y484908D01*
Y484959D01*
Y485009D01*
Y485060D01*
Y485111D01*
Y485161D01*
Y485212D01*
Y485262D01*
Y485313D01*
Y485363D01*
Y485414D01*
Y485464D01*
Y485515D01*
Y485566D01*
Y485616D01*
Y485667D01*
Y485717D01*
Y485768D01*
Y485819D01*
Y485869D01*
Y485920D01*
Y485970D01*
Y486021D01*
Y486071D01*
Y486122D01*
Y486173D01*
Y486223D01*
Y486274D01*
Y486324D01*
Y486375D01*
Y486425D01*
Y486476D01*
Y486527D01*
Y486577D01*
Y486628D01*
Y486678D01*
Y486729D01*
Y486780D01*
Y486830D01*
Y486881D01*
Y486931D01*
Y486982D01*
Y487033D01*
Y487083D01*
Y487134D01*
Y487184D01*
Y487235D01*
Y487285D01*
Y487336D01*
Y487387D01*
Y487437D01*
Y487488D01*
Y487538D01*
Y487589D01*
Y487639D01*
Y487690D01*
Y487741D01*
Y487791D01*
Y487842D01*
Y487892D01*
Y487943D01*
Y487993D01*
Y488044D01*
Y488095D01*
Y488145D01*
Y488196D01*
Y488246D01*
Y488297D01*
Y488347D01*
Y488398D01*
Y488449D01*
Y488499D01*
Y488550D01*
Y488600D01*
Y488651D01*
Y488702D01*
Y488752D01*
Y488803D01*
Y488853D01*
Y488904D01*
Y488954D01*
Y489005D01*
Y489056D01*
Y489106D01*
Y489157D01*
Y489207D01*
Y489258D01*
Y489309D01*
Y489359D01*
Y489410D01*
Y489460D01*
Y489511D01*
Y489561D01*
Y489612D01*
Y489663D01*
Y489713D01*
Y489764D01*
Y489814D01*
Y489865D01*
Y489916D01*
Y489966D01*
Y490017D01*
Y490067D01*
Y490118D01*
Y490168D01*
Y490219D01*
Y490270D01*
Y490320D01*
Y490371D01*
Y490421D01*
Y490472D01*
Y490522D01*
Y490573D01*
Y490624D01*
Y490674D01*
Y490725D01*
Y490775D01*
Y490826D01*
Y490876D01*
Y490927D01*
Y490978D01*
Y491028D01*
Y491079D01*
Y491129D01*
Y491180D01*
Y491230D01*
Y491281D01*
Y491332D01*
Y491382D01*
Y491433D01*
Y491483D01*
Y491534D01*
Y491585D01*
Y491635D01*
Y491686D01*
Y491736D01*
Y491787D01*
Y491838D01*
Y491888D01*
Y491939D01*
Y491989D01*
Y492040D01*
Y492090D01*
Y492141D01*
Y492192D01*
Y492242D01*
Y492293D01*
Y492343D01*
Y492394D01*
Y492444D01*
Y492495D01*
Y492546D01*
Y492596D01*
Y492647D01*
Y492697D01*
Y492748D01*
Y492799D01*
Y492849D01*
Y492900D01*
Y492950D01*
Y493001D01*
Y493051D01*
Y493102D01*
Y493153D01*
Y493203D01*
Y493254D01*
Y493304D01*
Y493355D01*
Y493405D01*
Y493456D01*
Y493507D01*
Y493557D01*
Y493608D01*
Y493658D01*
Y493709D01*
Y493759D01*
Y493810D01*
Y493861D01*
Y493911D01*
Y493962D01*
Y494012D01*
Y494063D01*
Y494114D01*
Y494164D01*
Y494215D01*
Y494265D01*
Y494316D01*
Y494366D01*
Y494417D01*
Y494468D01*
Y494518D01*
Y494569D01*
Y494619D01*
Y494670D01*
Y494721D01*
Y494771D01*
Y494822D01*
Y494872D01*
Y494923D01*
Y494973D01*
Y495024D01*
Y495075D01*
Y495125D01*
Y495176D01*
Y495226D01*
Y495277D01*
Y495328D01*
Y495378D01*
Y495429D01*
Y495479D01*
Y495530D01*
Y495580D01*
Y495631D01*
Y495681D01*
Y495732D01*
Y495783D01*
Y495833D01*
Y495884D01*
Y495934D01*
Y495985D01*
Y496036D01*
Y496086D01*
Y496137D01*
Y496187D01*
Y496238D01*
Y496288D01*
Y496339D01*
Y496390D01*
Y496440D01*
Y496491D01*
Y496541D01*
Y496592D01*
Y496642D01*
Y496693D01*
Y496744D01*
Y496794D01*
Y496845D01*
Y496895D01*
Y496946D01*
Y496997D01*
Y497047D01*
Y497098D01*
Y497148D01*
Y497199D01*
Y497250D01*
Y497300D01*
Y497351D01*
Y497401D01*
Y497452D01*
Y497502D01*
Y497553D01*
Y497604D01*
Y497654D01*
Y497705D01*
Y497755D01*
Y497806D01*
Y497856D01*
Y497907D01*
Y497958D01*
Y498008D01*
Y498059D01*
Y498109D01*
Y498160D01*
Y498210D01*
Y498261D01*
Y498312D01*
Y498362D01*
Y498413D01*
Y498463D01*
Y498514D01*
Y498564D01*
Y498615D01*
X568933D01*
Y498666D01*
Y498716D01*
X568984D01*
Y498767D01*
X568933D01*
Y498817D01*
Y498868D01*
Y498919D01*
Y498969D01*
X568883D01*
Y499020D01*
Y499070D01*
Y499121D01*
X568832D01*
Y499171D01*
Y499222D01*
X568781D01*
Y499273D01*
X568731D01*
Y499323D01*
Y499374D01*
X568680D01*
Y499424D01*
Y499475D01*
X568630D01*
Y499525D01*
Y499576D01*
X568579D01*
Y499627D01*
X568529D01*
Y499677D01*
Y499728D01*
X568478D01*
Y499778D01*
X568427D01*
Y499829D01*
X568377D01*
Y499880D01*
Y499930D01*
X568326D01*
Y499981D01*
X568276D01*
Y500031D01*
X568225D01*
Y500082D01*
X568175D01*
Y500133D01*
X568073D01*
Y500183D01*
X568023D01*
Y500234D01*
X567972D01*
Y500284D01*
X567922D01*
Y500335D01*
X567820D01*
Y500385D01*
X567770D01*
Y500436D01*
X567669D01*
Y500487D01*
X567618D01*
Y500537D01*
X567517D01*
Y500588D01*
X567416D01*
Y500638D01*
X567264D01*
Y500689D01*
X567112D01*
Y500739D01*
X566708D01*
Y500790D01*
Y500841D01*
X539799D01*
Y500790D01*
D02*
G37*
G36*
X579317Y502592D02*
X583637Y497889D01*
X584293Y490507D01*
X579317Y485176D01*
Y484465D01*
X584293Y489632D01*
X584375Y489414D01*
Y489304D01*
X584402Y489195D01*
Y489086D01*
Y489031D01*
X584430Y488839D01*
Y488675D01*
X584457Y488566D01*
Y488511D01*
X584484Y488320D01*
Y488129D01*
Y488019D01*
Y487965D01*
X584512Y487801D01*
Y487719D01*
X584539Y487664D01*
Y487637D01*
Y487582D01*
Y487500D01*
Y487445D01*
Y487418D01*
X584566Y487336D01*
X584621Y487281D01*
X584676Y487254D01*
X584703D01*
Y486406D01*
X585715D01*
Y487254D01*
X589214D01*
X589406Y486980D01*
X589597Y486762D01*
X589761Y486652D01*
X589788Y486598D01*
X589816D01*
X590116Y486461D01*
X590390Y486406D01*
X590499Y486379D01*
X590663D01*
X590909Y486406D01*
X591101Y486434D01*
X591292Y486516D01*
X591429Y486598D01*
X591538Y486652D01*
X591620Y486734D01*
X591675Y486762D01*
X591702Y486789D01*
X591839Y486953D01*
X591921Y487117D01*
X592030Y487472D01*
X592058Y487637D01*
X592085Y487746D01*
Y487828D01*
Y487855D01*
X592058Y488238D01*
X591976Y488511D01*
X591921Y488621D01*
X591866Y488703D01*
X591839Y488730D01*
Y488758D01*
X591620Y489004D01*
X591374Y489168D01*
X591265Y489250D01*
X591155Y489304D01*
X591101Y489332D01*
X591073D01*
Y490097D01*
X596487Y484465D01*
Y485176D01*
X591183Y490890D01*
Y491163D01*
Y491245D01*
Y491355D01*
Y491437D01*
Y491492D01*
X591210Y491738D01*
Y491984D01*
X591237Y492066D01*
Y492148D01*
Y492202D01*
Y492230D01*
X591265Y492585D01*
Y492913D01*
X591292Y493050D01*
Y493159D01*
Y493214D01*
Y493241D01*
X591347Y493651D01*
X591374Y494007D01*
Y494143D01*
X591401Y494253D01*
Y494308D01*
Y494335D01*
X591429Y494745D01*
X591456Y495073D01*
X591483Y495210D01*
Y495319D01*
Y495374D01*
Y495401D01*
X591511Y495756D01*
Y496030D01*
X591538Y496139D01*
Y496221D01*
Y496249D01*
Y496276D01*
X591566Y496413D01*
X591593Y496522D01*
Y496604D01*
Y496631D01*
X591620Y496796D01*
Y496823D01*
Y496850D01*
X592933D01*
Y498600D01*
X592850Y498655D01*
X592905Y498737D01*
X592960Y498819D01*
X593014Y498873D01*
X593042Y498901D01*
X593151Y499010D01*
X593206Y499065D01*
X593260Y499119D01*
X593370Y499229D01*
X593479Y499365D01*
X593589Y499475D01*
X593616Y499530D01*
X593807Y499748D01*
X593999Y499940D01*
X594135Y500076D01*
X594163Y500104D01*
X594190Y500131D01*
X594436Y500404D01*
X594655Y500623D01*
X594792Y500814D01*
X594819Y500842D01*
X594846Y500869D01*
X595092Y501143D01*
X595311Y501361D01*
X595475Y501525D01*
X595502Y501553D01*
X595530Y501580D01*
X595749Y501826D01*
X595940Y502017D01*
X596049Y502154D01*
X596104Y502209D01*
X596268Y502373D01*
X596405Y502509D01*
X596459Y502564D01*
X596487Y502592D01*
Y503275D01*
X592003Y498655D01*
X591784D01*
Y499420D01*
X591812Y499447D01*
X591866D01*
X591893Y499475D01*
X591921D01*
X592058Y499530D01*
X592167Y499557D01*
X592249Y499584D01*
X592276D01*
X592413Y499666D01*
X592522Y499721D01*
X592604Y499776D01*
X592632Y499803D01*
X592741Y499940D01*
X592768Y500076D01*
X592796Y500186D01*
Y500213D01*
X592768Y500404D01*
X592714Y500568D01*
X592632Y500678D01*
X592604Y500705D01*
X592468Y500842D01*
X592304Y500897D01*
X592194Y500924D01*
X592140D01*
X591976Y500897D01*
X591866Y500842D01*
X591784Y500787D01*
X591757Y500760D01*
X591647Y500678D01*
X591538Y500623D01*
X591456Y500596D01*
X591429D01*
X591292Y500623D01*
X591128Y500678D01*
X590991Y500705D01*
X590964Y500732D01*
X590937D01*
X590718Y500842D01*
X590499Y500951D01*
X590335Y501033D01*
X590308Y501060D01*
X590280D01*
X590034Y501197D01*
X589816Y501307D01*
X589652Y501361D01*
X589624Y501389D01*
X589597D01*
X589406Y501498D01*
X589242Y501553D01*
X589159Y501607D01*
X589132D01*
Y502209D01*
X586179D01*
Y501525D01*
X586015Y501471D01*
X585933D01*
X585797Y501416D01*
X585742Y501389D01*
X585578D01*
X585551Y501361D01*
X585469D01*
X585441Y501416D01*
X585414Y501443D01*
X585387Y501498D01*
X585359Y501525D01*
X584402D01*
Y500897D01*
X583609Y500076D01*
X582817D01*
Y499748D01*
X579317Y503275D01*
Y502592D01*
D02*
G37*
G36*
X580547Y477165D02*
X595256D01*
Y480884D01*
X580547D01*
Y477165D01*
D02*
G37*
%LPC*%
G36*
X538889Y496390D02*
X543087D01*
Y496339D01*
Y496288D01*
Y496238D01*
Y496187D01*
Y496137D01*
X543138D01*
Y496086D01*
Y496036D01*
Y495985D01*
Y495934D01*
Y495884D01*
Y495833D01*
Y495783D01*
X543188D01*
Y495732D01*
Y495681D01*
Y495631D01*
Y495580D01*
Y495530D01*
Y495479D01*
X543239D01*
Y495429D01*
Y495378D01*
Y495328D01*
Y495277D01*
Y495226D01*
Y495176D01*
Y495125D01*
X543290D01*
Y495075D01*
Y495024D01*
Y494973D01*
Y494923D01*
Y494872D01*
Y494822D01*
X543340D01*
Y494771D01*
Y494721D01*
Y494670D01*
Y494619D01*
Y494569D01*
Y494518D01*
X543391D01*
Y494468D01*
Y494417D01*
Y494366D01*
Y494316D01*
Y494265D01*
Y494215D01*
X543441D01*
Y494164D01*
Y494114D01*
Y494063D01*
Y494012D01*
Y493962D01*
Y493911D01*
X543391D01*
Y493861D01*
X543441D01*
Y493810D01*
Y493759D01*
Y493709D01*
Y493658D01*
Y493608D01*
Y493557D01*
X543492D01*
Y493507D01*
Y493456D01*
Y493405D01*
Y493355D01*
Y493304D01*
Y493254D01*
Y493203D01*
X543542D01*
Y493153D01*
Y493102D01*
Y493051D01*
Y493001D01*
Y492950D01*
Y492900D01*
X543593D01*
Y492849D01*
Y492799D01*
Y492748D01*
Y492697D01*
Y492647D01*
Y492596D01*
X543644D01*
Y492546D01*
Y492495D01*
Y492444D01*
Y492394D01*
Y492343D01*
Y492293D01*
Y492242D01*
X543694D01*
Y492192D01*
Y492141D01*
Y492090D01*
Y492040D01*
Y491989D01*
Y491939D01*
X543745D01*
Y491888D01*
Y491838D01*
Y491787D01*
Y491736D01*
Y491686D01*
Y491635D01*
Y491585D01*
X543795D01*
Y491534D01*
Y491483D01*
Y491433D01*
Y491382D01*
Y491332D01*
Y491281D01*
X543846D01*
Y491230D01*
Y491180D01*
Y491129D01*
Y491079D01*
Y491028D01*
Y490978D01*
X543896D01*
Y490927D01*
Y490876D01*
Y490826D01*
Y490775D01*
Y490725D01*
Y490674D01*
Y490624D01*
X543947D01*
Y490573D01*
Y490522D01*
Y490472D01*
Y490421D01*
Y490371D01*
Y490320D01*
X543998D01*
Y490270D01*
Y490219D01*
Y490168D01*
Y490118D01*
Y490067D01*
Y490017D01*
Y489966D01*
X544048D01*
Y489916D01*
Y489865D01*
Y489814D01*
Y489764D01*
Y489713D01*
Y489663D01*
X544099D01*
Y489612D01*
Y489561D01*
Y489511D01*
Y489460D01*
Y489410D01*
Y489359D01*
X544149D01*
Y489309D01*
Y489258D01*
Y489207D01*
Y489157D01*
Y489106D01*
Y489056D01*
Y489005D01*
X544200D01*
Y488954D01*
Y488904D01*
Y488853D01*
Y488803D01*
Y488752D01*
X544149D01*
Y488702D01*
X544200D01*
Y488651D01*
Y488600D01*
Y488550D01*
Y488499D01*
Y488449D01*
Y488398D01*
X544250D01*
Y488347D01*
Y488297D01*
Y488246D01*
Y488196D01*
Y488145D01*
Y488095D01*
Y488044D01*
X544301D01*
Y487993D01*
Y487943D01*
Y487892D01*
Y487842D01*
Y487791D01*
Y487741D01*
X544352D01*
Y487690D01*
Y487639D01*
Y487589D01*
Y487538D01*
Y487488D01*
Y487437D01*
X544402D01*
Y487387D01*
Y487336D01*
Y487285D01*
Y487235D01*
Y487184D01*
Y487134D01*
Y487083D01*
X544453D01*
Y487033D01*
Y486982D01*
Y486931D01*
Y486881D01*
Y486830D01*
Y486780D01*
X544503D01*
Y486729D01*
Y486678D01*
Y486628D01*
Y486577D01*
Y486527D01*
Y486476D01*
Y486425D01*
X544554D01*
Y486375D01*
Y486324D01*
Y486274D01*
Y486223D01*
Y486173D01*
Y486122D01*
X544605D01*
Y486173D01*
X544655D01*
Y486223D01*
Y486274D01*
X544706D01*
Y486324D01*
Y486375D01*
X544756D01*
Y486425D01*
X544706D01*
Y486476D01*
X544807D01*
Y486527D01*
Y486577D01*
Y486628D01*
X544857D01*
Y486678D01*
Y486729D01*
X544908D01*
Y486780D01*
Y486830D01*
X544959D01*
Y486881D01*
X545009D01*
Y486931D01*
Y486982D01*
X545060D01*
Y487033D01*
X545110D01*
Y487083D01*
Y487134D01*
X545161D01*
Y487184D01*
Y487235D01*
X545212D01*
Y487285D01*
Y487336D01*
X545262D01*
Y487387D01*
Y487437D01*
X545313D01*
Y487488D01*
Y487538D01*
X545363D01*
Y487589D01*
X545414D01*
Y487639D01*
X545464D01*
Y487690D01*
Y487741D01*
Y487791D01*
Y487842D01*
X545515D01*
Y487892D01*
Y487943D01*
X545616D01*
Y487993D01*
Y488044D01*
Y488095D01*
X545667D01*
Y488145D01*
Y488196D01*
X545717D01*
Y488246D01*
Y488297D01*
X545768D01*
Y488347D01*
Y488398D01*
X545819D01*
Y488449D01*
X545869D01*
Y488499D01*
X545920D01*
Y488550D01*
Y488600D01*
X545970D01*
Y488651D01*
Y488702D01*
X546021D01*
Y488752D01*
Y488803D01*
X546071D01*
Y488853D01*
Y488904D01*
X546122D01*
Y488954D01*
Y489005D01*
X546173D01*
Y489056D01*
X546223D01*
Y489106D01*
Y489157D01*
Y489207D01*
X546274D01*
Y489258D01*
Y489309D01*
X546324D01*
Y489359D01*
Y489410D01*
X546375D01*
Y489460D01*
Y489511D01*
X546425D01*
Y489561D01*
X546476D01*
Y489612D01*
Y489663D01*
X546527D01*
Y489713D01*
Y489764D01*
X546577D01*
Y489814D01*
Y489865D01*
X546628D01*
Y489916D01*
X546678D01*
Y489966D01*
Y490017D01*
X546729D01*
Y490067D01*
X546779D01*
Y490118D01*
Y490168D01*
X546830D01*
Y490219D01*
Y490270D01*
X546881D01*
Y490320D01*
Y490371D01*
X546931D01*
Y490421D01*
Y490472D01*
Y490522D01*
X546982D01*
Y490573D01*
X547032D01*
Y490624D01*
Y490674D01*
X547083D01*
Y490725D01*
Y490775D01*
X547133D01*
Y490826D01*
Y490876D01*
X547184D01*
Y490927D01*
Y490978D01*
X547235D01*
Y491028D01*
X547285D01*
Y491079D01*
Y491129D01*
X547336D01*
Y491180D01*
Y491230D01*
X547386D01*
Y491281D01*
Y491332D01*
X547437D01*
Y491382D01*
X547488D01*
Y491433D01*
Y491483D01*
X547538D01*
Y491534D01*
X547589D01*
Y491585D01*
Y491635D01*
X547639D01*
Y491686D01*
Y491736D01*
X547690D01*
Y491787D01*
X547639D01*
Y491838D01*
X547690D01*
Y491888D01*
Y491939D01*
X547741D01*
Y491989D01*
Y492040D01*
X547842D01*
Y492090D01*
Y492141D01*
X547892D01*
Y492192D01*
Y492242D01*
X547943D01*
Y492293D01*
Y492343D01*
X547993D01*
Y492394D01*
Y492444D01*
X548044D01*
Y492495D01*
Y492546D01*
X548095D01*
Y492596D01*
X548145D01*
Y492647D01*
Y492697D01*
X548196D01*
Y492748D01*
Y492799D01*
X548246D01*
Y492849D01*
X548297D01*
Y492900D01*
Y492950D01*
X548347D01*
Y493001D01*
Y493051D01*
X548398D01*
Y493102D01*
X548449D01*
Y493153D01*
X548398D01*
Y493203D01*
X548449D01*
Y493254D01*
Y493304D01*
X548499D01*
Y493355D01*
Y493405D01*
X548550D01*
Y493456D01*
Y493507D01*
X548651D01*
Y493557D01*
Y493608D01*
X548701D01*
Y493658D01*
Y493709D01*
X548752D01*
Y493759D01*
Y493810D01*
X548803D01*
Y493861D01*
Y493911D01*
X548853D01*
Y493962D01*
Y494012D01*
X548904D01*
Y494063D01*
X548954D01*
Y494114D01*
Y494164D01*
X549005D01*
Y494215D01*
Y494265D01*
X549055D01*
Y494316D01*
X549106D01*
Y494366D01*
Y494417D01*
X549157D01*
Y494468D01*
X549106D01*
Y494518D01*
X549207D01*
Y494569D01*
Y494619D01*
Y494670D01*
X549258D01*
Y494721D01*
Y494771D01*
X549308D01*
Y494822D01*
Y494872D01*
X549359D01*
Y494923D01*
Y494973D01*
X549410D01*
Y495024D01*
X549460D01*
Y495075D01*
X549511D01*
Y495125D01*
Y495176D01*
X549561D01*
Y495226D01*
Y495277D01*
X549612D01*
Y495328D01*
Y495378D01*
X549662D01*
Y495429D01*
Y495479D01*
X549713D01*
Y495530D01*
Y495580D01*
X549764D01*
Y495631D01*
X549814D01*
Y495681D01*
Y495732D01*
X549865D01*
Y495783D01*
Y495833D01*
Y495884D01*
X549915D01*
Y495934D01*
Y495985D01*
X549966D01*
Y496036D01*
Y496086D01*
X550067D01*
Y496137D01*
Y496187D01*
Y496238D01*
X550118D01*
Y496288D01*
Y496339D01*
X550168D01*
Y496390D01*
X554316D01*
Y496339D01*
Y496288D01*
Y496238D01*
Y496187D01*
X554265D01*
Y496137D01*
Y496086D01*
X554215D01*
Y496036D01*
X554164D01*
Y495985D01*
Y495934D01*
X554113D01*
Y495884D01*
Y495833D01*
X554063D01*
Y495783D01*
X554012D01*
Y495732D01*
Y495681D01*
X553962D01*
Y495631D01*
Y495580D01*
X553911D01*
Y495530D01*
X553861D01*
Y495479D01*
X553810D01*
Y495429D01*
Y495378D01*
X553759D01*
Y495328D01*
Y495277D01*
X553709D01*
Y495226D01*
Y495176D01*
X553658D01*
Y495125D01*
Y495075D01*
Y495024D01*
X553608D01*
Y494973D01*
Y494923D01*
X553507D01*
Y494872D01*
Y494822D01*
X553456D01*
Y494771D01*
Y494721D01*
X553405D01*
Y494670D01*
Y494619D01*
X553355D01*
Y494569D01*
X553304D01*
Y494518D01*
Y494468D01*
X553254D01*
Y494417D01*
Y494366D01*
X553203D01*
Y494316D01*
Y494265D01*
X553153D01*
Y494215D01*
X553102D01*
Y494164D01*
Y494114D01*
X553051D01*
Y494063D01*
X553001D01*
Y494012D01*
X552950D01*
Y493962D01*
X553001D01*
Y493911D01*
X552900D01*
Y493861D01*
X552950D01*
Y493810D01*
X552900D01*
Y493759D01*
Y493709D01*
X552798D01*
Y493658D01*
Y493608D01*
Y493557D01*
X552748D01*
Y493507D01*
Y493456D01*
X552697D01*
Y493405D01*
Y493355D01*
X552596D01*
Y493304D01*
Y493254D01*
X552545D01*
Y493203D01*
Y493153D01*
X552495D01*
Y493102D01*
Y493051D01*
X552444D01*
Y493001D01*
X552394D01*
Y492950D01*
Y492900D01*
X552343D01*
Y492849D01*
Y492799D01*
X552293D01*
Y492748D01*
X552242D01*
Y492697D01*
Y492647D01*
Y492596D01*
X552191D01*
Y492546D01*
Y492495D01*
X552141D01*
Y492444D01*
X552090D01*
Y492394D01*
Y492343D01*
X552040D01*
Y492293D01*
Y492242D01*
X551989D01*
Y492192D01*
Y492141D01*
X551938D01*
Y492090D01*
X551888D01*
Y492040D01*
Y491989D01*
X551837D01*
Y491939D01*
Y491888D01*
X551736D01*
Y491838D01*
Y491787D01*
X551686D01*
Y491736D01*
Y491686D01*
X551635D01*
Y491635D01*
Y491585D01*
X551584D01*
Y491534D01*
X551534D01*
Y491483D01*
Y491433D01*
X551483D01*
Y491382D01*
X551534D01*
Y491332D01*
X551483D01*
Y491281D01*
Y491230D01*
X551382D01*
Y491180D01*
Y491129D01*
X551332D01*
Y491079D01*
Y491028D01*
X551281D01*
Y490978D01*
X551230D01*
Y490927D01*
Y490876D01*
X551180D01*
Y490826D01*
Y490775D01*
X551129D01*
Y490725D01*
Y490674D01*
X551079D01*
Y490624D01*
X551028D01*
Y490573D01*
Y490522D01*
X550978D01*
Y490472D01*
Y490421D01*
X550927D01*
Y490371D01*
X550876D01*
Y490320D01*
X550826D01*
Y490270D01*
Y490219D01*
X550775D01*
Y490168D01*
Y490118D01*
X550725D01*
Y490067D01*
Y490017D01*
Y489966D01*
X550674D01*
Y489916D01*
Y489865D01*
X550624D01*
Y489814D01*
Y489764D01*
X550522D01*
Y489713D01*
Y489663D01*
Y489612D01*
X550472D01*
Y489561D01*
X550421D01*
Y489511D01*
Y489460D01*
X550371D01*
Y489410D01*
X550320D01*
Y489359D01*
Y489309D01*
X550269D01*
Y489258D01*
Y489207D01*
X550219D01*
Y489157D01*
X550168D01*
Y489106D01*
Y489056D01*
X550118D01*
Y489005D01*
Y488954D01*
X550067D01*
Y488904D01*
Y488853D01*
X550016D01*
Y488803D01*
Y488752D01*
X549966D01*
Y488702D01*
Y488651D01*
X549915D01*
Y488600D01*
Y488550D01*
X549865D01*
Y488499D01*
X549814D01*
Y488449D01*
Y488398D01*
X549764D01*
Y488347D01*
Y488297D01*
X549713D01*
Y488246D01*
X549662D01*
Y488196D01*
Y488145D01*
X549612D01*
Y488095D01*
X549561D01*
Y488044D01*
Y487993D01*
X549511D01*
Y487943D01*
X549460D01*
Y487892D01*
Y487842D01*
X549410D01*
Y487791D01*
Y487741D01*
X549359D01*
Y487690D01*
Y487639D01*
X549308D01*
Y487589D01*
X549258D01*
Y487538D01*
X549308D01*
Y487488D01*
X549258D01*
Y487437D01*
X549207D01*
Y487387D01*
X549157D01*
Y487336D01*
Y487285D01*
X549106D01*
Y487235D01*
Y487184D01*
X549055D01*
Y487134D01*
Y487083D01*
X549005D01*
Y487033D01*
X548954D01*
Y486982D01*
Y486931D01*
X548904D01*
Y486881D01*
Y486830D01*
X548853D01*
Y486780D01*
Y486729D01*
X548803D01*
Y486678D01*
X548752D01*
Y486628D01*
X548701D01*
Y486577D01*
Y486527D01*
X548651D01*
Y486476D01*
Y486425D01*
X548600D01*
Y486375D01*
X548550D01*
Y486324D01*
X548600D01*
Y486274D01*
X548499D01*
Y486223D01*
X548550D01*
Y486173D01*
X548449D01*
Y486122D01*
Y486071D01*
Y486021D01*
X548398D01*
Y485970D01*
Y485920D01*
X548347D01*
Y485869D01*
X548297D01*
Y485819D01*
X548246D01*
Y485768D01*
Y485717D01*
X548196D01*
Y485667D01*
Y485616D01*
X548145D01*
Y485566D01*
Y485515D01*
X548095D01*
Y485464D01*
X548044D01*
Y485414D01*
Y485363D01*
X547993D01*
Y485313D01*
Y485262D01*
X547943D01*
Y485212D01*
X547892D01*
Y485161D01*
X547842D01*
Y485111D01*
Y485060D01*
X547791D01*
Y485009D01*
X547842D01*
Y484959D01*
X547741D01*
Y484908D01*
Y484858D01*
Y484807D01*
X547690D01*
Y484756D01*
Y484706D01*
X547639D01*
Y484655D01*
Y484605D01*
X547538D01*
Y484554D01*
Y484504D01*
Y484453D01*
X547488D01*
Y484402D01*
X547437D01*
Y484352D01*
X547386D01*
Y484301D01*
Y484251D01*
X547336D01*
Y484200D01*
Y484149D01*
X547285D01*
Y484099D01*
Y484048D01*
X547235D01*
Y483998D01*
X547184D01*
Y483947D01*
Y483896D01*
X547133D01*
Y483846D01*
Y483795D01*
X547083D01*
Y483745D01*
Y483694D01*
X547032D01*
Y483644D01*
Y483593D01*
X546982D01*
Y483542D01*
Y483492D01*
X546931D01*
Y483441D01*
X546881D01*
Y483391D01*
Y483340D01*
X546830D01*
Y483290D01*
Y483239D01*
X546779D01*
Y483188D01*
Y483138D01*
X546729D01*
Y483087D01*
X546678D01*
Y483037D01*
Y482986D01*
X546628D01*
Y482935D01*
X546577D01*
Y482885D01*
Y482834D01*
X546527D01*
Y482784D01*
X546476D01*
Y482733D01*
Y482683D01*
X546425D01*
Y482632D01*
Y482582D01*
X546375D01*
Y482531D01*
X546324D01*
Y482480D01*
X546375D01*
Y482430D01*
X546324D01*
Y482379D01*
Y482329D01*
X546274D01*
Y482278D01*
Y482227D01*
X546173D01*
Y482177D01*
Y482126D01*
X546122D01*
Y482076D01*
Y482025D01*
X546071D01*
Y481975D01*
Y481924D01*
X546021D01*
Y481873D01*
X545970D01*
Y481823D01*
Y481772D01*
X545920D01*
Y481722D01*
Y481671D01*
X545869D01*
Y481621D01*
X545819D01*
Y481570D01*
Y481519D01*
X541519D01*
Y481570D01*
Y481621D01*
Y481671D01*
Y481722D01*
Y481772D01*
X541469D01*
Y481823D01*
Y481873D01*
Y481924D01*
Y481975D01*
Y482025D01*
X541418D01*
Y482076D01*
Y482126D01*
Y482177D01*
Y482227D01*
Y482278D01*
X541367D01*
Y482329D01*
Y482379D01*
Y482430D01*
Y482480D01*
Y482531D01*
X541317D01*
Y482582D01*
Y482632D01*
Y482683D01*
Y482733D01*
Y482784D01*
Y482834D01*
X541266D01*
Y482885D01*
Y482935D01*
Y482986D01*
Y483037D01*
Y483087D01*
X541216D01*
Y483138D01*
Y483188D01*
Y483239D01*
Y483290D01*
Y483340D01*
X541165D01*
Y483391D01*
Y483441D01*
Y483492D01*
Y483542D01*
Y483593D01*
Y483644D01*
X541115D01*
Y483694D01*
Y483745D01*
Y483795D01*
Y483846D01*
X541064D01*
Y483896D01*
Y483947D01*
Y483998D01*
Y484048D01*
Y484099D01*
X541115D01*
Y484149D01*
X541013D01*
Y484200D01*
Y484251D01*
Y484301D01*
Y484352D01*
Y484402D01*
Y484453D01*
Y484504D01*
Y484554D01*
Y484605D01*
Y484655D01*
X540963D01*
Y484706D01*
Y484756D01*
Y484807D01*
Y484858D01*
Y484908D01*
Y484959D01*
X540912D01*
Y485009D01*
Y485060D01*
Y485111D01*
Y485161D01*
Y485212D01*
X540862D01*
Y485262D01*
Y485313D01*
Y485363D01*
Y485414D01*
Y485464D01*
X540811D01*
Y485515D01*
Y485566D01*
Y485616D01*
Y485667D01*
Y485717D01*
Y485768D01*
X540761D01*
Y485819D01*
Y485869D01*
Y485920D01*
Y485970D01*
X540710D01*
Y486021D01*
Y486071D01*
Y486122D01*
Y486173D01*
Y486223D01*
Y486274D01*
X540659D01*
Y486324D01*
Y486375D01*
Y486425D01*
Y486476D01*
Y486527D01*
X540609D01*
Y486577D01*
Y486628D01*
Y486678D01*
Y486729D01*
Y486780D01*
X540558D01*
Y486830D01*
Y486881D01*
Y486931D01*
Y486982D01*
Y487033D01*
Y487083D01*
X540508D01*
Y487134D01*
Y487184D01*
Y487235D01*
Y487285D01*
Y487336D01*
X540457D01*
Y487387D01*
Y487437D01*
Y487488D01*
Y487538D01*
Y487589D01*
X540407D01*
Y487639D01*
Y487690D01*
Y487741D01*
Y487791D01*
Y487842D01*
X540356D01*
Y487892D01*
Y487943D01*
Y487993D01*
Y488044D01*
Y488095D01*
Y488145D01*
X540305D01*
Y488196D01*
Y488246D01*
Y488297D01*
Y488347D01*
X540356D01*
Y488398D01*
X540305D01*
Y488449D01*
Y488499D01*
Y488550D01*
Y488600D01*
Y488651D01*
X540255D01*
Y488702D01*
Y488752D01*
Y488803D01*
Y488853D01*
Y488904D01*
X540204D01*
Y488954D01*
Y489005D01*
Y489056D01*
Y489106D01*
Y489157D01*
X540154D01*
Y489207D01*
Y489258D01*
Y489309D01*
Y489359D01*
Y489410D01*
Y489460D01*
X540103D01*
Y489511D01*
Y489561D01*
Y489612D01*
Y489663D01*
Y489713D01*
X540052D01*
Y489764D01*
Y489814D01*
Y489865D01*
Y489916D01*
Y489966D01*
X540002D01*
Y490017D01*
Y490067D01*
Y490118D01*
Y490168D01*
Y490219D01*
Y490270D01*
X539951D01*
Y490320D01*
Y490371D01*
Y490421D01*
Y490472D01*
X539901D01*
Y490522D01*
Y490573D01*
Y490624D01*
Y490674D01*
Y490725D01*
Y490775D01*
X539850D01*
Y490826D01*
Y490876D01*
Y490927D01*
Y490978D01*
Y491028D01*
Y491079D01*
X539799D01*
Y491129D01*
Y491180D01*
Y491230D01*
Y491281D01*
X539749D01*
Y491332D01*
Y491382D01*
Y491433D01*
Y491483D01*
Y491534D01*
Y491585D01*
X539698D01*
Y491635D01*
Y491686D01*
Y491736D01*
Y491787D01*
Y491838D01*
X539648D01*
Y491888D01*
Y491939D01*
Y491989D01*
Y492040D01*
Y492090D01*
X539597D01*
Y492141D01*
Y492192D01*
Y492242D01*
Y492293D01*
Y492343D01*
X539648D01*
Y492394D01*
X539547D01*
Y492444D01*
Y492495D01*
Y492546D01*
X539597D01*
Y492596D01*
X539547D01*
Y492647D01*
Y492697D01*
Y492748D01*
Y492799D01*
Y492849D01*
Y492900D01*
X539496D01*
Y492950D01*
Y493001D01*
Y493051D01*
Y493102D01*
Y493153D01*
X539445D01*
Y493203D01*
Y493254D01*
Y493304D01*
Y493355D01*
Y493405D01*
X539395D01*
Y493456D01*
Y493507D01*
Y493557D01*
Y493608D01*
Y493658D01*
Y493709D01*
X539344D01*
Y493759D01*
Y493810D01*
Y493861D01*
Y493911D01*
Y493962D01*
X539294D01*
Y494012D01*
Y494063D01*
Y494114D01*
Y494164D01*
Y494215D01*
X539243D01*
Y494265D01*
Y494316D01*
Y494366D01*
Y494417D01*
Y494468D01*
X539193D01*
Y494518D01*
Y494569D01*
Y494619D01*
Y494670D01*
Y494721D01*
Y494771D01*
X539142D01*
Y494822D01*
Y494872D01*
Y494923D01*
Y494973D01*
Y495024D01*
X539091D01*
Y495075D01*
Y495125D01*
Y495176D01*
Y495226D01*
Y495277D01*
X539041D01*
Y495328D01*
Y495378D01*
Y495429D01*
Y495479D01*
Y495530D01*
Y495580D01*
X538990D01*
Y495631D01*
Y495681D01*
Y495732D01*
Y495783D01*
X538940D01*
Y495833D01*
Y495884D01*
Y495934D01*
Y495985D01*
Y496036D01*
Y496086D01*
X538889D01*
Y496137D01*
Y496187D01*
Y496238D01*
Y496288D01*
Y496339D01*
Y496390D01*
D02*
G37*
G36*
X555327D02*
X564533D01*
Y496339D01*
X565190D01*
Y496288D01*
X565494D01*
Y496238D01*
X565747D01*
Y496187D01*
X565949D01*
Y496137D01*
X566050D01*
Y496086D01*
X566202D01*
Y496036D01*
X566303D01*
Y495985D01*
X566455D01*
Y495934D01*
X566556D01*
Y495884D01*
X566657D01*
Y495833D01*
X566708D01*
Y495783D01*
X566809D01*
Y495732D01*
X566910D01*
Y495681D01*
X566961D01*
Y495631D01*
X567011D01*
Y495580D01*
X567062D01*
Y495530D01*
X567112D01*
Y495479D01*
X567163D01*
Y495429D01*
X567213D01*
Y495378D01*
X567264D01*
Y495328D01*
X567315D01*
Y495277D01*
Y495226D01*
X567365D01*
Y495176D01*
X567416D01*
Y495125D01*
Y495075D01*
X567466D01*
Y495024D01*
X567517D01*
Y494973D01*
Y494923D01*
X567567D01*
Y494872D01*
Y494822D01*
X567618D01*
Y494771D01*
Y494721D01*
Y494670D01*
X567669D01*
Y494619D01*
Y494569D01*
X567618D01*
Y494518D01*
X567669D01*
Y494468D01*
Y494417D01*
Y494366D01*
Y494316D01*
X567719D01*
Y494265D01*
Y494215D01*
Y494164D01*
Y494114D01*
Y494063D01*
Y494012D01*
X567770D01*
Y493962D01*
Y493911D01*
Y493861D01*
Y493810D01*
Y493759D01*
Y493709D01*
Y493658D01*
Y493608D01*
Y493557D01*
Y493507D01*
Y493456D01*
Y493405D01*
Y493355D01*
Y493304D01*
Y493254D01*
Y493203D01*
Y493153D01*
Y493102D01*
Y493051D01*
X567719D01*
Y493001D01*
Y492950D01*
Y492900D01*
Y492849D01*
Y492799D01*
Y492748D01*
Y492697D01*
Y492647D01*
Y492596D01*
X567669D01*
Y492546D01*
Y492495D01*
Y492444D01*
Y492394D01*
Y492343D01*
Y492293D01*
X567618D01*
Y492242D01*
X567669D01*
Y492192D01*
Y492141D01*
Y492090D01*
Y492040D01*
X567618D01*
Y491989D01*
Y491939D01*
Y491888D01*
Y491838D01*
X567567D01*
Y491787D01*
Y491736D01*
Y491686D01*
Y491635D01*
Y491585D01*
X567517D01*
Y491534D01*
Y491483D01*
Y491433D01*
Y491382D01*
Y491332D01*
X567466D01*
Y491281D01*
Y491230D01*
Y491180D01*
Y491129D01*
X567416D01*
Y491079D01*
Y491028D01*
Y490978D01*
Y490927D01*
Y490876D01*
X567365D01*
Y490826D01*
Y490775D01*
Y490725D01*
Y490674D01*
Y490624D01*
X567315D01*
Y490573D01*
Y490522D01*
Y490472D01*
Y490421D01*
Y490371D01*
X567264D01*
Y490320D01*
Y490270D01*
Y490219D01*
Y490168D01*
X567213D01*
Y490118D01*
Y490067D01*
Y490017D01*
Y489966D01*
X567163D01*
Y489916D01*
Y489865D01*
Y489814D01*
Y489764D01*
Y489713D01*
X567112D01*
Y489663D01*
Y489612D01*
X567062D01*
Y489561D01*
Y489511D01*
Y489460D01*
Y489410D01*
X567011D01*
Y489359D01*
Y489309D01*
Y489258D01*
X566961D01*
Y489207D01*
Y489157D01*
Y489106D01*
X566910D01*
Y489056D01*
X566961D01*
Y489005D01*
X566910D01*
Y488954D01*
Y488904D01*
Y488853D01*
X566859D01*
Y488803D01*
Y488752D01*
Y488702D01*
X566809D01*
Y488651D01*
Y488600D01*
X566758D01*
Y488550D01*
Y488499D01*
X566708D01*
Y488449D01*
Y488398D01*
X566657D01*
Y488347D01*
Y488297D01*
Y488246D01*
X566556D01*
Y488196D01*
Y488145D01*
X566505D01*
Y488095D01*
Y488044D01*
X566455D01*
Y487993D01*
Y487943D01*
X566404D01*
Y487892D01*
X566354D01*
Y487842D01*
Y487791D01*
X566303D01*
Y487741D01*
Y487690D01*
X566253D01*
Y487639D01*
X566202D01*
Y487589D01*
X566151D01*
Y487538D01*
X566202D01*
Y487488D01*
X566101D01*
Y487437D01*
X566050D01*
Y487387D01*
X566000D01*
Y487336D01*
Y487285D01*
X565949D01*
Y487235D01*
X565898D01*
Y487184D01*
X565848D01*
Y487134D01*
X565797D01*
Y487083D01*
X565747D01*
Y487033D01*
X565696D01*
Y486982D01*
X565595D01*
Y486931D01*
X565544D01*
Y486881D01*
X565494D01*
Y486830D01*
X565443D01*
Y486780D01*
X565342D01*
Y486729D01*
X565292D01*
Y486678D01*
X565190D01*
Y486628D01*
X565089D01*
Y486577D01*
X564988D01*
Y486527D01*
X564887D01*
Y486476D01*
X564786D01*
Y486425D01*
X564684D01*
Y486375D01*
X564533D01*
Y486324D01*
X564482D01*
Y486274D01*
X564330D01*
Y486223D01*
X564128D01*
Y486173D01*
X564027D01*
Y486122D01*
X564078D01*
Y486071D01*
Y486021D01*
X564128D01*
Y485970D01*
Y485920D01*
Y485869D01*
X564179D01*
Y485819D01*
Y485768D01*
Y485717D01*
X564229D01*
Y485667D01*
Y485616D01*
Y485566D01*
X564280D01*
Y485515D01*
Y485464D01*
X564330D01*
Y485414D01*
Y485363D01*
X564381D01*
Y485313D01*
Y485262D01*
Y485212D01*
X564432D01*
Y485161D01*
Y485111D01*
X564482D01*
Y485060D01*
Y485009D01*
Y484959D01*
X564533D01*
Y484908D01*
Y484858D01*
Y484807D01*
X564583D01*
Y484756D01*
Y484706D01*
Y484655D01*
X564634D01*
Y484605D01*
X564684D01*
Y484554D01*
Y484504D01*
Y484453D01*
X564735D01*
Y484402D01*
Y484352D01*
X564684D01*
Y484301D01*
X564735D01*
Y484251D01*
Y484200D01*
X564786D01*
Y484149D01*
Y484099D01*
Y484048D01*
X564836D01*
Y483998D01*
Y483947D01*
X564887D01*
Y483896D01*
Y483846D01*
Y483795D01*
X564937D01*
Y483745D01*
Y483694D01*
X564988D01*
Y483644D01*
Y483593D01*
Y483542D01*
X565039D01*
Y483492D01*
Y483441D01*
Y483391D01*
X565089D01*
Y483340D01*
Y483290D01*
X565140D01*
Y483239D01*
Y483188D01*
X565190D01*
Y483138D01*
Y483087D01*
Y483037D01*
X565241D01*
Y482986D01*
Y482935D01*
Y482885D01*
X565292D01*
Y482834D01*
Y482784D01*
X565342D01*
Y482733D01*
Y482683D01*
Y482632D01*
X565393D01*
Y482582D01*
Y482531D01*
Y482480D01*
X565443D01*
Y482430D01*
Y482379D01*
Y482329D01*
Y482278D01*
X565494D01*
Y482227D01*
Y482177D01*
Y482126D01*
X565544D01*
Y482076D01*
Y482025D01*
Y481975D01*
X565595D01*
Y481924D01*
Y481873D01*
X565646D01*
Y481823D01*
Y481772D01*
Y481722D01*
X565696D01*
Y481671D01*
Y481621D01*
Y481570D01*
Y481519D01*
X561549D01*
Y481570D01*
Y481621D01*
Y481671D01*
X561498D01*
Y481722D01*
Y481772D01*
Y481823D01*
X561447D01*
Y481873D01*
Y481924D01*
Y481975D01*
X561397D01*
Y482025D01*
Y482076D01*
Y482126D01*
X561346D01*
Y482177D01*
Y482227D01*
X561296D01*
Y482278D01*
Y482329D01*
X561245D01*
Y482379D01*
Y482430D01*
Y482480D01*
X561195D01*
Y482531D01*
Y482582D01*
Y482632D01*
X561144D01*
Y482683D01*
Y482733D01*
Y482784D01*
X561093D01*
Y482834D01*
Y482885D01*
Y482935D01*
X561043D01*
Y482986D01*
Y483037D01*
X560992D01*
Y483087D01*
Y483138D01*
Y483188D01*
X560942D01*
Y483239D01*
Y483290D01*
X560891D01*
Y483340D01*
Y483391D01*
X560942D01*
Y483441D01*
X560841D01*
Y483492D01*
Y483542D01*
X560891D01*
Y483593D01*
X560841D01*
Y483644D01*
Y483694D01*
X560790D01*
Y483745D01*
Y483795D01*
Y483846D01*
X560739D01*
Y483896D01*
Y483947D01*
Y483998D01*
X560689D01*
Y484048D01*
Y484099D01*
Y484149D01*
X560638D01*
Y484200D01*
Y484251D01*
Y484301D01*
X560588D01*
Y484352D01*
Y484402D01*
X560537D01*
Y484453D01*
Y484504D01*
X560486D01*
Y484554D01*
Y484605D01*
Y484655D01*
X560436D01*
Y484706D01*
Y484756D01*
Y484807D01*
X560385D01*
Y484858D01*
Y484908D01*
Y484959D01*
X560335D01*
Y485009D01*
Y485060D01*
Y485111D01*
X560284D01*
Y485161D01*
Y485212D01*
X560233D01*
Y485262D01*
Y485313D01*
Y485363D01*
X560183D01*
Y485414D01*
Y485464D01*
X560132D01*
Y485515D01*
Y485566D01*
X560183D01*
Y485616D01*
X560132D01*
Y485667D01*
Y485717D01*
Y485768D01*
X560082D01*
Y485819D01*
Y485869D01*
Y485920D01*
X557148D01*
Y485869D01*
X557098D01*
Y485819D01*
Y485768D01*
Y485717D01*
Y485667D01*
Y485616D01*
X557047D01*
Y485566D01*
Y485515D01*
Y485464D01*
Y485414D01*
Y485363D01*
X556996D01*
Y485313D01*
Y485262D01*
Y485212D01*
Y485161D01*
X556946D01*
Y485111D01*
Y485060D01*
Y485009D01*
Y484959D01*
Y484908D01*
X556895D01*
Y484858D01*
Y484807D01*
Y484756D01*
Y484706D01*
Y484655D01*
X556845D01*
Y484605D01*
Y484554D01*
Y484504D01*
Y484453D01*
X556794D01*
Y484402D01*
Y484352D01*
Y484301D01*
Y484251D01*
Y484200D01*
X556744D01*
Y484149D01*
Y484099D01*
Y484048D01*
Y483998D01*
Y483947D01*
X556693D01*
Y483896D01*
Y483846D01*
Y483795D01*
Y483745D01*
Y483694D01*
X556642D01*
Y483644D01*
X556693D01*
Y483593D01*
Y483542D01*
Y483492D01*
X556592D01*
Y483441D01*
X556642D01*
Y483391D01*
Y483340D01*
Y483290D01*
Y483239D01*
X556592D01*
Y483188D01*
Y483138D01*
Y483087D01*
Y483037D01*
Y482986D01*
X556541D01*
Y482935D01*
Y482885D01*
Y482834D01*
Y482784D01*
X556491D01*
Y482733D01*
Y482683D01*
Y482632D01*
Y482582D01*
Y482531D01*
X556440D01*
Y482480D01*
Y482430D01*
Y482379D01*
Y482329D01*
Y482278D01*
X556390D01*
Y482227D01*
Y482177D01*
Y482126D01*
Y482076D01*
X556339D01*
Y482025D01*
Y481975D01*
Y481924D01*
Y481873D01*
Y481823D01*
X556288D01*
Y481772D01*
Y481722D01*
Y481671D01*
Y481621D01*
Y481570D01*
X556238D01*
Y481519D01*
X552394D01*
Y481570D01*
Y481621D01*
Y481671D01*
Y481722D01*
X552444D01*
Y481772D01*
Y481823D01*
Y481873D01*
Y481924D01*
Y481975D01*
X552495D01*
Y482025D01*
Y482076D01*
Y482126D01*
Y482177D01*
Y482227D01*
X552545D01*
Y482278D01*
Y482329D01*
Y482379D01*
Y482430D01*
Y482480D01*
X552596D01*
Y482531D01*
Y482582D01*
Y482632D01*
Y482683D01*
X552647D01*
Y482733D01*
Y482784D01*
Y482834D01*
Y482885D01*
Y482935D01*
X552697D01*
Y482986D01*
Y483037D01*
Y483087D01*
Y483138D01*
Y483188D01*
X552748D01*
Y483239D01*
Y483290D01*
Y483340D01*
Y483391D01*
X552798D01*
Y483441D01*
X552748D01*
Y483492D01*
Y483542D01*
Y483593D01*
X552798D01*
Y483644D01*
X552849D01*
Y483694D01*
X552798D01*
Y483745D01*
Y483795D01*
Y483846D01*
Y483896D01*
X552849D01*
Y483947D01*
Y483998D01*
Y484048D01*
Y484099D01*
X552900D01*
Y484149D01*
Y484200D01*
Y484251D01*
Y484301D01*
Y484352D01*
X552950D01*
Y484402D01*
Y484453D01*
Y484504D01*
Y484554D01*
Y484605D01*
X553001D01*
Y484655D01*
Y484706D01*
Y484756D01*
Y484807D01*
X553051D01*
Y484858D01*
Y484908D01*
Y484959D01*
Y485009D01*
Y485060D01*
X553102D01*
Y485111D01*
Y485161D01*
Y485212D01*
Y485262D01*
Y485313D01*
X553153D01*
Y485363D01*
Y485414D01*
Y485464D01*
Y485515D01*
X553203D01*
Y485566D01*
Y485616D01*
Y485667D01*
Y485717D01*
Y485768D01*
X553254D01*
Y485819D01*
Y485869D01*
Y485920D01*
Y485970D01*
Y486021D01*
X553304D01*
Y486071D01*
Y486122D01*
Y486173D01*
Y486223D01*
X553355D01*
Y486274D01*
Y486324D01*
Y486375D01*
Y486425D01*
Y486476D01*
X553405D01*
Y486527D01*
Y486577D01*
Y486628D01*
Y486678D01*
Y486729D01*
X553456D01*
Y486780D01*
Y486830D01*
Y486881D01*
Y486931D01*
X553507D01*
Y486982D01*
Y487033D01*
Y487083D01*
Y487134D01*
Y487184D01*
X553557D01*
Y487235D01*
X553507D01*
Y487285D01*
Y487336D01*
Y487387D01*
Y487437D01*
X553557D01*
Y487488D01*
Y487538D01*
Y487589D01*
Y487639D01*
X553608D01*
Y487690D01*
Y487741D01*
Y487791D01*
Y487842D01*
Y487892D01*
X553658D01*
Y487943D01*
Y487993D01*
Y488044D01*
Y488095D01*
Y488145D01*
X553709D01*
Y488196D01*
Y488246D01*
Y488297D01*
Y488347D01*
X553759D01*
Y488398D01*
Y488449D01*
Y488499D01*
Y488550D01*
Y488600D01*
X553810D01*
Y488651D01*
Y488702D01*
Y488752D01*
Y488803D01*
Y488853D01*
X553861D01*
Y488904D01*
Y488954D01*
Y489005D01*
Y489056D01*
Y489106D01*
X553911D01*
Y489157D01*
Y489207D01*
Y489258D01*
Y489309D01*
X553962D01*
Y489359D01*
Y489410D01*
Y489460D01*
Y489511D01*
Y489561D01*
X554012D01*
Y489612D01*
Y489663D01*
Y489713D01*
Y489764D01*
Y489814D01*
X554063D01*
Y489865D01*
Y489916D01*
Y489966D01*
Y490017D01*
X554113D01*
Y490067D01*
Y490118D01*
Y490168D01*
Y490219D01*
Y490270D01*
X554164D01*
Y490320D01*
Y490371D01*
Y490421D01*
Y490472D01*
Y490522D01*
X554215D01*
Y490573D01*
Y490624D01*
Y490674D01*
Y490725D01*
X554265D01*
Y490775D01*
X554215D01*
Y490826D01*
Y490876D01*
Y490927D01*
X554265D01*
Y490978D01*
X554316D01*
Y491028D01*
X554265D01*
Y491079D01*
Y491129D01*
Y491180D01*
Y491230D01*
X554316D01*
Y491281D01*
Y491332D01*
Y491382D01*
Y491433D01*
X554366D01*
Y491483D01*
Y491534D01*
Y491585D01*
Y491635D01*
Y491686D01*
X554417D01*
Y491736D01*
Y491787D01*
Y491838D01*
Y491888D01*
Y491939D01*
X554467D01*
Y491989D01*
Y492040D01*
Y492090D01*
Y492141D01*
X554518D01*
Y492192D01*
Y492242D01*
Y492293D01*
Y492343D01*
Y492394D01*
X554569D01*
Y492444D01*
Y492495D01*
Y492546D01*
Y492596D01*
Y492647D01*
X554619D01*
Y492697D01*
Y492748D01*
Y492799D01*
Y492849D01*
X554670D01*
Y492900D01*
Y492950D01*
Y493001D01*
Y493051D01*
Y493102D01*
X554720D01*
Y493153D01*
Y493203D01*
Y493254D01*
Y493304D01*
Y493355D01*
X554771D01*
Y493405D01*
Y493456D01*
Y493507D01*
Y493557D01*
X554822D01*
Y493608D01*
Y493658D01*
Y493709D01*
Y493759D01*
Y493810D01*
X554872D01*
Y493861D01*
Y493911D01*
Y493962D01*
Y494012D01*
Y494063D01*
X554923D01*
Y494114D01*
Y494164D01*
Y494215D01*
Y494265D01*
Y494316D01*
X554973D01*
Y494366D01*
Y494417D01*
Y494468D01*
Y494518D01*
X555024D01*
Y494569D01*
X554973D01*
Y494619D01*
Y494670D01*
Y494721D01*
Y494771D01*
X555024D01*
Y494822D01*
Y494872D01*
Y494923D01*
Y494973D01*
X555075D01*
Y495024D01*
Y495075D01*
Y495125D01*
Y495176D01*
Y495226D01*
X555125D01*
Y495277D01*
Y495328D01*
Y495378D01*
Y495429D01*
Y495479D01*
X555176D01*
Y495530D01*
Y495580D01*
Y495631D01*
Y495681D01*
Y495732D01*
X555226D01*
Y495783D01*
Y495833D01*
Y495884D01*
Y495934D01*
X555277D01*
Y495985D01*
Y496036D01*
Y496086D01*
Y496137D01*
Y496187D01*
X555327D01*
Y496238D01*
Y496288D01*
Y496339D01*
Y496390D01*
D02*
G37*
%LPD*%
G36*
X558615Y493254D02*
Y493203D01*
X558564D01*
Y493153D01*
Y493102D01*
Y493051D01*
Y493001D01*
Y492950D01*
X558514D01*
Y492900D01*
Y492849D01*
Y492799D01*
Y492748D01*
Y492697D01*
X558463D01*
Y492647D01*
Y492596D01*
Y492546D01*
Y492495D01*
X558413D01*
Y492444D01*
Y492394D01*
Y492343D01*
Y492293D01*
Y492242D01*
X558362D01*
Y492192D01*
Y492141D01*
Y492090D01*
Y492040D01*
Y491989D01*
X558312D01*
Y491939D01*
Y491888D01*
Y491838D01*
Y491787D01*
X558261D01*
Y491736D01*
Y491686D01*
Y491635D01*
Y491585D01*
Y491534D01*
X558210D01*
Y491483D01*
Y491433D01*
Y491382D01*
Y491332D01*
Y491281D01*
X558160D01*
Y491230D01*
Y491180D01*
Y491129D01*
Y491079D01*
X558109D01*
Y491028D01*
Y490978D01*
X558160D01*
Y490927D01*
Y490876D01*
Y490826D01*
X558059D01*
Y490775D01*
X558109D01*
Y490725D01*
Y490674D01*
Y490624D01*
Y490573D01*
X558059D01*
Y490522D01*
Y490472D01*
Y490421D01*
Y490371D01*
X558008D01*
Y490320D01*
Y490270D01*
Y490219D01*
Y490168D01*
Y490118D01*
X557958D01*
Y490067D01*
Y490017D01*
Y489966D01*
Y489916D01*
Y489865D01*
X557907D01*
Y489814D01*
Y489764D01*
Y489713D01*
Y489663D01*
Y489612D01*
X557856D01*
Y489561D01*
Y489511D01*
Y489460D01*
Y489410D01*
X557806D01*
Y489359D01*
Y489309D01*
Y489258D01*
Y489207D01*
Y489157D01*
X557755D01*
Y489106D01*
Y489056D01*
Y489005D01*
X562257D01*
Y489056D01*
X562459D01*
Y489106D01*
X562661D01*
Y489157D01*
X562762D01*
Y489207D01*
X562813D01*
Y489258D01*
X562914D01*
Y489309D01*
X562965D01*
Y489359D01*
X563015D01*
Y489410D01*
X563066D01*
Y489460D01*
Y489511D01*
X563117D01*
Y489561D01*
Y489612D01*
Y489663D01*
X563218D01*
Y489713D01*
Y489764D01*
Y489814D01*
Y489865D01*
X563268D01*
Y489916D01*
X563319D01*
Y489966D01*
Y490017D01*
Y490067D01*
X563369D01*
Y490118D01*
Y490168D01*
Y490219D01*
Y490270D01*
Y490320D01*
X563420D01*
Y490371D01*
Y490421D01*
Y490472D01*
Y490522D01*
Y490573D01*
X563471D01*
Y490624D01*
Y490674D01*
Y490725D01*
Y490775D01*
X563521D01*
Y490826D01*
Y490876D01*
Y490927D01*
Y490978D01*
Y491028D01*
X563572D01*
Y491079D01*
Y491129D01*
Y491180D01*
Y491230D01*
Y491281D01*
X563622D01*
Y491332D01*
Y491382D01*
Y491433D01*
Y491483D01*
X563673D01*
Y491534D01*
Y491585D01*
Y491635D01*
Y491686D01*
Y491736D01*
X563724D01*
Y491787D01*
Y491838D01*
Y491888D01*
Y491939D01*
Y491989D01*
X563774D01*
Y492040D01*
Y492090D01*
Y492141D01*
Y492192D01*
X563825D01*
Y492242D01*
X563774D01*
Y492293D01*
Y492343D01*
Y492394D01*
Y492444D01*
Y492495D01*
Y492546D01*
Y492596D01*
Y492647D01*
X563825D01*
Y492697D01*
X563774D01*
Y492748D01*
Y492799D01*
Y492849D01*
X563724D01*
Y492900D01*
Y492950D01*
X563673D01*
Y493001D01*
Y493051D01*
X563622D01*
Y493102D01*
X563572D01*
Y493153D01*
X563471D01*
Y493203D01*
X563369D01*
Y493254D01*
X563268D01*
Y493304D01*
X558615D01*
Y493254D01*
D02*
G37*
%LPC*%
G36*
X587300Y501717D02*
X588066D01*
X588175Y501689D01*
X588531D01*
X588585Y501662D01*
X588613D01*
X588585Y501635D01*
X586754D01*
X586699Y501662D01*
X586808Y501689D01*
X587082D01*
X587300Y501717D01*
D02*
G37*
G36*
X587492Y501143D02*
X588476D01*
X588558Y501115D01*
X588585Y501088D01*
X588640Y501033D01*
Y501006D01*
Y500979D01*
X586699D01*
Y501060D01*
X586863Y501088D01*
X587082D01*
X587191Y501115D01*
X587382D01*
X587492Y501143D01*
D02*
G37*
G36*
X589132Y501006D02*
X589214D01*
X589269Y500979D01*
X589378D01*
X589706Y500924D01*
X590007Y500814D01*
X590116Y500787D01*
X590226Y500732D01*
X590280Y500705D01*
X590308D01*
X590636Y500514D01*
X590882Y500350D01*
X591019Y500186D01*
X591073Y500158D01*
Y500131D01*
X585469D01*
Y500732D01*
X585496Y500760D01*
X585523Y500787D01*
X585551Y500814D01*
X585578D01*
X585742Y500869D01*
X585769Y500897D01*
X585797D01*
X585961Y500924D01*
X586015Y500951D01*
X586043D01*
X586125Y500979D01*
X586179D01*
Y500514D01*
X589132D01*
Y501006D01*
D02*
G37*
G36*
X584348Y500213D02*
X584402D01*
X584430Y500186D01*
Y500158D01*
Y500131D01*
Y500076D01*
X584402Y500049D01*
X584375D01*
X584348Y500076D01*
X584320Y500104D01*
Y500131D01*
Y500186D01*
X584348Y500213D01*
D02*
G37*
G36*
X582899Y499584D02*
X583528D01*
Y498901D01*
X583391Y499010D01*
X583281Y499119D01*
X583199Y499201D01*
X583172Y499229D01*
X583063Y499365D01*
X582981Y499475D01*
X582926Y499557D01*
X582899Y499584D01*
D02*
G37*
G36*
X592222Y498026D02*
X592386D01*
Y497342D01*
X591620D01*
X591675Y497452D01*
X591729Y497479D01*
Y497506D01*
X591866Y497670D01*
X591893Y497698D01*
X591921Y497725D01*
X592058Y497889D01*
X592112Y497916D01*
Y497944D01*
X592167Y497998D01*
X592222Y498026D01*
D02*
G37*
G36*
X584074Y499584D02*
X591265D01*
Y499420D01*
X591292Y499283D01*
Y499174D01*
Y499119D01*
X591319Y498928D01*
Y498737D01*
Y498600D01*
Y498573D01*
Y498545D01*
Y498354D01*
X591292Y498190D01*
X591265Y498080D01*
Y498026D01*
X591210Y497889D01*
X591155Y497780D01*
X591101Y497698D01*
X591073Y497670D01*
X589898Y496495D01*
Y496877D01*
X586699D01*
Y495866D01*
X589324D01*
X587875Y494308D01*
X584211Y498190D01*
X584102Y498381D01*
X584047Y498463D01*
Y498490D01*
X584020Y498627D01*
Y498737D01*
Y498819D01*
Y498846D01*
Y498983D01*
X584047Y499119D01*
Y499201D01*
Y499229D01*
X584074Y499365D01*
Y499475D01*
Y499557D01*
Y499584D01*
D02*
G37*
G36*
X591019Y496741D02*
Y496385D01*
Y496030D01*
X590991Y495811D01*
Y495592D01*
X590964Y495429D01*
Y495374D01*
Y495346D01*
X590937Y495046D01*
X590909Y494745D01*
Y494636D01*
X590882Y494554D01*
Y494499D01*
Y494472D01*
X590855Y494143D01*
Y493870D01*
X590827Y493733D01*
Y493651D01*
Y493597D01*
Y493569D01*
X590800Y493269D01*
Y492995D01*
X590773Y492886D01*
Y492804D01*
Y492776D01*
Y492749D01*
X590745Y492503D01*
Y492312D01*
X590718Y492202D01*
Y492148D01*
Y492011D01*
Y491929D01*
Y491874D01*
X590609Y491409D01*
X588312Y493870D01*
X591019Y496741D01*
D02*
G37*
G36*
X584238Y497260D02*
X587465Y493870D01*
X584758Y491027D01*
X584238Y497260D01*
D02*
G37*
G36*
X587875Y493460D02*
X590554Y490644D01*
Y490289D01*
X590526Y489988D01*
X590472Y489742D01*
X590390Y489605D01*
X590363Y489550D01*
X590226Y489359D01*
X590062Y489222D01*
X589980Y489113D01*
X589925Y489058D01*
X589734Y488894D01*
X589597Y488730D01*
X589488Y488593D01*
X589433Y488566D01*
Y488539D01*
X589269Y488293D01*
X589159Y488047D01*
X589132Y487937D01*
X589105Y487855D01*
X589078Y487801D01*
Y487773D01*
X585058D01*
X585031Y487910D01*
Y487937D01*
Y487965D01*
Y488156D01*
X585004Y488211D01*
Y488238D01*
Y488320D01*
Y488402D01*
X584976Y488511D01*
Y488539D01*
X584949Y488730D01*
Y488894D01*
X584922Y489031D01*
Y489086D01*
X584895Y489304D01*
Y489496D01*
X584867Y489605D01*
Y489660D01*
Y489851D01*
Y489988D01*
X584840Y490070D01*
Y490097D01*
Y490179D01*
Y490261D01*
X587875Y493460D01*
D02*
G37*
%LPD*%
D10*
X464553Y450394D02*
G03*
X464553Y450394I492J0D01*
G01*
D11*
X593294Y452756D02*
Y457874D01*
Y444488D02*
X593097D01*
X599986Y452756D02*
Y457874D01*
X600183Y444488D02*
X599986D01*
X593097D02*
Y457874D01*
X600183Y444488D02*
Y457874D01*
X472230Y449213D02*
X468687D01*
X472230Y446063D02*
Y449213D01*
Y437402D02*
X468687D01*
X472230D02*
Y440551D01*
D12*
X478530Y475984D02*
X472329D01*
Y468110D02*
Y475984D01*
X478333Y468110D02*
X472329D01*
X487093Y475984D02*
X481089D01*
X487093Y468110D02*
Y475984D01*
Y468110D02*
X480892D01*
X462209Y458326D02*
X464833D01*
X463521D01*
Y454390D01*
X466145Y458326D02*
Y455702D01*
X467457Y454390D01*
X468769Y455702D01*
Y458326D01*
X472705Y457670D02*
X472049Y458326D01*
X470737D01*
X470081Y457670D01*
Y457014D01*
X470737Y456358D01*
X472049D01*
X472705Y455702D01*
Y455047D01*
X472049Y454390D01*
X470737D01*
X470081Y455047D01*
X474017Y454390D02*
X475328D01*
X474673D01*
Y458326D01*
X474017Y457670D01*
X595665Y467151D02*
X595009Y467807D01*
X593698D01*
X593042Y467151D01*
Y464528D01*
X593698Y463872D01*
X595009D01*
X595665Y464528D01*
X599601Y463872D02*
X596977D01*
X599601Y466496D01*
Y467151D01*
X598945Y467807D01*
X597633D01*
X596977Y467151D01*
X480082Y479525D02*
Y483461D01*
X482050D01*
X482705Y482805D01*
Y481493D01*
X482050Y480837D01*
X480082D01*
X481394D02*
X482705Y479525D01*
X486641D02*
X484018D01*
X486641Y482149D01*
Y482805D01*
X485985Y483461D01*
X484673D01*
X484018Y482805D01*
M02*
