G04*
G04 #@! TF.GenerationSoftware,Altium Limited,Altium Designer,19.1.7 (138)*
G04*
G04 Layer_Physical_Order=1*
G04 Layer_Color=255*
%FSLAX44Y44*%
%MOMM*%
G71*
G01*
G75*
%ADD10R,1.0000X2.0000*%
%ADD11C,0.2540*%
%ADD12R,1.3000X1.5000*%
%ADD13R,1.7000X1.1000*%
%ADD14R,1.1000X1.7000*%
%ADD15O,2.0000X0.6000*%
%ADD16R,0.8000X1.5000*%
%ADD17R,2.0000X1.2000*%
%ADD18O,1.8000X0.3500*%
%ADD19R,0.6500X0.9000*%
%ADD20C,1.0000*%
%ADD21C,0.4000*%
%ADD22C,0.6000*%
%ADD23C,0.5000*%
%ADD24C,0.2000*%
%ADD25C,2.2000*%
%ADD26R,1.2000X1.2000*%
%ADD27C,1.2000*%
G36*
X1372000Y1050000D02*
Y1060000D01*
X1380000D01*
X1385000Y1055000D01*
X1380000Y1050000D01*
X1372000D01*
D01*
D02*
G37*
G36*
X1385500Y1060000D02*
X1390500Y1055000D01*
X1385500Y1050000D01*
X1399000D01*
Y1060000D01*
X1385500D01*
D01*
D02*
G37*
D10*
X1064100Y1238600D02*
D03*
X1084100D02*
D03*
X1024100D02*
D03*
X1104100D02*
D03*
X1044100D02*
D03*
D11*
X1394000Y1055000D02*
D03*
X1379000D02*
D03*
D12*
X1376500Y1074000D02*
D03*
X1395500D02*
D03*
D13*
X1094000Y1115500D02*
D03*
Y1088500D02*
D03*
X1212000Y1204500D02*
D03*
Y1177500D02*
D03*
X1115000Y1115500D02*
D03*
Y1088500D02*
D03*
X1234000Y1204500D02*
D03*
Y1177500D02*
D03*
D14*
X1333500Y1131000D02*
D03*
X1360500D02*
D03*
X1336500Y1152000D02*
D03*
X1363500D02*
D03*
D15*
X1350000Y1022550D02*
D03*
Y1035250D02*
D03*
Y1047950D02*
D03*
Y1060650D02*
D03*
Y1073350D02*
D03*
Y1086050D02*
D03*
Y1098750D02*
D03*
Y1111450D02*
D03*
X1260000Y1022550D02*
D03*
Y1035250D02*
D03*
Y1047950D02*
D03*
Y1060650D02*
D03*
Y1073350D02*
D03*
Y1086050D02*
D03*
Y1098750D02*
D03*
Y1111450D02*
D03*
D16*
X1267000Y1173000D02*
D03*
X1292400D02*
D03*
X1317800D02*
D03*
X1343200D02*
D03*
D17*
X1091000Y1069000D02*
D03*
X1119000D02*
D03*
D18*
X1213000Y1065750D02*
D03*
Y1072250D02*
D03*
Y1078750D02*
D03*
Y1085250D02*
D03*
Y1091750D02*
D03*
Y1098250D02*
D03*
Y1104750D02*
D03*
Y1111250D02*
D03*
Y1117750D02*
D03*
Y1124250D02*
D03*
Y1130750D02*
D03*
Y1137250D02*
D03*
Y1143750D02*
D03*
Y1150250D02*
D03*
X1145000Y1065750D02*
D03*
Y1072250D02*
D03*
Y1078750D02*
D03*
Y1085250D02*
D03*
Y1091750D02*
D03*
Y1098250D02*
D03*
Y1104750D02*
D03*
Y1111250D02*
D03*
Y1117750D02*
D03*
Y1124250D02*
D03*
Y1130750D02*
D03*
Y1137250D02*
D03*
Y1143750D02*
D03*
Y1150250D02*
D03*
D19*
X1065000Y1165000D02*
D03*
X1055500Y1141000D02*
D03*
X1065000D02*
D03*
X1074500D02*
D03*
Y1165000D02*
D03*
X1055500D02*
D03*
D20*
X1024100Y1132900D02*
Y1238600D01*
Y1132900D02*
X1044000Y1113000D01*
X1085000Y1189500D02*
Y1203700D01*
X1104100Y1222800D02*
Y1238600D01*
X1085000Y1203700D02*
X1104100Y1222800D01*
X1024100Y1238600D02*
X1044100D01*
X1115000Y1069000D02*
X1119000D01*
X1044000Y1083100D02*
Y1113000D01*
X1086000Y1123500D02*
Y1129000D01*
X1117000Y1070000D02*
Y1087329D01*
X1073600Y1053500D02*
X1103500D01*
X1114000Y1064000D01*
Y1068000D01*
X1115000Y1069000D01*
X1044000Y1083100D02*
X1073600Y1053500D01*
X1209500Y1175000D02*
X1212000Y1177500D01*
X1099000Y1175000D02*
X1209500D01*
X1085000Y1189500D02*
X1187500D01*
X1086000Y1123500D02*
X1094000Y1115500D01*
X1202500Y1204500D02*
X1212000D01*
X1187500Y1189500D02*
X1202500Y1204500D01*
X1212000D02*
X1234000D01*
X1292400Y1173000D02*
Y1177600D01*
X1265500Y1204500D02*
X1292400Y1177600D01*
X1234000Y1204500D02*
X1265500D01*
X1250500Y1177500D02*
X1254643Y1173357D01*
X1266643D01*
X1267000Y1173000D01*
X1234000Y1177500D02*
X1250500D01*
X1212000D02*
X1234000D01*
X1094000Y1088500D02*
X1115000D01*
X1076000Y1109142D02*
X1081858Y1115000D01*
X1076000Y1080142D02*
Y1109142D01*
Y1080142D02*
X1086000Y1070142D01*
Y1070000D02*
Y1070142D01*
Y1070000D02*
X1087000Y1069000D01*
X1091000D01*
X1081858Y1115000D02*
X1093500D01*
X1094000Y1115500D01*
D21*
X1039000Y1138990D02*
X1060532Y1117458D01*
X1064100Y1215329D02*
Y1238600D01*
X1082236Y1224979D02*
Y1236736D01*
X1060532Y1117458D02*
X1069264D01*
X1074500Y1141000D02*
X1075438Y1140062D01*
Y1123632D02*
Y1140062D01*
X1069264Y1117458D02*
X1075438Y1123632D01*
X1045000Y1151500D02*
X1053000Y1143500D01*
X1054250D01*
X1055500Y1142250D01*
Y1141000D02*
Y1142250D01*
X1064898Y1127998D02*
Y1140898D01*
Y1127898D02*
Y1127998D01*
X1045000Y1151500D02*
Y1187743D01*
X1039000Y1138990D02*
Y1190229D01*
X1064100Y1215329D01*
X1045000Y1187743D02*
X1082236Y1224979D01*
Y1236736D02*
X1084100Y1238600D01*
X1068550Y1156500D02*
X1075550Y1149500D01*
X1060093Y1156500D02*
X1068550D01*
X1056750Y1159843D02*
X1060093Y1156500D01*
X1075550Y1149500D02*
X1087694D01*
X1075750Y1159200D02*
Y1163750D01*
Y1159200D02*
X1078450Y1156500D01*
X1090500D01*
X1096750Y1150250D01*
X1093444Y1143750D02*
X1145000D01*
X1087694Y1149500D02*
X1093444Y1143750D01*
X1056750Y1159843D02*
Y1163750D01*
X1156650Y1085250D02*
X1161000Y1089600D01*
X1145000Y1085250D02*
X1156650D01*
X1064800Y1127800D02*
X1064898Y1127898D01*
Y1140898D02*
X1065000Y1141000D01*
X1156850Y1111250D02*
X1161000Y1107100D01*
X1145000Y1111250D02*
X1156850D01*
X1213000Y1065750D02*
X1221250D01*
X1224200Y1062800D01*
X1213000Y1091750D02*
X1227750D01*
X1133279Y1078750D02*
X1145000D01*
X1130150Y1085250D02*
X1145000D01*
X1138103Y1117750D02*
X1145000D01*
X1096750Y1150250D02*
X1145000D01*
X1055500Y1165000D02*
X1056750Y1163750D01*
X1074500Y1165000D02*
X1075750Y1163750D01*
X1115000Y1125000D02*
X1127250Y1137250D01*
X1145000D01*
X1115000Y1115500D02*
Y1125000D01*
X1145000Y1130750D02*
X1169250D01*
X1195250Y1104750D02*
X1213000D01*
X1145000Y1117750D02*
X1163250D01*
X1195750Y1085250D01*
X1213000D01*
D22*
X1254015Y1111450D02*
Y1117435D01*
X1075600Y1189500D02*
X1085000D01*
X1065000Y1178900D02*
X1075600Y1189500D01*
X1065000Y1165000D02*
Y1178900D01*
X1085000Y1173000D02*
Y1189500D01*
Y1173000D02*
X1087460Y1170540D01*
Y1170220D02*
Y1170540D01*
Y1170220D02*
X1094680Y1163000D01*
X1223000D01*
X1237000Y1149000D01*
Y1134450D02*
Y1149000D01*
Y1134450D02*
X1254015Y1117435D01*
Y1111450D02*
X1260000D01*
X1233950Y1086050D02*
X1260000D01*
X1241350Y1073350D02*
X1260000D01*
X1239050Y1047950D02*
X1260000D01*
X1246250Y1098750D02*
X1260000D01*
X1242000Y1103000D02*
X1246250Y1098750D01*
X1240000Y1023000D02*
X1240450Y1022550D01*
X1260000D01*
X1277000Y1061000D02*
Y1103078D01*
Y1039000D02*
Y1061000D01*
X1276650Y1060650D02*
X1277000Y1061000D01*
X1260000Y1060650D02*
X1276650D01*
X1268628Y1111450D02*
X1277000Y1103078D01*
X1260000Y1111450D02*
X1268628D01*
X1273250Y1035250D02*
X1277000Y1039000D01*
X1260000Y1035250D02*
X1273250D01*
X1334000Y1028000D02*
X1339450Y1022550D01*
X1350000D01*
X1334000Y1028000D02*
Y1092000D01*
X1340750Y1098750D01*
X1350000D01*
X1361500Y1133576D02*
Y1150000D01*
X1360500Y1132576D02*
X1361500Y1133576D01*
X1357000Y1098750D02*
X1365000Y1106750D01*
Y1123500D01*
X1360500Y1128000D02*
X1365000Y1123500D01*
X1366000Y1154500D02*
Y1181000D01*
X1359000Y1188000D02*
X1366000Y1181000D01*
X1337000Y1188000D02*
X1359000D01*
X1339000Y1151500D02*
Y1157000D01*
X1343200Y1173000D02*
X1354000D01*
X1363500Y1152000D02*
X1366000Y1154500D01*
X1328000Y1173000D02*
Y1179000D01*
X1337000Y1188000D01*
X1317800Y1173000D02*
X1328000D01*
X1343200Y1161200D02*
Y1173000D01*
X1339000Y1157000D02*
X1343200Y1161200D01*
X1360500Y1131000D02*
Y1132576D01*
Y1128000D02*
Y1131000D01*
X1350000Y1098750D02*
X1357000D01*
X1339550Y1111450D02*
X1350000D01*
X1333500Y1131000D02*
X1335000Y1132500D01*
X1333472Y1130972D02*
X1333500Y1131000D01*
X1333472Y1117528D02*
X1339550Y1111450D01*
X1335000Y1132500D02*
Y1150500D01*
X1336500Y1152000D01*
X1333472Y1117528D02*
Y1130972D01*
X1361500Y1150000D02*
X1363500Y1152000D01*
X1317800Y1173000D02*
Y1176500D01*
D23*
X1378550Y1071950D02*
Y1076050D01*
X1398414Y1101414D02*
Y1124586D01*
X1380500Y1083500D02*
X1398414Y1101414D01*
X1380500Y1078000D02*
Y1083500D01*
X1378550Y1076050D02*
X1380500Y1078000D01*
X1373500Y1077000D02*
X1376500Y1074000D01*
X1378550Y1076050D01*
X1370850Y1073350D02*
X1373500Y1076000D01*
X1350000Y1073350D02*
X1370850D01*
X1405414Y1084450D02*
X1406500Y1083364D01*
Y1049500D02*
Y1083364D01*
X1405414Y1084450D02*
Y1117586D01*
X1401000Y1044000D02*
X1406500Y1049500D01*
X1380000Y1044000D02*
X1401000D01*
X1350000Y1060650D02*
X1361350D01*
X1367000Y1055000D01*
X1379000D01*
X1376000Y1048000D02*
X1380000Y1044000D01*
X1376000Y1052000D02*
X1379000Y1055000D01*
X1376000Y1048000D02*
Y1052000D01*
X1405414Y1117586D02*
X1425429Y1137600D01*
X1434601D01*
X1436000Y1139000D01*
X1398414Y1124586D02*
X1423757Y1149929D01*
Y1158370D01*
X1431427Y1166040D01*
X1440573D01*
X1447040Y1159573D01*
Y1149929D02*
Y1159573D01*
Y1149929D02*
X1449969Y1147000D01*
X1461000D01*
X1161702Y1088898D02*
X1162598D01*
X1161000Y1089600D02*
X1161702Y1088898D01*
X1161000Y1089600D02*
Y1107100D01*
X1224200Y1062800D02*
X1239050Y1047950D01*
X1227750Y1091750D02*
X1228250D01*
X1233950Y1086050D01*
X1130150Y1085250D02*
X1130350Y1085050D01*
Y1081679D02*
Y1085050D01*
Y1081679D02*
X1133279Y1078750D01*
X1117000Y1087329D02*
X1128071D01*
X1116171D02*
X1117000D01*
X1128071D02*
X1130150Y1085250D01*
X1115000Y1088500D02*
X1116171Y1087329D01*
X1132750Y1117750D02*
X1138103D01*
X1129000Y1114000D02*
X1132750Y1117750D01*
X1129000Y1105000D02*
Y1114000D01*
X1126000Y1102000D02*
X1129000Y1105000D01*
X1107500Y1102000D02*
X1126000D01*
X1169250Y1130750D02*
X1195250Y1104750D01*
X1100000Y1109500D02*
X1107500Y1102000D01*
X1100000Y1109500D02*
Y1112500D01*
X1097000Y1115500D02*
X1100000Y1112500D01*
X1094000Y1115500D02*
X1097000D01*
X1394000Y1072500D02*
X1395500Y1074000D01*
X1394000Y1055000D02*
Y1072500D01*
D24*
X1520000Y1000000D02*
Y1300000D01*
X990000Y1000000D02*
X1520000D01*
X990000D02*
Y1300000D01*
X1520000D01*
D25*
X1486000Y1201000D02*
D03*
Y1101000D02*
D03*
D26*
X1436000Y1139000D02*
D03*
D27*
X1461000Y1147000D02*
D03*
X1436000Y1155000D02*
D03*
X1461000Y1163000D02*
D03*
X1064898Y1127998D02*
D03*
X1085000Y1189500D02*
D03*
X1044000Y1113000D02*
D03*
X1162598Y1088898D02*
D03*
X1086000Y1129000D02*
D03*
X1169250Y1130750D02*
D03*
X1099000Y1175000D02*
D03*
X1241350Y1073350D02*
D03*
X1242000Y1103000D02*
D03*
X1240450Y1022550D02*
D03*
X1354000Y1173000D02*
D03*
X1328000D02*
D03*
M02*
